<svg width="182" height="54" viewBox="0 0 182 54" fill="none" xmlns="http://www.w3.org/2000/svg">
<path d="M22.9076 24.7374H10.6387L8.79838 30.4693C8.18493 31.676 7.87821 32.8827 7.87821 33.486C7.87821 34.0894 8.18493 34.6927 8.49165 34.9944C9.1051 35.2961 10.0253 35.5978 11.5589 35.8994V36.8045H1.74376V35.8994C2.97065 35.5978 3.89082 35.2961 4.19754 34.6927C5.11771 33.7877 6.03787 32.2793 6.95804 29.5642L17.6933 0H18.6135L29.3488 29.8659C29.9622 32.2793 30.8824 33.7877 31.4958 34.6927C32.416 35.2961 33.3362 35.5978 34.5631 35.8994V36.8045H22.2942V35.8994C23.5211 35.5978 24.4412 35.5978 24.7479 34.9944C25.3614 34.6927 25.3614 34.0894 25.3614 33.486C25.3614 32.8827 25.0547 31.676 24.4412 29.8659L22.9076 24.7374ZM21.9874 22.9274L16.7732 8.44693L11.5589 22.9274H21.9874Z" fill="#2A2D42"/>
<path d="M49.2857 9.65307L56.6471 29.5637L63.7017 9.65307H71.3698V10.5581C70.4496 10.5581 69.8362 10.8598 69.5294 10.8598C68.916 11.1615 68.6093 11.4631 68.3025 12.0665C67.9958 12.3682 67.9958 12.9715 67.9958 13.5749C67.9958 14.1782 67.9958 15.0832 67.9958 15.6866V30.7704C67.9958 31.3737 67.9958 31.9771 67.9958 32.5804C67.9958 33.1838 67.9958 33.7871 68.3025 34.0888C68.6093 34.6922 68.916 34.9939 69.2227 35.2955C69.8362 35.5972 70.4496 35.5972 71.3698 35.5972V36.8039H60.6345V35.5972C61.5546 35.5972 62.1681 35.5972 62.4748 35.2955C62.7815 34.9939 63.0883 34.3905 63.395 34.0888C63.7017 33.4855 63.7017 32.8821 63.7017 32.2788C63.7017 31.6754 63.7017 30.7704 63.7017 30.167V13.5749L55.7269 36.8039H54.8068L47.1387 14.7816H46.832V31.0721C46.832 32.2788 46.832 32.8821 47.1387 33.4855C47.1387 34.0888 47.4454 34.6922 47.7521 34.9939C48.0589 35.2955 48.3656 35.2955 48.979 35.5972C49.5925 35.5972 50.2059 35.5972 50.8194 35.5972V36.8039H41.9244V35.5972C42.8446 35.5972 43.458 35.5972 44.0715 35.2955C44.3782 34.9939 44.6849 34.6922 44.9916 34.3905C45.2984 33.7871 45.2984 33.4855 45.2984 32.8821C45.2984 32.2788 45.2984 31.9771 45.2984 31.3737V16.8933C45.2984 15.9883 45.2984 15.0832 45.2984 14.1782C45.2984 13.2732 45.2984 12.6698 44.9916 12.0665C44.6849 11.7648 44.3782 11.1615 44.0715 10.8598C43.458 10.8598 42.8446 10.5581 41.9244 10.5581V9.65307H49.2857ZM79.6513 36.8039V35.5972C79.958 35.5972 80.2647 35.5972 80.5714 35.5972C80.8782 35.5972 81.1849 35.2955 81.4916 34.9939C81.7983 34.6922 82.1051 34.0888 82.4118 33.4855C82.7185 32.8821 83.3319 31.9771 83.6387 30.7704L91.3067 8.74805H91.9202L100.508 32.2788C100.815 33.1838 101.122 33.7871 101.429 34.0888C101.735 34.6922 102.042 34.9939 102.349 35.2955C102.655 35.2955 102.962 35.5972 103.269 35.5972C103.576 35.5972 103.882 35.5972 104.189 35.5972V36.8039H94.6807V35.5972C94.6807 35.5972 94.9874 35.5972 95.2941 35.5972C95.2941 35.5972 95.6008 35.5972 95.9076 35.5972C96.2143 35.2955 96.2143 35.2955 96.521 34.9939C96.521 34.9939 96.8277 34.6922 96.8277 34.3905C96.8277 34.0888 96.8277 33.4855 96.521 33.1838C96.521 32.8821 96.2143 32.2788 96.2143 31.9771L94.6807 28.357H86.3992L85.1723 31.9771C85.1723 32.2788 84.8656 32.5804 84.8656 32.8821C84.8656 33.1838 84.8656 33.4855 84.8656 33.7871C84.8656 34.0888 84.8656 34.3905 85.1723 34.6922C85.1723 34.9939 85.479 35.2955 85.7857 35.2955C85.7857 35.2955 86.0925 35.5972 86.3992 35.5972C86.7059 35.5972 86.7059 35.5972 87.0126 35.5972V36.8039H79.6513ZM87.0126 26.5469H94.0672L90.3866 16.5916L87.0126 26.5469ZM128.42 9.65307L128.727 15.9883H127.807C127.807 15.0832 127.5 14.1782 127.5 13.5749C127.193 12.9715 126.887 12.6698 126.58 12.0665C125.966 11.7648 125.66 11.7648 125.353 11.4631C124.739 11.4631 124.126 11.4631 123.819 11.4631H120.139V31.0721C120.139 31.6754 120.139 32.2788 120.445 32.8821C120.445 33.4855 120.445 34.0888 120.752 34.3905C121.059 34.6922 121.366 34.9939 121.979 35.2955C122.286 35.5972 122.899 35.5972 123.819 35.5972V36.8039H112.471V35.5972C113.391 35.5972 114.004 35.5972 114.618 35.2955C114.924 34.9939 115.231 34.6922 115.538 34.3905C115.845 34.0888 115.845 33.4855 115.845 32.8821C116.151 32.2788 116.151 31.6754 116.151 31.0721V11.4631H112.777C111.857 11.4631 111.244 11.4631 110.63 11.7648C110.017 11.7648 109.71 12.0665 109.403 12.6698C109.097 12.9715 108.79 13.5749 108.79 14.1782C108.483 14.7816 108.483 15.3849 108.483 15.9883H107.563L107.87 9.65307H128.42ZM148.971 36.8039H137.929V35.5972C138.849 35.5972 139.462 35.5972 139.769 35.2955C140.382 35.2955 140.689 34.9939 140.689 34.3905C140.996 34.0888 141.303 33.7871 141.303 33.1838C141.303 32.5804 141.303 31.9771 141.303 31.0721V15.0832C141.303 14.4799 141.303 14.1782 141.303 13.5749C141.303 12.9715 141.303 12.3682 140.996 12.0665C140.689 11.4631 140.382 11.1615 140.076 10.8598C139.462 10.8598 138.849 10.5581 137.929 10.5581V9.65307H148.971V10.5581C148.05 10.5581 147.437 10.8598 146.824 10.8598C146.517 11.1615 146.21 11.4631 145.903 12.0665C145.597 12.3682 145.597 12.9715 145.597 13.5749C145.597 14.1782 145.597 14.4799 145.597 15.0832V31.0721C145.597 31.9771 145.597 32.5804 145.597 33.1838C145.597 33.7871 145.903 34.0888 145.903 34.3905C146.21 34.9939 146.517 35.2955 147.13 35.2955C147.437 35.5972 148.05 35.5972 148.971 35.5972V36.8039ZM181.176 18.4017H180.256C180.256 18.1 179.95 17.7983 179.95 17.195C179.95 16.8933 179.643 16.5916 179.336 15.9883C179.336 15.6866 179.029 15.3849 178.723 14.7816C178.723 14.4799 178.416 14.1782 178.109 13.5749C177.496 13.2732 177.189 12.6698 176.576 12.3682C175.962 12.0665 175.655 11.4631 175.042 11.4631C174.429 11.1615 173.815 10.8598 173.202 10.5581C172.588 10.5581 171.975 10.5581 171.361 10.5581C170.441 10.5581 169.214 10.8598 168.294 11.4631C167.374 12.0665 166.454 12.6698 165.84 13.8765C164.92 15.0832 164.307 16.2899 164 17.7983C163.693 19.3067 163.387 21.1168 163.387 22.9268C163.387 24.7369 163.693 26.2453 164 27.7536C164 28.9603 164.613 30.167 164.92 31.0721C165.534 31.9771 165.84 32.5804 166.454 33.1838C167.067 33.7871 167.681 34.3905 168.294 34.6922C168.908 34.9939 169.521 35.2955 170.134 35.2955C170.748 35.5972 171.361 35.5972 171.975 35.5972C172.895 35.5972 173.815 35.5972 174.735 34.9939C175.655 34.6922 176.882 34.0888 177.802 33.1838C178.109 32.8821 178.416 32.2788 178.723 31.9771C179.029 31.6754 179.029 31.3737 179.336 31.0721C179.643 30.4687 179.95 30.167 179.95 29.8654C180.256 29.262 180.256 28.9603 180.563 28.357L181.483 28.9603C181.176 29.262 181.176 29.8654 180.87 30.167C180.563 30.7704 180.256 31.3737 179.95 31.9771C179.643 32.5804 179.336 33.1838 178.723 33.7871C178.109 34.6922 177.496 34.9939 176.882 35.5972C175.962 36.2006 175.042 36.5022 174.122 36.8039C173.202 37.4073 172.281 37.4073 171.055 37.4073C169.214 37.4073 167.987 37.1056 166.454 36.5022C164.92 35.5972 163.693 34.6922 162.466 33.4855C161.546 32.2788 160.626 30.7704 159.706 29.262C159.092 27.452 158.786 25.6419 158.786 23.5302C158.786 21.4184 159.092 19.6084 159.706 17.7983C160.319 15.9883 161.239 14.4799 162.466 12.9715C163.387 11.7648 164.92 10.8598 166.147 9.95475C167.681 9.3514 169.214 8.74805 171.055 8.74805C172.281 8.74805 173.202 9.04972 174.122 9.3514C174.735 9.65307 175.349 9.95475 175.962 10.2564C176.269 10.2564 176.576 10.5581 176.882 10.5581C177.189 10.8598 177.496 10.8598 177.496 10.8598C177.802 10.8598 177.802 10.8598 177.802 10.8598L178.109 11.1615C178.109 11.1615 178.109 10.8598 178.416 10.8598C178.416 10.8598 178.723 10.8598 178.723 10.5581C179.029 10.5581 179.029 10.2564 179.029 9.95475C179.336 9.65307 179.336 9.3514 179.336 8.74805H180.256L181.176 18.4017Z" fill="#2A2D42"/>
<path d="M0.516861 44.9492H2.05047V53.6978H0.516861V44.9492ZM18.6135 44.9492H19.5337L21.6807 50.9827C21.6807 50.6811 21.6807 50.6811 21.6807 50.3794C21.6807 50.3794 21.6807 50.0777 21.6807 49.776C21.6807 49.776 21.6807 49.4743 21.6807 49.1727C21.6807 48.871 21.6807 48.5693 21.6807 48.2676V44.9492H22.9076V53.6978H21.6807L19.5337 48.2676V48.5693C19.5337 48.871 19.5337 48.871 19.5337 49.1727C19.8404 49.4743 19.8404 49.776 19.8404 50.0777C19.8404 50.3794 19.8404 50.6811 19.8404 51.2844V53.6978H18.6135V44.9492ZM39.4706 44.9492H40.6975C41.0042 44.9492 41.311 44.9492 41.6177 45.2509C41.6177 45.2509 41.9244 45.2509 42.2311 45.2509C42.2311 45.2509 42.5378 45.2509 42.8446 45.5526C42.8446 45.5526 43.1513 45.8542 43.1513 46.1559C43.458 46.1559 43.458 46.4576 43.7647 46.7593C43.7647 47.3626 43.7647 47.6643 43.7647 48.2676V50.6811C43.7647 51.2844 43.7647 51.5861 43.7647 51.8878C43.458 52.4911 43.458 52.7928 43.1513 52.7928C43.1513 53.0945 42.8446 53.3961 42.8446 53.3961C42.5378 53.3961 42.2311 53.6978 42.2311 53.6978C41.9244 53.6978 41.6177 53.6978 41.6177 53.6978C41.311 53.6978 41.0042 53.6978 40.6975 53.6978H39.4706V44.9492ZM41.0042 52.7928C41.311 52.7928 41.6177 52.7928 41.6177 52.7928C41.9244 52.7928 41.9244 52.4911 42.2311 52.4911C42.2311 52.1894 42.2311 52.1894 42.2311 51.8878C42.2311 51.5861 42.2311 51.2844 42.2311 50.9827V48.2676C42.2311 47.6643 42.2311 47.3626 42.2311 47.0609C42.2311 46.7593 42.2311 46.7593 42.2311 46.4576C41.9244 46.4576 41.9244 46.1559 41.6177 46.1559C41.6177 46.1559 41.311 46.1559 41.0042 46.1559H40.6975V52.7928H41.0042ZM60.021 44.9492H61.2479V51.5861C61.2479 51.8878 61.2479 51.8878 61.2479 52.1894C61.2479 52.4911 61.5546 52.4911 61.5546 52.4911C61.5546 52.7928 61.5546 52.7928 61.8614 52.7928C61.8614 52.7928 61.8614 52.7928 62.1681 52.7928C62.1681 52.7928 62.1681 52.7928 62.4748 52.7928C62.4748 52.7928 62.4748 52.7928 62.7815 52.4911C62.7815 52.4911 62.7815 52.4911 62.7815 52.1894C62.7815 51.8878 62.7815 51.8878 62.7815 51.5861V44.9492H64.3151V51.2844C64.3151 51.5861 64.0084 51.8878 64.0084 52.1894C64.0084 52.4911 64.0084 52.7928 63.7017 53.0945C63.7017 53.0945 63.7017 53.3961 63.395 53.3961C63.395 53.6978 63.0883 53.6978 63.0883 53.6978C62.7815 53.6978 62.7815 53.9995 62.4748 53.9995H62.1681C61.8614 53.9995 61.8614 53.9995 61.5546 53.9995L61.2479 53.6978C60.9412 53.6978 60.9412 53.6978 60.6345 53.3961L60.3278 53.0945C60.3278 52.7928 60.021 52.4911 60.021 52.1894C60.021 51.8878 60.021 51.5861 60.021 51.2844V44.9492ZM80.2647 52.1894C80.2647 51.8878 80.2647 51.5861 80.2647 51.5861C80.2647 51.2844 80.5714 51.2844 80.5714 50.9827H81.4916V51.5861C81.4916 51.5861 81.4916 51.8878 81.4916 52.1894L81.7983 52.4911C81.7983 52.7928 81.7983 52.7928 82.105 52.7928C82.105 52.7928 82.105 52.7928 82.4118 52.7928C82.7185 52.7928 82.7185 52.7928 83.0252 52.7928C83.0252 52.4911 83.3319 52.4911 83.3319 52.1894C83.3319 51.8878 83.3319 51.8878 83.0252 51.5861C83.0252 51.5861 83.0252 51.5861 83.0252 51.2844C83.0252 51.2844 83.0252 51.2844 83.0252 50.9827C82.7185 50.9827 82.7185 50.6811 82.7185 50.6811L81.1849 48.871C80.8782 48.5693 80.8782 48.2676 80.5714 47.966C80.5714 47.6643 80.2647 47.3626 80.2647 47.0609C80.2647 46.7593 80.5714 46.4576 80.5714 46.1559C80.5714 45.8542 80.8782 45.8542 80.8782 45.5526C81.1849 45.2509 81.1849 45.2509 81.4916 45.2509C81.7983 44.9492 82.105 44.9492 82.4118 44.9492C82.7185 44.9492 83.0252 44.9492 83.3319 45.2509C83.6387 45.2509 83.9454 45.5526 83.9454 45.5526C84.2521 45.8542 84.2521 45.8542 84.2521 46.1559C84.5588 46.4576 84.5588 46.7593 84.5588 46.7593C84.5588 47.0609 84.5588 47.3626 84.5588 47.3626C84.2521 47.6643 84.2521 47.6643 84.2521 47.966H83.3319V47.3626C83.3319 47.0609 83.3319 46.7593 83.0252 46.4576C83.0252 46.1559 82.7185 46.1559 82.4118 46.1559C82.105 46.1559 82.105 46.1559 81.7983 46.1559C81.7983 46.4576 81.7983 46.4576 81.7983 46.7593C81.7983 47.0609 81.7983 47.0609 81.7983 47.0609C81.7983 47.3626 81.7983 47.3626 81.7983 47.3626V47.6643C82.105 47.6643 82.105 47.966 82.105 47.966L83.6387 49.776C83.9454 50.0777 84.2521 50.3794 84.2521 50.6811C84.5588 51.2844 84.5588 51.5861 84.5588 51.8878C84.5588 52.1894 84.5588 52.4911 84.2521 52.7928C84.2521 53.0945 84.2521 53.0945 83.9454 53.3961C83.6387 53.3961 83.6387 53.6978 83.3319 53.6978C83.0252 53.9995 82.7185 53.9995 82.4118 53.9995C82.105 53.9995 81.7983 53.9995 81.4916 53.6978C81.1849 53.6978 80.8782 53.3961 80.8782 53.3961C80.5714 53.0945 80.5714 53.0945 80.5714 52.7928C80.2647 52.4911 80.2647 52.1894 80.2647 52.1894ZM101.429 46.1559H100.202V44.9492H104.189V46.1559H102.962V53.6978H101.429V46.1559ZM120.139 44.9492H121.672C121.979 44.9492 121.979 44.9492 122.286 45.2509C122.592 45.2509 122.592 45.2509 122.899 45.2509C122.899 45.2509 123.206 45.2509 123.513 45.5526C123.513 45.5526 123.819 45.5526 123.819 45.8542C124.126 46.1559 124.126 46.1559 124.126 46.4576C124.433 46.7593 124.433 47.0609 124.433 47.6643C124.433 48.5693 124.433 48.871 124.126 49.4743C123.819 49.776 123.513 50.0777 123.206 50.3794L124.739 53.6978H123.206L121.979 50.6811H121.672V53.6978H120.139V44.9492ZM121.672 49.4743C121.979 49.4743 122.286 49.4743 122.286 49.4743C122.592 49.4743 122.592 49.4743 122.899 49.1727V48.871C122.899 48.5693 122.899 48.2676 122.899 47.966V47.3626C122.899 47.0609 122.899 47.0609 122.899 46.7593V46.4576C122.592 46.1559 122.592 46.1559 122.286 46.1559C122.286 46.1559 121.979 46.1559 121.672 46.1559V49.4743ZM140.689 44.9492H141.916V53.6978H140.689V44.9492ZM158.479 44.9492H161.853V46.1559H160.013V48.871H161.546V49.776H160.013V52.7928H161.853V53.6978H158.479V44.9492ZM177.496 52.1894C177.496 51.8878 177.496 51.5861 177.802 51.5861C177.802 51.2844 177.802 51.2844 177.802 50.9827H178.723V51.5861C178.723 51.5861 178.723 51.8878 178.723 52.1894L179.029 52.4911C179.029 52.7928 179.029 52.7928 179.336 52.7928H179.643C179.95 52.7928 180.256 52.7928 180.256 52.7928C180.256 52.4911 180.563 52.4911 180.563 52.1894C180.563 51.8878 180.563 51.8878 180.563 51.5861C180.563 51.5861 180.256 51.5861 180.256 51.2844C180.256 51.2844 180.256 51.2844 180.256 50.9827C179.95 50.9827 179.95 50.6811 179.95 50.6811L178.416 48.871C178.109 48.5693 178.109 48.2676 177.802 47.966C177.802 47.6643 177.802 47.3626 177.802 47.0609C177.802 46.7593 177.802 46.4576 177.802 46.1559C177.802 45.8542 178.109 45.8542 178.109 45.5526C178.416 45.2509 178.723 45.2509 178.723 45.2509C179.029 44.9492 179.336 44.9492 179.643 44.9492C179.95 44.9492 180.563 44.9492 180.563 45.2509C180.87 45.2509 181.176 45.5526 181.176 45.5526C181.483 45.8542 181.483 45.8542 181.79 46.1559C181.79 46.4576 181.79 46.7593 181.79 46.7593C181.79 47.0609 181.79 47.3626 181.79 47.3626C181.79 47.6643 181.483 47.6643 181.483 47.966H180.563V47.3626C180.563 47.0609 180.563 46.7593 180.256 46.4576C180.256 46.1559 179.95 46.1559 179.643 46.1559C179.336 46.1559 179.336 46.1559 179.029 46.1559C179.029 46.4576 179.029 46.4576 179.029 46.7593C179.029 47.0609 179.029 47.0609 179.029 47.0609C179.029 47.3626 179.029 47.3626 179.029 47.3626V47.6643C179.336 47.6643 179.336 47.966 179.336 47.966L180.87 49.776C181.176 50.0777 181.483 50.3794 181.483 50.6811C181.79 51.2844 181.79 51.5861 181.79 51.8878C181.79 52.1894 181.79 52.4911 181.79 52.7928C181.483 53.0945 181.483 53.0945 181.176 53.3961C181.176 53.3961 180.87 53.6978 180.563 53.6978C180.256 53.9995 179.95 53.9995 179.643 53.9995C179.336 53.9995 179.029 53.9995 178.723 53.6978C178.416 53.6978 178.109 53.3961 178.109 53.3961C177.802 53.0945 177.802 53.0945 177.802 52.7928C177.802 52.4911 177.496 52.1894 177.496 52.1894Z" fill="#2A2D42"/>
<path fill-rule="evenodd" clip-rule="evenodd" d="M0.210136 40.123H181.79V41.3298H0.210136V40.123Z" fill="#2A2D42"/>
</svg>
