<svg width="131" height="54" viewBox="0 0 131 54" fill="none" xmlns="http://www.w3.org/2000/svg">
<path fill-rule="evenodd" clip-rule="evenodd" d="M46.7233 10.368C46.7233 10.368 39.5183 0 23.3617 0C10.0433 0 0 7.344 0 11.664C0 16.632 10.0433 19.224 10.0433 27H27.2917C27.2917 22.464 12.2267 20.088 12.2267 10.368C12.2267 1.512 35.5883 2.16 46.7233 10.368Z" fill="#383B55"/>
<path fill-rule="evenodd" clip-rule="evenodd" d="M0.218333 10.1523C0 10.8003 0 11.2323 0 11.6643C0 16.6323 10.0433 19.2243 10.0433 27.0003C10.0433 34.5603 0 37.3683 0 42.3363C0 42.7683 0 43.2003 0.218333 43.6323C-1.09167 38.8803 16.375 34.7763 24.4533 30.4563C26.2 29.3763 27.2917 28.2963 27.2917 27.0003C27.2917 25.7043 26.2 24.6243 24.4533 23.5443C16.375 19.2243 -1.09167 15.1203 0.218333 10.1523Z" fill="#2A2D42"/>
<path d="M39.3 28.9445H41.0467C40.8284 29.8085 40.3917 30.4565 39.5184 30.8885C38.8634 31.3205 37.99 31.7525 36.68 31.7525C35.37 31.7525 34.2784 31.3205 33.6234 30.4565C32.75 29.8085 32.3134 28.7285 32.3134 27.2165C32.3134 25.9205 32.75 24.8405 33.6234 23.9765C34.2784 23.3285 35.37 22.8965 36.68 22.8965C38.2084 22.8965 39.3 23.3285 40.1734 23.9765C40.8284 24.8405 41.265 25.9205 41.265 27.2165C41.265 27.4325 41.265 27.4325 41.265 27.4325C41.265 27.6485 41.265 27.6485 41.265 27.6485C41.265 27.8645 41.265 27.8645 41.265 27.8645H34.9334C34.9334 28.5125 35.1517 28.9445 35.5884 29.3765C35.8067 29.5925 36.2434 29.8085 36.8984 29.8085C37.335 29.8085 37.5534 29.8085 37.99 29.5925C37.99 29.5925 37.99 29.5925 38.2084 29.5925C38.2084 29.3765 38.2084 29.3765 38.4267 29.3765C38.4267 29.1605 38.4267 29.1605 38.645 29.1605C38.8634 28.9445 39.0817 28.9445 39.3 28.9445ZM34.9334 26.3525H38.645C38.645 25.9205 38.4267 25.4885 38.2084 25.2725C37.7717 24.8405 37.335 24.8405 36.8984 24.8405C36.2434 24.8405 35.8067 24.8405 35.5884 25.2725C35.1517 25.4885 34.9334 25.9205 34.9334 26.3525ZM51.9634 31.5365H50.6534C50.435 31.5365 49.9984 31.3205 49.78 31.1045C49.5617 31.1045 49.5617 30.6725 49.5617 30.4565V26.1365C49.5617 25.7045 49.3434 25.2725 48.9067 25.0565C48.6884 24.8405 48.2517 24.6245 47.815 24.6245C47.3784 24.6245 46.9417 24.8405 46.7234 25.0565C46.2867 25.2725 46.2867 25.7045 46.2867 26.1365V31.5365H43.6667V26.5685C43.6667 25.0565 44.1034 24.1925 44.9767 23.7605C45.85 23.1125 46.7234 22.8965 47.815 22.8965C48.9067 22.8965 49.78 23.1125 50.6534 23.5445C51.5267 24.1925 51.9634 25.0565 51.9634 26.5685V31.5365ZM60.6967 20.5205H62.0067C62.4433 20.5205 62.6617 20.7365 62.88 20.9525C63.0984 21.1685 63.3167 21.3845 63.3167 21.6005V27.8645C63.3167 29.3765 62.6617 30.4565 61.7884 30.8885C60.6967 31.3205 59.8234 31.7525 58.5134 31.7525C57.8584 31.7525 57.4217 31.5365 56.7667 31.3205C56.1117 31.3205 55.675 30.8885 55.2384 30.4565C54.5834 29.8085 54.365 28.7285 54.365 27.4325C54.365 25.9205 54.5834 24.8405 55.2384 24.1925C56.1117 23.3285 56.985 22.8965 58.0767 22.8965C58.7317 22.8965 59.1684 23.1125 59.605 23.3285C60.0417 23.5445 60.4784 23.7605 60.6967 24.1925V20.5205ZM56.7667 27.2165C56.7667 28.0805 56.985 28.7285 57.2034 29.1605C57.64 29.5925 58.0767 29.8085 58.7317 29.8085C59.3867 29.8085 60.0417 29.5925 60.26 29.1605C60.6967 28.7285 60.6967 28.0805 60.6967 27.2165C60.6967 26.5685 60.6967 25.9205 60.26 25.4885C59.8234 25.0565 59.3867 24.8405 58.7317 24.8405C58.0767 24.8405 57.64 25.0565 57.2034 25.4885C56.985 25.9205 56.7667 26.5685 56.7667 27.2165ZM67.0284 30.6725C66.3733 30.4565 66.155 29.8085 65.9367 29.1605C65.7183 28.5125 65.5 27.8645 65.5 27.2165C65.5 26.5685 65.7183 26.1365 65.7183 25.4885C65.9367 24.8405 66.155 24.4085 66.5917 23.9765C67.2467 23.5445 68.12 23.1125 68.9934 22.8965C70.085 22.8965 70.9584 22.8965 71.6133 23.1125C72.705 23.5445 73.36 23.9765 73.7967 24.8405C74.2333 25.4885 74.2333 26.3525 74.2333 27.2165C74.2333 27.8645 74.2333 28.5125 74.015 28.9445C74.015 29.3765 73.7967 29.8085 73.36 30.2405C72.9233 30.8885 72.05 31.3205 71.1767 31.5365C70.5217 31.7525 69.6483 31.7525 68.775 31.5365C68.12 31.3205 67.465 31.1045 67.0284 30.6725ZM68.5567 25.2725C68.12 25.7045 67.9017 26.3525 67.9017 27.4325C68.12 28.2965 68.12 28.9445 68.5567 29.3765C68.775 29.5925 68.9934 29.5925 69.43 29.8085C69.6483 29.8085 70.085 29.8085 70.5217 29.8085C70.74 29.8085 71.1767 29.5925 71.395 29.1605C71.6133 28.7285 71.8317 28.0805 71.8317 27.2165C71.8317 26.5685 71.8317 25.9205 71.395 25.4885C71.1767 25.2725 70.9584 24.8405 70.5217 24.8405C70.085 24.6245 69.8667 24.6245 69.43 24.8405C68.9934 24.8405 68.775 25.0565 68.5567 25.2725ZM76.8533 31.5365V27.4325C76.8533 26.5685 76.8533 25.9205 77.29 25.2725C77.5083 24.8405 77.945 24.4085 78.3817 23.9765C78.8183 23.7605 79.255 23.5445 79.91 23.3285C80.565 23.1125 81.22 23.1125 81.875 23.1125C81.875 23.1125 81.875 23.1125 82.0933 23.1125V25.2725H81.4383C80.565 25.2725 80.1283 25.4885 79.91 25.7045C79.4733 26.1365 79.255 26.5685 79.255 27.2165V31.5365H76.8533ZM86.8967 33.4805C86.8967 33.9125 86.8967 34.1285 86.6783 34.3445C86.2417 34.5605 86.0233 34.5605 85.805 34.5605H84.495V26.7845C84.495 25.2725 84.9317 24.1925 86.0233 23.7605C86.8967 23.1125 87.9883 22.8965 89.08 22.8965C89.735 22.8965 90.39 23.1125 91.045 23.1125C91.7 23.3285 92.1367 23.7605 92.355 23.9765C93.2283 24.8405 93.4467 25.9205 93.4467 27.2165C93.4467 28.5125 93.2283 29.5925 92.355 30.4565C91.7 31.3205 90.8267 31.7525 89.735 31.7525C89.08 31.7525 88.6433 31.5365 87.9883 31.3205C87.5517 31.1045 87.3333 30.8885 86.8967 30.4565V33.4805ZM91.045 27.4325C91.045 26.5685 90.8267 25.9205 90.6083 25.4885C90.1717 25.0565 89.735 24.8405 88.8617 24.8405C88.2067 24.8405 87.77 25.0565 87.5517 25.4885C87.115 25.9205 86.8967 26.5685 86.8967 27.4325C86.8967 28.0805 87.115 28.7285 87.5517 29.1605C87.77 29.5925 88.425 29.8085 89.08 29.8085C89.735 29.8085 90.1717 29.5925 90.6083 29.1605C90.8267 28.7285 91.045 28.0805 91.045 27.4325ZM101.962 25.4885C101.743 25.0565 101.088 24.8405 100.652 24.8405C99.7783 24.8405 99.3417 25.0565 98.905 25.4885C98.6867 25.9205 98.4683 26.3525 98.4683 27.2165V31.5365H96.0667V20.7365H97.1583C97.595 20.7365 97.8133 20.7365 98.0317 20.9525C98.25 21.1685 98.4683 21.3845 98.4683 21.6005V24.1925C98.905 23.5445 99.56 23.1125 100.215 23.1125C101.088 22.8965 101.743 22.8965 102.617 23.1125C103.272 23.3285 103.708 23.7605 104.145 24.4085C104.8 24.8405 105.018 25.7045 105.018 26.5685V31.5365H102.617V27.2165C102.617 26.7845 102.398 26.5685 102.398 26.3525C102.398 25.9205 102.18 25.7045 101.962 25.4885ZM107.638 23.1125H108.948C109.167 23.1125 109.603 23.1125 109.822 23.3285C110.04 23.5445 110.258 23.9765 110.258 24.1925V31.5365H107.638V23.1125ZM107.638 20.7365H108.948C109.167 20.7365 109.603 20.7365 109.822 20.9525C110.04 21.1685 110.258 21.3845 110.258 21.6005V22.4645H107.638V20.7365ZM120.738 31.5365H119.428C118.992 31.5365 118.773 31.3205 118.555 31.1045C118.337 31.1045 118.118 30.6725 118.118 30.4565V26.1365C118.118 25.7045 118.118 25.2725 117.682 25.0565C117.245 24.8405 117.027 24.6245 116.59 24.6245C116.153 24.6245 115.717 24.8405 115.28 25.0565C115.062 25.2725 114.843 25.7045 114.843 26.1365V31.5365H112.442V26.5685C112.442 25.0565 112.66 24.1925 113.533 23.7605C114.407 23.1125 115.498 22.8965 116.372 22.8965C117.463 22.8965 118.555 23.1125 119.428 23.5445C120.302 24.1925 120.738 25.0565 120.738 26.5685V31.5365ZM128.598 27.2165C128.38 27.4325 127.943 27.6485 127.288 27.6485C126.633 27.8645 126.415 27.8645 126.415 27.8645C125.978 27.8645 125.76 28.0805 125.542 28.2965C125.323 28.5125 125.323 28.7285 125.323 28.9445C125.323 29.1605 125.323 29.5925 125.542 29.8085C125.76 29.8085 126.197 30.0245 126.415 30.0245C127.288 30.0245 127.725 29.8085 128.162 29.3765C128.38 29.1605 128.598 28.7285 128.598 28.0805V27.2165ZM129.253 31.1045C128.817 31.3205 128.162 31.5365 127.725 31.5365C127.07 31.5365 126.633 31.7525 126.197 31.7525C125.323 31.7525 124.45 31.5365 123.795 31.1045C123.14 30.6725 122.922 30.0245 122.922 28.9445C122.922 28.0805 123.14 27.4325 123.795 27.2165C124.45 26.7845 125.105 26.5685 125.978 26.3525C126.197 26.3525 126.197 26.3525 126.415 26.3525C126.633 26.3525 126.852 26.3525 127.07 26.1365C128.162 26.1365 128.598 25.9205 128.598 25.4885C128.598 25.0565 128.38 24.8405 128.162 24.8405C127.725 24.6245 127.288 24.6245 127.07 24.6245C126.633 24.6245 126.415 24.6245 126.197 24.8405C125.978 24.8405 125.76 25.0565 125.542 25.2725H123.14C123.358 24.6245 123.577 23.9765 124.232 23.5445C124.887 23.1125 125.76 22.8965 126.852 22.8965C128.38 22.8965 129.253 23.1125 129.908 23.5445C130.563 23.9765 131 24.6245 131 25.2725V28.0805C131 28.9445 130.782 29.5925 130.563 30.2405C130.127 30.6725 129.69 30.8885 129.253 31.1045Z" fill="#2A2D42"/>
</svg>
