<svg width="125" height="54" viewBox="0 0 125 54" fill="none" xmlns="http://www.w3.org/2000/svg">
<g clip-path="url(#clip0)">
<path fill-rule="evenodd" clip-rule="evenodd" d="M124.381 33.7393L124.005 31.5971L123.264 33.7393H122.685L121.952 31.5971L121.571 33.7393H120.922L121.501 30.3568H122.149L122.959 32.7242L123.775 30.3568H124.421L125 33.7393H124.381ZM120.095 33.7393H119.425V30.9773H118.808V30.3402H120.734V30.9773H120.097V33.7393H120.095ZM110.952 39.8718H109.086V35.7172L106.192 30.2896H108.199L110.033 33.7364L111.861 30.2896H113.844L110.951 35.723V39.8695L110.952 39.8718ZM105.628 39.8718L104.859 37.899H100.85L100.064 39.866H98.1204L101.891 30.2896H103.789L107.571 39.8718H105.628ZM102.85 32.8317L101.531 36.1176H104.163L102.85 32.8317ZM92.419 30.2896H94.276V38.1076H97V39.8436H92.4016L92.419 30.2896ZM89.2205 35.6839C88.5712 35.81 87.9094 35.8611 87.2483 35.8361V39.8942H85.3744V30.2896H87.3351C88.1177 30.2491 88.9014 30.3463 89.6499 30.5769C90.1277 30.756 90.5339 31.0844 90.8073 31.5127C91.0915 31.9815 91.2341 32.5214 91.2182 33.0683C91.246 33.6774 91.0553 34.2764 90.68 34.759C90.3047 35.213 89.7938 35.5369 89.2211 35.6839H89.2205ZM88.9549 32.2371C88.5788 32.0795 88.1702 32.0137 87.7633 32.0452H87.2367L87.2483 34.0294H87.827C88.1558 34.0462 88.4853 34.0138 88.8044 33.9335C88.9796 33.875 89.1315 33.7625 89.2378 33.6124C89.3495 33.4458 89.4043 33.248 89.3941 33.0482C89.4044 32.8863 89.3688 32.7247 89.2912 32.5818C89.2137 32.4389 89.0974 32.3205 88.9554 32.24L88.9549 32.2371ZM74.5353 31.6281C73.6522 31.6112 72.7986 31.9431 72.1619 32.5507C71.5252 33.1584 71.1577 33.9921 71.14 34.8687C71.14 34.8986 71.14 34.929 71.14 34.9595C71.1281 35.5659 71.2776 36.1648 71.5735 36.6955C71.8632 37.1992 72.2903 37.6114 72.8056 37.8847C73.3488 38.1762 73.9578 38.3256 74.5752 38.319C75.0983 38.3248 75.6167 38.2211 76.0966 38.0145C76.6645 37.7296 77.1775 37.3479 77.6123 36.8868L78.9074 38.2081C78.3032 38.8193 77.5917 39.3159 76.8079 39.6736C76.0904 39.9578 75.3233 40.0978 74.5509 40.0855C73.848 40.1165 73.146 40.0073 72.4864 39.7643C71.8267 39.5212 71.2229 39.1493 70.7106 38.6706C70.1307 38.1155 69.6911 37.4323 69.4275 36.6766C69.1639 35.9209 69.0838 35.1141 69.1937 34.3219C69.3037 33.5297 69.6005 32.7745 70.0601 32.1177C70.5197 31.4609 71.129 30.9212 71.8385 30.5424C72.6718 30.0836 73.6097 29.8449 74.5625 29.849C75.3888 29.85 76.2056 30.0253 76.9584 30.3634C77.7113 30.7016 78.3831 31.1947 78.9294 31.8103L77.5984 33.0339C77.2146 32.6014 76.7441 32.2532 76.2169 32.0116C75.6898 31.77 75.1176 31.6404 74.537 31.631L74.5353 31.6281ZM78.9369 31.8005V31.812L78.9311 31.8057L78.9369 31.8005ZM65.8137 30.0811H67.7106V39.8608H65.8137V30.0863V30.0811ZM62.4647 39.8608H60.555V31.9073H58.7731V30.0863H64.32V31.9073H62.4653V39.866L62.4647 39.8608ZM56.9931 39.8608L56.2066 37.8502H52.1123L51.2969 39.8608H49.3125L53.2112 30.0811H55.1209L58.9983 39.8608H56.9971H56.9931ZM54.1939 32.6743L52.8461 36.0561H55.5243L54.1939 32.6743ZM45.235 33.6652L43.1007 39.8654H41.4225L39.3287 33.6934L38.2292 39.8936H36.3438L38.0845 30.0857H39.9468L42.2616 36.9064L44.61 30.0857H46.4722L48.1557 39.8654H46.3102L45.235 33.6652ZM33.0243 39.5104C32.2426 39.9273 31.3651 40.1352 30.478 40.1136C29.5076 40.1313 28.5485 39.9044 27.6904 39.4541C26.878 39.0107 26.2083 38.3483 25.7587 37.5434C25.2877 36.7433 25.0421 35.8322 25.0475 34.9055C25.03 33.6512 25.5025 32.439 26.3657 31.523C26.8779 30.9675 27.5052 30.5287 28.2045 30.2369C28.9038 29.945 29.6585 29.807 30.4167 29.8324C31.2559 29.8266 32.0878 29.9876 32.8634 30.3057C33.5864 30.6262 34.2329 31.0949 34.7604 31.681L33.4132 32.9776C33.0378 32.5622 32.5785 32.2299 32.0652 32.0023C31.5519 31.7747 30.9962 31.6568 30.434 31.6563C29.9771 31.6441 29.5223 31.7226 29.0963 31.8871C28.6702 32.0516 28.2816 32.2989 27.9531 32.6145C27.6312 32.9111 27.3758 33.2717 27.2034 33.6727C27.031 34.0737 26.9455 34.5063 26.9525 34.9422C26.9446 35.3924 27.0328 35.8391 27.2112 36.2529C27.3897 36.6668 27.6543 37.0385 27.9879 37.3435C28.3278 37.6682 28.7293 37.9226 29.1691 38.0919C29.6089 38.2612 30.0782 38.3421 30.5498 38.3299C31.134 38.3495 31.7124 38.2092 32.2216 37.9243C32.7045 37.6183 33.0849 37.1768 33.3148 36.6559H30.4213V34.9084H35.4745V35.3203C35.4642 36.169 35.2333 37.0006 34.8043 37.7348C34.3752 38.469 33.7625 39.0808 33.0255 39.511L33.0243 39.5104ZM21.9769 37.8531H17.9259L17.1105 39.8637H15.1036L18.9728 30.084H20.9103L24.7685 39.8637H22.7847L21.9769 37.8531ZM19.9583 32.6788L18.6111 36.0607H21.2963L19.9583 32.6788ZM11.8669 39.8654L9.60995 35.7224H9.43634V39.8654H7.5162V30.0863H9.54167C10.3411 30.0433 11.1419 30.1406 11.9074 30.3735C12.3863 30.5622 12.7918 30.898 13.0648 31.3317C13.3592 31.8094 13.5077 32.3615 13.4925 32.9213C13.5134 33.4952 13.3472 34.0606 13.0185 34.5332C12.6494 35.0037 12.1419 35.3484 11.5666 35.5196L13.9439 39.8654H11.8675H11.8669ZM11.6007 32.904C11.6086 32.7069 11.552 32.5126 11.4395 32.3501C11.327 32.1875 11.1645 32.0654 10.9763 32.0021C10.6434 31.9217 10.3005 31.8896 9.95833 31.9068H9.43287L9.42708 33.9076H10.0058C10.4375 33.9472 10.8719 33.8677 11.261 33.6778C11.3794 33.5884 11.4729 33.4705 11.5325 33.3352C11.5922 33.1998 11.6161 33.0516 11.6018 32.9046L11.6007 32.904ZM3.92014 35.5701C3.25746 35.6983 2.582 35.7494 1.90741 35.7224V39.8654H0V30.0863H2.02546C2.82762 30.0441 3.63096 30.1435 4.39815 30.3798C4.87764 30.5675 5.28348 30.9035 5.55555 31.338C5.84566 31.8152 5.99224 32.3647 5.97801 32.9218C5.9979 33.5316 5.80354 34.1293 5.42824 34.6125C5.04262 35.0843 4.51424 35.4202 3.9213 35.5707L3.92014 35.5701ZM3.63079 32.0814C3.25437 31.9333 2.8484 31.8743 2.44502 31.9091H1.90972V33.9099H2.48843C2.82328 33.9257 3.15861 33.8914 3.48322 33.8083C3.66208 33.7473 3.81634 33.6306 3.92303 33.4756C4.03498 33.3092 4.09146 33.1121 4.08449 32.9121C4.09555 32.7454 4.05894 32.5791 3.97887 32.4322C3.8988 32.2853 3.77853 32.1639 3.63194 32.082L3.63079 32.0814ZM99.239 54.0014C95.4802 54.0327 91.7968 52.9548 88.6562 50.9046C85.5155 48.8544 83.0592 45.9242 81.5989 42.4859C80.1386 39.0477 79.7402 35.2562 80.4542 31.5928C81.1681 27.9293 82.9623 24.559 85.6091 21.9094C88.2559 19.2599 91.6359 17.4506 95.3202 16.7111C99.0046 15.9716 102.827 16.3353 106.303 17.756C109.779 19.1767 112.751 21.5904 114.843 24.6907C116.934 27.7911 118.051 31.4384 118.051 35.1697C118.072 40.1433 116.102 44.9214 112.574 48.453C109.046 51.9846 104.249 53.9804 99.239 54.0014ZM99.239 18.3171C94.7623 18.3538 90.4815 20.1449 87.3289 23.3004C84.1764 26.4558 82.4075 30.7199 82.4075 35.164C82.4075 39.6081 84.1764 43.8722 87.3289 47.0276C90.4815 50.183 94.7623 51.9741 99.239 52.0108V52.0166H99.2448C103.747 52.0158 108.064 50.2398 111.247 47.0792C114.43 43.9186 116.217 39.6324 116.216 35.1634C116.216 30.6944 114.427 26.4088 111.243 23.2493C108.059 20.0898 103.741 18.3152 99.239 18.316V18.3171ZM104.94 28.6105C98.4861 29.0126 95.8652 21.4015 101.705 21.039C107.924 20.6524 111.251 28.1951 104.94 28.6099V28.6105ZM98.0035 14.3573C94.7457 14.4677 91.5743 15.4262 88.8073 17.1366C88.3993 15.8475 86.6001 11.0375 81.9618 8.36793C83.5937 8.45886 85.1748 8.9643 86.5535 9.8358C87.9322 10.7073 89.0623 11.9157 89.8356 13.3451C89.8356 13.3451 88.037 5.75583 88.5312 0.00195312C92.1771 4.46097 94.9797 11.751 94.9797 11.751C94.8127 10.1306 95.0638 8.49469 95.7094 6.99724C96.355 5.4998 97.3739 4.19008 98.6701 3.19139C96.3137 8.09161 97.6354 13.1567 98.0035 14.3573Z" fill="#2A2D42"/>
</g>
<defs>
<clipPath id="clip0">
<rect width="125" height="54" fill="white"/>
</clipPath>
</defs>
</svg>
