<svg width="147" height="54" viewBox="0 0 147 54" fill="none" xmlns="http://www.w3.org/2000/svg">
<path d="M125.93 11.4324H147V17.5135H139.65V43.2973H133.28V17.5135H125.93V11.4324ZM98.735 11.4324H104.37L116.865 30.8919V11.4324H123.235V43.2973H117.6L105.105 23.8378V43.2973H98.735V11.4324ZM78.645 11.4324H95.305V17.5135H80.605V24.3243H93.1V30.4054H80.605V37.2162H95.305V43.2973H78.645V54H77.42V0H78.645V11.4324Z" fill="#2A2D42"/>
<path d="M27.93 11.4326H49V17.5137H34.545V24.3245H47.04V30.4056H34.545V37.2164H49V43.2975H27.93V11.4326ZM0 11.4326H5.88L18.13 30.8921V11.4326H24.5V43.2975H18.865L6.37 23.838V43.2975H0V11.4326ZM51.94 11.4326H73.01V17.5137H65.66V43.2975H59.29V17.5137H51.94V11.4326Z" fill="#383B55"/>
</svg>
