<svg width="81" height="54" viewBox="0 0 81 54" fill="none" xmlns="http://www.w3.org/2000/svg">
<path fill-rule="evenodd" clip-rule="evenodd" d="M35.0308 8.04808C34.6818 7.0391 34.3416 6.04713 34.0684 5.0335C33.788 3.99246 33.5782 2.93678 33.4202 1.8707C33.3323 1.27713 33.3455 1.25969 33.9058 1.06127C35.0388 0.660346 36.1945 0.345064 37.3817 0.160705C37.9313 0.0753455 37.9585 0.0934862 38.033 0.666392C38.3467 3.07797 39.0111 5.38464 40.0218 7.58753C40.1363 7.83672 40.198 8.24341 40.4611 8.25635C40.7955 8.2728 40.839 7.84164 40.9593 7.5812C41.9655 5.40236 42.6263 3.11875 42.9301 0.729674C43.0122 0.0844862 43.0301 0.069158 43.6687 0.165486C44.8578 0.345064 46.0072 0.686783 47.1412 1.08053C47.6577 1.25969 47.6478 1.28149 47.5667 1.85228C47.2952 3.76127 46.808 5.6133 46.1648 7.42581C46.0925 7.62972 45.8719 7.87272 46.088 8.06524C46.2583 8.21669 46.4761 8.0201 46.6594 7.94261C48.512 7.15961 50.1327 6.02322 51.56 4.59475C51.6258 4.52908 51.6905 4.46242 51.756 4.39647C52.2785 3.86969 52.277 3.87166 52.8604 4.36666C53.7284 5.10269 54.5616 5.87556 55.2893 6.75785C55.657 7.20363 55.653 7.21094 55.273 7.6158C52.4943 10.5758 49.1397 12.5193 45.2373 13.4943C45.0583 13.5389 44.8763 13.5727 44.7002 13.6267C44.2783 13.7565 44.2487 13.8489 44.5716 14.1843C45.6393 15.2922 46.8185 16.2656 48.0875 17.1243C48.4833 17.392 48.4981 17.3815 48.9599 16.9423C50.9123 15.0854 53.1152 13.6098 55.5451 12.4875C56.2571 12.1585 56.991 11.8765 57.7247 11.6C58.2222 11.4125 58.305 11.4561 58.51 11.9593C58.969 13.0863 59.3619 14.2364 59.6133 15.4322C59.7262 15.9696 59.7193 15.9955 59.1815 16.1889C58.0055 16.6119 56.8752 17.132 55.7966 17.7703C55.099 18.1831 54.4272 18.6352 53.7796 19.1237C53.6004 19.259 53.3137 19.3697 53.3431 19.6211C53.38 19.9343 53.7267 19.9116 53.9512 19.984C55.6037 20.5165 57.2954 20.85 59.0246 20.9853C60.326 21.0873 60.0732 21.0452 59.9702 22.1685C59.8739 23.2188 59.6732 24.2548 59.3804 25.2687C59.2243 25.8089 59.2096 25.8295 58.6587 25.7888C56.7695 25.6487 54.915 25.3047 53.097 24.7621C48.4932 23.388 44.5114 20.9511 41.1181 17.5072C40.4546 16.8339 40.5765 16.7594 39.8638 17.4901C36.2607 21.1834 31.9814 23.6901 27.0328 25.0042C25.5382 25.4011 24.0171 25.663 22.4761 25.7833C21.7656 25.8387 21.7755 25.8186 21.5759 25.1432C21.2559 24.0608 21.0964 22.9493 20.9719 21.8313C20.8889 21.0865 20.903 21.0618 21.6779 21.0065C23.3617 20.8867 25.015 20.6018 26.6326 20.1099C26.9193 20.0227 27.2038 19.9275 27.4859 19.8261C27.7296 19.7384 27.7574 19.5747 27.5683 19.4113C27.3054 19.1845 27.0293 18.9713 26.7451 18.7728C25.2189 17.7075 23.5984 16.8269 21.8462 16.206C21.237 15.9902 21.2316 15.9807 21.3758 15.3588C21.6405 14.2166 21.9787 13.0985 22.4491 12.024C22.7109 11.4262 22.7202 11.411 23.3185 11.6214C25.3097 12.3215 27.1774 13.2734 28.9324 14.4596C30.048 15.2136 31.0853 16.0658 32.0772 16.9782C32.5174 17.3833 32.517 17.3767 33.0061 17.0447C34.1394 16.2749 35.1903 15.4033 36.1557 14.4249C36.2697 14.3091 36.3875 14.1959 36.4899 14.0701C36.6526 13.8698 36.5789 13.7253 36.3605 13.6448C36.2313 13.5971 36.0946 13.57 35.9601 13.5384C31.9933 12.609 28.5956 10.653 25.7578 7.68653C25.6935 7.61931 25.6305 7.55097 25.5655 7.4846C25.3941 7.30881 25.3615 7.12994 25.5353 6.93095C26.4395 5.89511 27.4077 4.92817 28.4803 4.07163C28.7014 3.895 28.8522 3.99766 29.0123 4.16542C29.558 4.73721 30.1235 5.28649 30.7392 5.78233C31.9029 6.71974 33.1678 7.47714 34.5468 8.03571C34.6695 8.08549 34.7958 8.16522 35.0308 8.04808Z" fill="#2A2D42"/>
<path fill-rule="evenodd" clip-rule="evenodd" d="M40.426 39.7748C39.8509 39.7748 39.2745 39.799 38.701 39.7675C38.193 39.7398 38.1208 39.6429 38.1192 39.1143C38.1131 37.3344 38.0979 35.5541 38.1268 33.7747C38.136 33.2 37.9739 32.7524 37.6289 32.3013C35.7218 29.8077 33.8382 27.2953 31.9511 24.7858C31.4687 24.1442 31.477 24.1395 32.2128 23.7795C33.1675 23.3125 34.1029 22.8103 35.0014 22.2367C35.6813 21.8028 35.6857 21.8113 36.1555 22.4353C37.4289 24.1262 38.7023 25.8169 39.9768 27.5068C40.4866 28.1829 40.5001 28.1814 40.9949 27.5237C42.2958 25.7948 43.5966 24.066 44.8993 22.3385C45.2973 21.8106 45.3058 21.8037 45.8357 22.1431C46.8502 22.7926 47.9077 23.3584 48.9902 23.8801C49.4608 24.1069 49.4751 24.1796 49.1596 24.6001C47.2047 27.2051 45.2534 29.8129 43.2788 32.4022C42.9764 32.7989 42.8429 33.1899 42.8479 33.6844C42.8662 35.4642 42.8563 37.2442 42.8538 39.024C42.853 39.6658 42.8317 39.7194 42.2193 39.7614C41.6241 39.8023 41.024 39.7704 40.4262 39.7704C40.4262 39.7718 40.426 39.7732 40.426 39.7748Z" fill="#2A2D42"/>
<path fill-rule="evenodd" clip-rule="evenodd" d="M16.5536 51.2196C16.5536 51.641 16.5417 52.0629 16.5583 52.4837C16.5677 52.7223 16.4775 52.8861 16.3009 53.0221C14.7271 54.2361 12.5539 54.2537 11.2301 53.4138C9.97506 52.6173 9.47718 51.4343 9.50399 49.9666C9.55016 47.4257 11.7658 45.9078 13.9479 46.1973C14.7209 46.3 15.4236 46.5286 16.0535 46.9948C16.264 47.1506 16.3114 47.3085 16.1157 47.5095C16.0512 47.5757 16.0009 47.656 15.9381 47.7244C15.7198 47.9615 15.5943 48.3355 15.285 48.4228C14.9838 48.5079 14.774 48.1658 14.5111 48.0356C13.6449 47.6064 12.6193 47.7154 12.0009 48.322C11.2419 49.0665 11.0405 50.1913 11.4918 51.1643C11.8924 52.0279 12.7103 52.4856 13.6959 52.4003C14.0198 52.3721 14.3326 52.3037 14.627 52.1595C14.8011 52.0743 14.9151 51.9635 14.9425 51.7436C15.0193 51.1227 14.9333 51.0115 14.3178 50.9971C13.1168 50.9691 13.3198 51.2166 13.2987 49.8935C13.2943 49.6198 13.3299 49.4553 13.6637 49.4632C14.4918 49.4829 15.3208 49.4777 16.1492 49.4674C16.4482 49.4636 16.5597 49.5881 16.551 49.8852C16.5383 50.3296 16.5478 50.7748 16.5478 51.2196H16.5536Z" fill="#2A2D42"/>
<path fill-rule="evenodd" clip-rule="evenodd" d="M26.9533 51.1854C26.9533 51.6071 26.942 52.0293 26.9574 52.4503C26.9671 52.7129 26.8626 52.8813 26.6652 53.0414C25.3438 54.1135 23.1839 54.3081 21.7036 53.4762C20.2473 52.6575 19.5151 50.7514 20.0008 49.0429C20.5518 47.1042 22.3001 45.9494 24.2851 46.1858C25.0577 46.2779 25.7623 46.5136 26.3954 46.9782C26.6397 47.1574 26.6716 47.3291 26.4571 47.5473C26.3921 47.6133 26.3403 47.6922 26.2794 47.7623C26.0821 47.9897 25.9228 48.3039 25.6747 48.4196C25.3797 48.5574 25.1753 48.1759 24.9152 48.051C24.0056 47.6148 22.8505 47.6761 22.1594 48.5653C21.4485 49.4799 21.4452 50.7635 22.1842 51.6794C22.772 52.4076 24.0958 52.6398 24.9821 52.1699C25.2729 52.0157 25.4338 51.4446 25.2751 51.1339C25.2285 51.0427 25.1513 51.0019 25.0566 50.9968C24.9188 50.9894 24.7792 51.0012 24.643 50.9838C24.3338 50.9441 23.9074 51.1549 23.7397 50.8578C23.5534 50.527 23.6789 50.0797 23.6845 49.6828C23.6866 49.5405 23.7886 49.4795 23.9152 49.4786C24.8361 49.4732 25.757 49.4711 26.678 49.4691C26.8802 49.4687 26.9587 49.5817 26.9569 49.78C26.9527 50.2484 26.9555 50.717 26.9555 51.1854H26.9533Z" fill="#2A2D42"/>
<path fill-rule="evenodd" clip-rule="evenodd" d="M63.439 46.2248C64.3526 46.1798 65.1265 46.4504 65.8436 46.903C66.2126 47.1359 66.2177 47.1784 65.9536 47.5572C65.7562 47.8405 65.6338 48.2536 65.3239 48.3609C65.0312 48.4624 64.7747 48.086 64.4694 47.9925C64.2059 47.9118 63.9488 47.8066 63.6826 47.7385C63.3808 47.6613 63.0821 47.7161 62.8162 47.8741C62.3954 48.124 62.3889 48.6476 62.821 48.8819C63.1011 49.0337 63.4201 49.1148 63.727 49.2099C64.2981 49.3865 64.8792 49.5265 65.4087 49.8272C66.1305 50.2371 66.4201 50.8518 66.3925 51.6837C66.3644 52.5262 66.0638 53.1949 65.321 53.5846C64.203 54.171 63.0523 54.0669 61.9126 53.6393C61.4811 53.4773 61.0826 53.2406 60.7175 52.9498C60.5356 52.8051 60.4994 52.6656 60.6794 52.4906C60.7786 52.394 60.8596 52.2784 60.9522 52.1747C61.1213 51.9852 61.2609 51.7289 61.4718 51.6276C61.7441 51.497 61.8842 51.8516 62.0967 51.9677C62.6143 52.2503 63.1474 52.4347 63.7391 52.4282C63.9492 52.4261 64.153 52.3987 64.3408 52.3004C64.8168 52.0515 64.8474 51.5365 64.3884 51.2554C63.9915 51.0125 63.5312 50.9273 63.0946 50.7857C62.745 50.6724 62.3838 50.5884 62.0452 50.4483C61.3015 50.1405 60.8609 49.596 60.8171 48.7476C60.7701 47.8361 61.0331 47.088 61.8369 46.6018C62.348 46.2926 62.9055 46.1847 63.439 46.2248Z" fill="#2A2D42"/>
<path fill-rule="evenodd" clip-rule="evenodd" d="M0.0863062 46.7377C0.626491 46.6217 1.17773 46.7098 1.72234 46.6787C1.98372 46.6638 2.06956 46.8774 2.17392 47.0529C2.54271 47.6739 2.90306 47.9016 3.2688 48.5247C3.38588 48.7239 3.50987 48.919 3.62667 49.1094C3.85806 49.1074 3.89234 48.9218 3.96905 48.7952C4.39188 48.098 4.82066 47.4037 5.21944 46.6923C5.37287 46.4187 5.54233 46.2657 5.86454 46.278C6.32027 46.2958 6.7771 46.2827 7.20712 46.2827C7.34023 46.5286 7.18638 46.6432 7.10773 46.7694C6.38026 47.9354 5.65637 49.1039 4.91175 50.2586C4.66267 50.6446 4.52292 51.0323 4.5467 51.5027C4.57752 52.1099 4.56052 52.7201 4.55402 53.3288C4.54849 53.8413 4.542 53.8413 4.06775 53.8607C2.87804 53.9095 2.80658 53.9039 2.8967 52.7296C2.99374 51.4665 2.66034 50.8079 1.92332 49.8059C1.33227 49.0025 0.847098 48.118 0.321842 47.2652C0.226881 47.1108 0.0840946 46.9744 0.0863062 46.7377Z" fill="#2A2D42"/>
<path fill-rule="evenodd" clip-rule="evenodd" d="M75.5891 50.0136C75.5891 48.9603 75.5853 47.9069 75.5906 46.8534C75.5934 46.2984 75.6005 46.2984 76.1067 46.2857C77.271 46.2563 77.2706 46.2563 77.2711 47.4557C77.2718 48.8835 77.2707 50.3113 77.2761 51.7392C77.2781 52.2786 77.2852 52.2857 77.795 52.2886C78.6924 52.2938 79.5896 52.2844 80.487 52.291C80.9666 52.2947 80.9792 52.3042 80.9759 52.806C80.9669 54.0764 81.1083 53.8531 79.9765 53.8626C78.6882 53.8735 77.3998 53.868 76.1113 53.8626C75.5954 53.8604 75.5858 53.8521 75.5823 53.3138C75.5754 52.2138 75.5804 51.1135 75.5804 50.0136H75.5891Z" fill="#2A2D42"/>
<path fill-rule="evenodd" clip-rule="evenodd" d="M71.6703 50.0632C71.6708 51.1412 71.6743 52.2191 71.6693 53.297C71.6667 53.853 71.6598 53.853 71.1553 53.8651C69.9614 53.8941 69.9582 53.8941 69.9562 52.6561C69.9527 50.7581 69.9524 48.86 69.9544 46.962C69.9551 46.2927 69.9595 46.2927 70.5769 46.2856C71.6697 46.2728 71.6697 46.2728 71.6697 47.3919C71.6697 48.2823 71.6697 49.1727 71.6703 50.0632Z" fill="#2A2D42"/>
<path fill-rule="evenodd" clip-rule="evenodd" d="M44.8137 49.8087C44.1715 50.0562 43.4999 49.9119 42.8408 49.9242C42.665 49.9276 42.6378 49.7677 42.6364 49.6218C42.6338 49.3657 42.6356 49.1093 42.6356 48.7839C42.6545 47.6591 42.4631 47.8555 43.6595 47.8341C44.0271 47.8275 44.3926 47.8407 44.7461 47.9592C45.1605 48.0978 45.402 48.4002 45.4362 48.8215C45.4699 49.2374 45.2256 49.6499 44.8137 49.8087ZM45.6414 51.2318C45.7795 51.1279 45.8298 51.0782 45.8893 51.0471C46.9294 50.5028 47.314 49.385 47.0942 48.2332C46.882 47.1217 46.1676 46.5111 44.8962 46.3487C43.6815 46.1935 42.4577 46.3151 41.2387 46.2811C40.9322 46.2725 40.9248 46.4754 40.925 46.7025C40.9272 48.9521 40.9293 51.2017 40.9232 53.4511C40.9225 53.7374 40.9966 53.8897 41.311 53.8686C41.609 53.8487 41.9107 53.8474 42.2086 53.8691C42.5449 53.8937 42.6551 53.7529 42.6421 53.4209C42.6222 52.9059 42.6346 52.3898 42.6375 51.8743C42.6382 51.7363 42.639 51.596 42.7972 51.5233C43.1954 51.3406 43.8585 51.5371 44.1229 51.9287C44.4881 52.4696 44.848 53.0136 45.2092 53.557C45.3123 53.712 45.3993 53.8709 45.6282 53.8665C46.1683 53.8565 46.7087 53.8633 47.4074 53.8633C46.7674 52.9097 46.2162 52.0882 45.6414 51.2318Z" fill="#2A2D42"/>
<path fill-rule="evenodd" clip-rule="evenodd" d="M35.6651 50.3128C35.5725 51.4662 34.7479 52.2353 33.5436 52.289C33.4058 52.2952 33.2674 52.2898 33.1293 52.2898C32.1302 52.2835 32.2672 52.3952 32.2597 51.3815C32.253 50.445 32.2582 49.5084 32.2573 48.5719C32.2563 47.7251 32.2349 47.8357 33.0178 47.8381C33.2928 47.8391 33.5726 47.8457 33.8422 47.8954C35.0352 48.1152 35.7632 49.0905 35.6651 50.3128ZM34.2682 46.3754C33.1467 46.1866 32.0152 46.3235 30.8891 46.2826C30.5868 46.2716 30.571 46.4691 30.5713 46.6979C30.5748 48.947 30.5814 51.1962 30.5708 53.4454C30.5693 53.8047 30.723 53.8802 31.0308 53.8677C31.4676 53.8499 31.9056 53.8632 32.3432 53.8632V53.8606C32.8038 53.8606 33.266 53.8859 33.7245 53.8554C34.8972 53.7775 35.943 53.3759 36.6669 52.3932C38.4035 50.0358 37.1276 46.8568 34.2682 46.3754Z" fill="#2A2D42"/>
<path fill-rule="evenodd" clip-rule="evenodd" d="M53.058 50.6319C53.3668 49.8748 53.6355 49.2164 53.9538 48.4355C54.3248 49.2202 54.5903 49.891 54.8291 50.6319H53.058ZM57.6939 53.264C56.8407 51.2169 55.9884 49.1696 55.1314 47.1243C54.6702 46.0238 54.8654 46.2968 53.782 46.2339C53.3398 46.2082 53.1329 46.3835 52.9685 46.7846C52.0919 48.9234 51.1896 51.0512 50.2975 53.1834C50.2123 53.3874 50.0928 53.5863 50.1375 53.8651C50.5814 53.8651 50.9947 53.851 51.4064 53.87C51.6855 53.8829 51.8242 53.7614 51.9108 53.5049C52.0153 53.1954 52.1565 52.8991 52.2697 52.5924C52.3695 52.3224 52.5252 52.1818 52.8329 52.1889C53.5922 52.2068 54.3523 52.2026 55.112 52.1922C55.3813 52.1884 55.5413 52.295 55.6335 52.5491C55.7531 52.8781 55.888 53.2013 56.0195 53.5259C56.0906 53.7019 56.1663 53.8662 56.4028 53.8622C56.8795 53.8541 57.3567 53.8597 57.8158 53.8597C57.8859 53.5887 57.7643 53.4326 57.6939 53.264Z" fill="#2A2D42"/>
</svg>
