<svg width="164" height="54" viewBox="0 0 164 54" fill="none" xmlns="http://www.w3.org/2000/svg">
<path d="M41.743 0.603516H59.6122L60.0532 6.63704H58.996C58.5792 4.15726 58.5248 3.62028 57.6187 2.66095C56.7125 1.70162 54.9123 1.76195 53.4565 1.76195H48.8895C48.7372 1.7513 48.5843 1.77264 48.4407 1.8246C48.2971 1.87656 48.166 1.95798 48.0558 2.06363C47.8477 2.31967 47.746 2.64586 47.7719 2.97469V10.6614H49.7715C50.2638 10.6778 50.7535 10.5833 51.2042 10.3849C51.655 10.1864 52.0552 9.8891 52.3751 9.51502C53.0396 8.75078 53.3981 7.57424 53.4504 5.98541H54.5378V16.7673H53.4504C53.3981 14.9814 53.0336 13.7043 52.357 12.936C52.0125 12.5495 51.5857 12.2449 51.1081 12.0444C50.6304 11.844 50.1138 11.7528 49.5963 11.7776H47.784V20.4297C47.7749 20.576 47.8009 20.7223 47.8597 20.8566C47.9186 20.9909 48.0086 21.1093 48.1223 21.202C48.4578 21.4104 48.8524 21.5037 49.2459 21.4674H52.8705C56.785 21.4674 59.0444 20.1883 59.6424 15.1926H60.7781L60.3492 22.644H41.743V21.4373H42.7277C43.1864 21.4812 43.6464 21.3685 44.0326 21.1175C44.1611 20.9995 44.2615 20.8543 44.3263 20.6924C44.3911 20.5306 44.4187 20.3562 44.4071 20.1823V2.97469C44.4237 2.80968 44.4048 2.64303 44.3516 2.48591C44.2985 2.32879 44.2124 2.18482 44.099 2.06363C43.8019 1.83834 43.4317 1.73088 43.06 1.76195H41.743V0.603516Z" fill="#2A2D42"/>
<path d="M59.2377 7.8916H67.3024V8.96557C66.6751 8.92967 66.0469 9.01784 65.4538 9.22501C65.3311 9.28372 65.2278 9.37628 65.1561 9.49175C65.0844 9.60721 65.0473 9.74076 65.0491 9.87663C65.0506 10.1165 65.1042 10.3533 65.2061 10.5705L69.1207 19.307L72.6849 10.8601C72.7359 10.7188 72.7625 10.5699 72.7634 10.4196C72.7634 9.6554 72.0083 9.17875 70.498 8.9897V7.8916H76.6115V8.96557C76.0819 8.99589 75.5704 9.16895 75.1314 9.46635C74.7622 9.75433 74.4765 10.1355 74.3038 10.5705L68.867 23.09H68.0212L62.2219 10.2266C62.0673 9.83612 61.8004 9.50018 61.4547 9.26121C60.738 9.05669 59.995 8.9591 59.2498 8.9716L59.2377 7.8916Z" fill="#2A2D42"/>
<path d="M82.3081 7.45143C83.2469 7.4333 84.1787 7.61553 85.0413 7.98595C85.9039 8.35636 86.6774 8.90642 87.31 9.59936C88.7026 11.1472 89.4296 13.1801 89.3338 15.2588C89.3758 16.6898 89.0646 18.1092 88.4276 19.3918C87.837 20.5158 86.9408 21.4506 85.8421 22.0887C84.7479 22.7458 83.4942 23.0902 82.2175 23.0843C81.3028 23.0913 80.3975 22.9008 79.5634 22.5259C78.7292 22.151 77.9861 21.6006 77.3847 20.9122C76.0179 19.3605 75.3038 17.3417 75.3912 15.2769C75.3053 13.217 76.017 11.2032 77.3787 9.65366C77.9917 8.95206 78.75 8.39178 79.6011 8.01155C80.4522 7.63132 81.3758 7.44021 82.3081 7.45143ZM82.3081 8.56763C81.7289 8.56751 81.159 8.71411 80.6519 8.99373C80.1448 9.27335 79.717 9.67686 79.4084 10.1665C78.6513 11.2324 78.2728 12.9138 78.2728 15.2105C78.2728 17.5073 78.6493 19.2188 79.4024 20.3451C79.7073 20.8412 80.1345 21.251 80.6433 21.5352C81.152 21.8193 81.7252 21.9684 82.3081 21.9681C82.9026 21.9732 83.4887 21.8268 84.0108 21.5428C84.533 21.2588 84.974 20.8466 85.2923 20.3451C86.0535 19.263 86.4341 17.4952 86.4341 15.0416C86.4341 12.7649 86.0575 11.1178 85.3044 10.1001C84.9702 9.61825 84.5215 9.22661 83.9986 8.96022C83.4758 8.69384 82.8949 8.56103 82.3081 8.57366V8.56763Z" fill="#2A2D42"/>
<path d="M94.239 0.313477V20.4715C94.2307 20.5967 94.2502 20.7223 94.2961 20.8391C94.3421 20.9559 94.4133 21.0611 94.5048 21.1472C94.7785 21.3607 95.1183 21.4717 95.4653 21.461H96.4138V22.6677H89.2854V21.461H90.1614C90.545 21.4873 90.924 21.364 91.2185 21.1171C91.3419 20.9873 91.4373 20.8336 91.4986 20.6654C91.5599 20.4972 91.5859 20.3183 91.5749 20.1396V3.41471C91.5936 3.20429 91.5654 2.99236 91.4923 2.79415C91.4191 2.59593 91.303 2.41636 91.1521 2.26834C90.7545 1.9276 90.2441 1.74692 89.7204 1.76152H88.3974V0.603086L94.239 0.313477Z" fill="#2A2D42"/>
<path d="M101.742 7.62598V17.4063C101.677 18.4113 102.002 19.4027 102.648 20.1757C102.944 20.498 103.306 20.7524 103.709 20.9212C104.113 21.0899 104.549 21.1691 104.986 21.1531C105.564 21.1595 106.137 21.0346 106.66 20.788C107.183 20.5413 107.644 20.1793 108.006 19.7292C108.836 18.7304 109.266 17.4602 109.215 16.1634V10.6367C109.226 10.4113 109.182 10.1867 109.087 9.98182C108.993 9.77696 108.85 9.59799 108.671 9.46017C108.032 9.11185 107.307 8.95081 106.581 8.99559V7.89145L111.764 7.62598V19.7352C111.749 19.9709 111.784 20.207 111.866 20.4283C111.948 20.6497 112.076 20.8514 112.241 21.0204C112.606 21.3368 113.081 21.4972 113.564 21.4669H114.494V22.5227L109.529 22.6313L109.215 19.7352C108.463 20.6598 107.563 21.453 106.55 22.0823C105.736 22.5841 104.801 22.8552 103.844 22.8666C103.224 22.882 102.606 22.7712 102.03 22.5409C101.454 22.3107 100.93 21.9658 100.491 21.5272C99.5772 20.6463 99.1201 19.15 99.1201 17.0383V10.6367C99.1353 10.3823 99.0829 10.1283 98.9684 9.90055C98.8538 9.67277 98.6811 9.47924 98.4677 9.3395C97.859 9.0688 97.1933 8.95074 96.5285 8.99559V7.89145L101.742 7.62598Z" fill="#2A2D42"/>
<path d="M117.485 1.88184H118.542V7.91535H127.531V9.3634H118.542V18.8059C118.501 19.4866 118.716 20.1581 119.146 20.6883C119.329 20.8992 119.557 21.0669 119.813 21.1796C120.069 21.2922 120.346 21.347 120.626 21.3399C120.985 21.3323 121.338 21.2383 121.653 21.0661C121.968 20.8939 122.238 20.6484 122.438 20.3504C122.942 19.6908 123.236 18.5987 123.32 17.0742H124.377C124.313 19.0371 123.866 20.4932 123.036 21.4425C122.638 21.906 122.141 22.2745 121.582 22.5209C121.023 22.7674 120.415 22.8854 119.804 22.8664C119.284 22.8968 118.764 22.824 118.272 22.652C117.781 22.4801 117.328 22.2126 116.941 21.8649C116.596 21.524 116.326 21.1151 116.148 20.6643C115.97 20.2134 115.889 19.7305 115.908 19.2463V9.33926H113.341V8.24116C114.376 8.10417 115.322 7.5803 115.986 6.77502C116.913 5.60854 117.412 3.97748 117.485 1.88184Z" fill="#2A2D42"/>
<path d="M124.359 7.89174L130.237 7.71677V20.3872C130.223 20.5218 130.239 20.6578 130.283 20.7859C130.327 20.9139 130.398 21.0311 130.491 21.1293C130.745 21.3433 131.07 21.4551 131.403 21.443H132.466V22.6497H125.283V21.443H126.256C126.439 21.4589 126.624 21.4371 126.799 21.379C126.973 21.3209 127.134 21.2277 127.271 21.1051C127.504 20.8323 127.621 20.4794 127.597 20.1217V11.1378C127.615 10.8934 127.58 10.648 127.493 10.4188C127.407 10.1895 127.271 9.98187 127.096 9.8104C126.668 9.48279 126.135 9.32385 125.598 9.36392H124.389L124.359 7.89174ZM128.455 0.916992C128.688 0.917026 128.919 0.96468 129.133 1.05703C129.347 1.14937 129.54 1.28446 129.699 1.45398C129.871 1.61634 130.006 1.812 130.099 2.02888C130.191 2.24576 130.238 2.47926 130.237 2.71498C130.236 2.94063 130.189 3.16373 130.1 3.37103C130.011 3.57833 129.881 3.76559 129.718 3.92168C129.557 4.0885 129.363 4.2206 129.149 4.30984C128.935 4.39909 128.705 4.44358 128.473 4.44057C128.239 4.44338 128.007 4.39826 127.79 4.30798C127.574 4.2177 127.379 4.08418 127.217 3.91565C127.053 3.75986 126.922 3.57279 126.831 3.36551C126.741 3.15823 126.693 2.93497 126.691 2.70895C126.691 2.47616 126.739 2.2459 126.832 2.03221C126.924 1.81852 127.059 1.62588 127.229 1.46604C127.385 1.29679 127.575 1.16131 127.786 1.06793C127.996 0.974543 128.224 0.925232 128.455 0.923026V0.916992Z" fill="#2A2D42"/>
<path d="M139.884 7.45143C140.823 7.4333 141.755 7.61553 142.618 7.98595C143.48 8.35636 144.254 8.90642 144.886 9.59936C146.281 11.1462 147.01 13.1792 146.916 15.2588C146.958 16.6898 146.647 18.1092 146.01 19.3918C145.419 20.5156 144.523 21.4504 143.424 22.0887C142.33 22.7455 141.077 23.0899 139.8 23.0843C138.885 23.0917 137.98 22.9014 137.145 22.5265C136.311 22.1516 135.568 21.6009 134.967 20.9122C133.6 19.3609 132.886 17.3418 132.974 15.2769C132.884 13.2186 133.592 11.205 134.949 9.65366C135.563 8.95128 136.322 8.39053 137.174 8.01028C138.026 7.63002 138.951 7.43933 139.884 7.45143ZM139.884 8.56763C139.305 8.56751 138.735 8.71411 138.228 8.99373C137.721 9.27335 137.293 9.67686 136.985 10.1665C136.228 11.2324 135.849 12.9138 135.849 15.2105C135.849 17.5073 136.226 19.2188 136.979 20.3451C137.284 20.8412 137.711 21.251 138.22 21.5352C138.728 21.8193 139.302 21.9684 139.884 21.9681C140.48 21.9742 141.067 21.8283 141.591 21.5443C142.114 21.2603 142.556 20.8475 142.875 20.3451C143.636 19.263 144.016 17.4952 144.016 15.0416C144.016 12.7649 143.64 11.1178 142.887 10.1001C142.552 9.61739 142.102 9.2252 141.578 8.95878C141.054 8.69236 140.472 8.56003 139.884 8.57366V8.56763Z" fill="#2A2D42"/>
<path d="M146.608 7.89152L151.513 7.58984C151.733 8.65867 151.881 9.74114 151.954 10.8298C152.528 9.8474 153.333 9.01911 154.298 8.41644C155.213 7.87962 156.258 7.60218 157.319 7.61398C158.177 7.5933 159.026 7.80157 159.777 8.21733C160.481 8.6449 161.037 9.27626 161.372 10.0274C161.783 10.8987 161.989 11.852 161.976 12.8149V19.9948C161.956 20.1995 161.977 20.4062 162.039 20.6024C162.102 20.7985 162.204 20.9798 162.339 21.1351C162.686 21.3923 163.116 21.5126 163.547 21.473H163.976V22.6797H157.433V21.473H157.56C158.067 21.5203 158.575 21.404 159.01 21.1411C159.151 21.0183 159.262 20.8644 159.333 20.6917C159.404 20.5189 159.434 20.332 159.421 20.1456V13.8285C159.501 12.7749 159.292 11.7195 158.817 10.7755C158.541 10.3201 158.146 9.94822 157.675 9.69955C157.203 9.45088 156.673 9.33479 156.141 9.3637C155.568 9.35641 155.002 9.48173 154.486 9.72984C153.971 9.97795 153.52 10.3421 153.169 10.7936C152.333 11.8548 151.904 13.1794 151.96 14.5284V19.9887C151.939 20.1939 151.961 20.4012 152.025 20.5975C152.088 20.7938 152.192 20.9748 152.329 21.1291C152.678 21.3818 153.107 21.5016 153.537 21.4669H153.954V22.6736H147.363V21.4669H147.774C148.189 21.4961 148.601 21.3856 148.946 21.1532C149.071 21.0644 149.174 20.9467 149.244 20.8103C149.314 20.6738 149.351 20.5224 149.351 20.3688V10.86C149.369 10.5991 149.333 10.3373 149.244 10.0912C149.156 9.84505 149.017 9.61992 148.837 9.43007C148.429 9.08076 147.9 8.90529 147.363 8.94135H146.608V7.89152Z" fill="#2A2D42"/>
<path d="M67.0547 27.5008L68.3474 25.1719H69.4046L70.0087 34.4635H68.9817C68.1763 31.7927 67.248 29.8599 66.1969 28.6653C65.6293 27.9652 64.9147 27.3981 64.1037 27.004C63.2926 26.6099 62.4049 26.3985 61.503 26.3846C60.2026 26.3719 58.9322 26.7758 57.8784 27.537C56.7283 28.4113 55.8692 29.6121 55.4137 30.9822C54.8459 32.5147 54.5559 34.0593 54.5559 36.8407C54.4666 38.7829 54.758 40.7238 55.4137 42.5544C55.8489 43.8859 56.6738 45.0565 57.7818 45.9151C58.8189 46.6417 60.0614 47.018 61.3278 46.9891C62.1059 47.0381 62.8858 46.9262 63.6186 46.6605C64.3514 46.3947 65.0214 45.9807 65.5867 45.4445C66.091 44.9147 66.4839 44.2894 66.7423 43.6055C67.0007 42.9215 67.1192 42.1928 67.0909 41.4624V39.2722C67.0981 39.1156 67.0653 38.9598 66.9956 38.8194C66.9258 38.6791 66.8214 38.5587 66.6922 38.4698C66.2906 38.2482 65.8326 38.1496 65.3753 38.1862H63.4059V37.082H72.4915V38.1862H71.7787C71.3354 38.1469 70.8915 38.255 70.5161 38.4939C70.3897 38.603 70.2901 38.7398 70.2251 38.8936C70.1602 39.0475 70.1316 39.2142 70.1416 39.3808V48.2682H69.1086C68.73 46.8845 68.3273 45.5571 67.9004 44.2861C67.2153 45.4699 66.2483 46.4667 65.0853 47.1882C63.9652 47.8439 62.6864 48.1799 61.3882 48.1596C59.4715 48.1664 57.59 47.6444 55.9514 46.6512C54.2486 45.6318 52.8639 44.1589 51.9523 42.3976C50.9714 40.6993 50.4762 38.7646 50.5206 36.8045C50.4817 34.8316 50.9875 32.8861 51.9825 31.1813C52.9136 29.3979 54.2966 27.8896 55.9937 26.807C57.5157 25.7795 59.3038 25.2157 61.1406 25.1839C62.1069 25.1793 63.0663 25.3468 63.9738 25.6787C65.0866 26.128 66.1252 26.7423 67.0547 27.5008Z" fill="#2A2D42"/>
<path d="M88.198 46.5545L88.4457 46.9889C88.4457 47.8215 87.4429 47.731 86.5066 47.731C85.7937 47.731 84.362 47.6948 83.8667 47.3208C83.3713 46.9467 83.172 46.5183 82.8035 45.5409C82.0513 46.4039 81.1487 47.1235 80.1394 47.6647C79.2803 48.0355 78.3505 48.2146 77.4149 48.1896C76.1844 48.275 74.9625 47.9294 73.9595 47.2122C73.5773 46.9171 73.2692 46.5373 73.0595 46.1027C72.8498 45.668 72.7442 45.1906 72.7513 44.7082C72.7513 43.1757 73.6534 41.9027 75.4577 40.889C77.6996 39.7494 80.1445 39.0626 82.6524 38.8678V36.6113C82.6545 36.2205 82.5694 35.8342 82.4032 35.4804C82.2371 35.1266 81.9941 34.8142 81.6919 34.5659C81.0208 33.9915 80.159 33.6881 79.2755 33.7152C78.4519 33.6931 77.6371 33.8887 76.9135 34.2823C76.4423 34.5679 76.2067 34.8455 76.2067 35.115C76.2629 35.3908 76.3947 35.6456 76.5873 35.851C76.8531 36.1686 77.0135 36.5607 77.0464 36.9733C77.0546 37.1876 77.0181 37.4013 76.939 37.6008C76.86 37.8002 76.7402 37.9811 76.5873 38.1317C76.4268 38.2842 76.2369 38.4024 76.0292 38.4791C75.8215 38.5559 75.6003 38.5896 75.3791 38.5782C75.1349 38.5849 74.8918 38.5413 74.6652 38.4499C74.4386 38.3586 74.2333 38.2215 74.0622 38.0472C73.8867 37.8661 73.7497 37.6514 73.6594 37.416C73.5691 37.1807 73.5273 36.9295 73.5366 36.6776C73.5366 35.6359 74.1226 34.6866 75.2946 33.8298C76.6516 32.9147 78.2682 32.4619 79.9038 32.5386C81.6597 32.5386 82.9988 32.9167 83.921 33.6729C84.3527 33.9986 84.7028 34.4198 84.9439 34.9035C85.185 35.3872 85.3105 35.9201 85.3105 36.4604V44.5152C85.2841 45.0025 85.4063 45.4863 85.6608 45.9029C85.7501 46.0547 85.8696 46.1866 86.0119 46.2904C86.1543 46.3942 86.3165 46.4676 86.4885 46.5062C87.0564 46.5638 87.6278 46.58 88.198 46.5545ZM82.7068 39.8875C80.0367 40.2575 78.1459 40.8609 77.0343 41.6975C76.6243 42.0092 76.2966 42.4161 76.0797 42.8829C75.8628 43.3498 75.7634 43.8624 75.7899 44.3764C75.7483 45.0681 75.9805 45.7485 76.4363 46.2709C76.6525 46.4977 76.9147 46.6759 77.2054 46.7934C77.496 46.911 77.8084 46.9653 78.1217 46.9527C78.7279 46.9566 79.3282 46.8334 79.8838 46.5913C80.4395 46.3492 80.9381 45.9934 81.3476 45.5469C81.7997 45.0782 82.1533 44.524 82.3878 43.9168C82.6222 43.3096 82.7328 42.6617 82.7128 42.0113L82.7068 39.8875Z" fill="#2A2D42"/>
<path d="M87.6543 32.9725L91.883 32.707C92.1027 33.7398 92.254 34.7858 92.3361 35.8384C92.9616 34.8723 93.7852 34.0497 94.7525 33.425C95.5517 32.9542 96.4645 32.7101 97.3924 32.7191C98.3011 32.6835 99.194 32.9651 99.9175 33.5155C100.678 34.2112 101.21 35.1195 101.446 36.122C102.03 35.1081 102.83 34.2348 103.79 33.5638C104.623 33.0087 105.603 32.7146 106.605 32.7191C107.167 32.6791 107.731 32.7669 108.254 32.976C108.777 33.185 109.246 33.5097 109.625 33.9258C110.522 35.0846 110.98 36.5229 110.918 37.9864V45.2869C110.897 45.4524 110.916 45.6205 110.974 45.777C111.032 45.9335 111.127 46.0738 111.25 46.1859C111.633 46.4536 112.096 46.5814 112.561 46.5479H113.298V47.7546H105.868V46.5479H106.611C107.074 46.5917 107.539 46.4814 107.934 46.2342C108.065 46.1155 108.168 45.9685 108.234 45.8044C108.3 45.6403 108.327 45.4633 108.314 45.2869V37.9562C108.379 37.0413 108.099 36.1355 107.529 35.4161C107.266 35.1203 106.94 34.8863 106.576 34.7309C106.211 34.5755 105.817 34.5025 105.421 34.5171C104.778 34.5059 104.146 34.6888 103.609 35.042C103.055 35.4158 102.619 35.9389 102.352 36.5504C101.955 37.286 101.724 38.0994 101.675 38.9336V45.2869C101.66 45.4613 101.683 45.6368 101.743 45.8014C101.802 45.966 101.897 46.1158 102.02 46.2402C102.329 46.4701 102.711 46.5795 103.095 46.5479H104.104V47.7546H96.5647V46.5479H97.4165C97.8431 46.5815 98.2686 46.471 98.6247 46.2342C98.7497 46.1412 98.8509 46.02 98.9202 45.8806C98.9895 45.7412 99.0248 45.5874 99.0234 45.4317V38.6138C99.0234 37.1738 98.7677 36.13 98.2562 35.4825C98.016 35.167 97.7037 34.9136 97.3452 34.7435C96.9868 34.5735 96.5928 34.4917 96.1962 34.505C95.7089 34.4799 95.2226 34.5707 94.7773 34.77C94.332 34.9693 93.9404 35.2714 93.6349 35.6514C92.7873 36.7146 92.3366 38.0393 92.3602 39.3982V45.2869C92.3402 45.4544 92.3568 45.6242 92.409 45.7847C92.4611 45.9451 92.5476 46.0923 92.6623 46.2161C93.0554 46.4676 93.5199 46.5841 93.9853 46.5479H94.7404V47.7546H87.2798V46.5479H88.3974C88.7499 46.5724 89.0984 46.46 89.37 46.2342C89.4805 46.1324 89.568 46.0081 89.6263 45.8696C89.6847 45.7312 89.7126 45.5819 89.7083 45.4317V35.7781C89.727 35.5595 89.7002 35.3394 89.6295 35.1317C89.5588 34.924 89.4457 34.7332 89.2975 34.5714C88.8159 34.2358 88.2415 34.0586 87.6543 34.0646V32.9725Z" fill="#2A2D42"/>
<path d="M113.612 32.9731L118.88 32.7982V45.4686C118.866 45.6032 118.882 45.7392 118.926 45.8673C118.97 45.9953 119.041 46.1125 119.134 46.2107C119.391 46.4251 119.718 46.5368 120.052 46.5244H121.725V47.7311H112.706V46.5244H114.875C115.058 46.5407 115.243 46.5191 115.418 46.4609C115.592 46.4028 115.753 46.3094 115.89 46.1866C116.122 45.9134 116.237 45.5602 116.21 45.2031V35.9356C116.229 35.6903 116.193 35.4439 116.107 35.2135C116.02 34.9832 115.884 34.7746 115.709 34.6022C115.281 34.2741 114.748 34.1151 114.21 34.1557H113.606L113.612 32.9731ZM117.098 25.9984C117.331 25.9981 117.562 26.0456 117.776 26.1379C117.99 26.2303 118.183 26.3656 118.342 26.5354C118.514 26.6975 118.65 26.8931 118.742 27.1101C118.835 27.327 118.882 27.5606 118.88 27.7964C118.879 28.022 118.832 28.2451 118.743 28.4524C118.654 28.6597 118.524 28.847 118.361 29.0031C118.155 29.2053 117.903 29.354 117.627 29.4363C117.35 29.5186 117.058 29.532 116.775 29.4751C116.492 29.4183 116.227 29.2931 116.004 29.1104C115.781 28.9278 115.606 28.6932 115.495 28.4274C115.384 28.1616 115.34 27.8725 115.366 27.5856C115.393 27.2987 115.489 27.0227 115.648 26.7818C115.806 26.5409 116.021 26.3424 116.274 26.2037C116.527 26.065 116.81 25.9904 117.098 25.9863V25.9984Z" fill="#2A2D42"/>
<path d="M121.29 32.9726L126.196 32.6709C126.415 33.7398 126.563 34.8222 126.637 35.9109C127.21 34.9285 128.015 34.1002 128.981 33.4975C129.905 32.9556 130.96 32.678 132.031 32.695C132.89 32.6744 133.739 32.8826 134.49 33.2984C135.194 33.7251 135.751 34.3567 136.085 35.1084C136.495 35.98 136.701 36.9331 136.689 37.8959V45.0758C136.668 45.2805 136.69 45.4873 136.752 45.6834C136.814 45.8795 136.916 46.0608 137.051 46.2161C137.398 46.4739 137.829 46.5942 138.259 46.554H138.688V47.7607H132.116V46.554H132.243C132.749 46.6014 133.257 46.485 133.692 46.2222C133.831 46.1025 133.941 45.9528 134.013 45.7845C134.085 45.6162 134.118 45.4337 134.109 45.2508V38.9096C134.189 37.8541 133.98 36.7967 133.505 35.8506C133.229 35.3936 132.833 35.0202 132.361 34.7704C131.888 34.5207 131.357 34.4039 130.823 34.4327C130.251 34.4259 129.685 34.5514 129.169 34.7995C128.653 35.0475 128.202 35.4114 127.851 35.8626C127.015 36.924 126.587 38.2484 126.643 39.5974V45.0577C126.622 45.2629 126.644 45.4702 126.707 45.6665C126.771 45.8628 126.874 46.0438 127.011 46.198C127.361 46.4508 127.789 46.5706 128.219 46.5359H128.636V47.7426H121.423V46.5359H122.45C122.865 46.5641 123.277 46.4538 123.622 46.2222C123.748 46.1327 123.851 46.0142 123.922 45.8766C123.992 45.7389 124.028 45.5864 124.027 45.4318V35.9169C124.046 35.656 124.009 35.3941 123.921 35.1479C123.833 34.9017 123.694 34.6766 123.513 34.487C123.105 34.1371 122.576 33.9616 122.039 33.9983H121.284L121.29 32.9726Z" fill="#2A2D42"/>
<path d="M149.87 33.787C150.921 32.7251 153.857 31.1745 154.794 31.1383C155.059 31.102 155.33 31.1202 155.589 31.1918C155.847 31.2633 156.089 31.3868 156.298 31.5546C156.642 31.8925 156.02 32.6467 156.02 33.1294C156.031 33.4852 155.903 33.8314 155.663 34.0947C155.562 34.2152 155.435 34.3121 155.292 34.3788C155.149 34.4455 154.994 34.4803 154.836 34.4809C154.236 34.4809 153.833 34.1128 153.628 33.3767C153.543 33.063 153.4 32.9061 153.199 32.9061C152.247 33.2405 151.368 33.7524 150.607 34.4145C150.988 34.9075 151.301 35.4493 151.538 36.0254C151.709 36.4972 151.795 36.9957 151.791 37.4976C151.806 38.3491 151.575 39.1868 151.127 39.911C150.568 40.7079 149.81 41.3445 148.928 41.7573C148.027 42.2595 147.017 42.535 145.986 42.5597H144.27C143.446 42.4914 142.617 42.6217 141.854 42.9399C141.66 43.0618 141.503 43.2326 141.397 43.435C141.291 43.6373 141.24 43.8641 141.25 44.0923C141.242 44.279 141.283 44.4647 141.368 44.6308C141.454 44.7969 141.582 44.9378 141.739 45.0395C142.314 45.3094 142.949 45.4238 143.582 45.3714L147.472 45.2929C149.437 45.2929 150.847 45.6207 151.701 46.2764C152.121 46.586 152.459 46.9937 152.685 47.4638C152.912 47.9339 153.02 48.4521 152.999 48.9734C153.007 49.5802 152.878 50.1809 152.621 50.7313C152.365 51.2816 151.989 51.7675 151.519 52.153C150.142 53.3597 148.086 53.9631 145.352 53.9631C143.092 53.9631 141.417 53.5488 140.325 52.7202C139.95 52.4859 139.636 52.1645 139.411 51.7832C139.186 51.4019 139.056 50.972 139.033 50.53C139.05 50.2093 139.135 49.8959 139.282 49.61C139.429 49.3242 139.634 49.0723 139.884 48.8708C140.692 48.2442 141.654 47.848 142.669 47.7244C141.805 47.5577 140.997 47.1759 140.319 46.6143C140.068 46.3848 139.868 46.105 139.733 45.793C139.598 45.4811 139.53 45.1441 139.534 44.8042C139.515 44.1593 139.734 43.53 140.15 43.0364C140.764 42.4223 141.529 41.9792 142.367 41.7512C141.554 41.3257 140.86 40.7034 140.35 39.9412C139.891 39.2209 139.656 38.3813 139.673 37.5278C139.67 36.8472 139.819 36.1745 140.111 35.5594C140.403 34.9443 140.829 34.4025 141.358 33.974C142.591 32.9712 144.15 32.4559 145.738 32.526C146.459 32.5235 147.176 32.6292 147.865 32.8397C148.576 33.0545 149.252 33.3737 149.87 33.787ZM146.656 47.7184C144.723 47.7184 143.344 47.9859 142.518 48.5209C142.16 48.7073 141.858 48.9842 141.64 49.3241C141.423 49.6639 141.299 50.0548 141.28 50.4576C141.273 50.7951 141.355 51.1285 141.519 51.4241C141.682 51.7197 141.921 51.9669 142.21 52.141C143.271 52.7491 144.487 53.0343 145.708 52.9615C147.516 52.9615 148.877 52.6619 149.792 52.0625C150.706 51.4632 151.165 50.8015 151.169 50.0775C151.166 49.6386 151.015 49.2135 150.74 48.8708C150.386 48.4533 149.911 48.156 149.381 48.0201C148.491 47.7968 147.573 47.7014 146.656 47.7365V47.7184ZM145.726 33.5155C145.287 33.5048 144.851 33.5918 144.45 33.7703C144.049 33.9487 143.692 34.2141 143.406 34.5472C142.755 35.3647 142.43 36.3944 142.494 37.4373C142.426 38.5383 142.749 39.628 143.406 40.5144C143.691 40.8543 144.045 41.1282 144.446 41.3171C144.847 41.506 145.285 41.6053 145.728 41.6082C146.171 41.6111 146.61 41.5174 147.014 41.3337C147.417 41.15 147.775 40.8807 148.064 40.5445C148.715 39.6781 149.036 38.6089 148.97 37.5278C149.028 36.4763 148.699 35.44 148.046 34.6136C147.766 34.2707 147.411 33.9955 147.01 33.8084C146.608 33.6214 146.169 33.5275 145.726 33.5336V33.5155Z" fill="#2A2D42"/>
<path d="M155.355 31.2471C155.831 31.255 156.284 31.4492 156.617 31.7878C156.951 32.1264 157.138 32.5823 157.137 33.0571C157.137 33.2828 157.09 33.506 157.001 33.7134C156.912 33.9207 156.781 34.1079 156.618 34.2638C156.412 34.4662 156.16 34.6151 155.883 34.6973C155.607 34.7796 155.314 34.7928 155.031 34.7357C154.748 34.6786 154.483 34.5529 154.26 34.3698C154.037 34.1867 153.862 33.9517 153.751 33.6854C153.64 33.4192 153.597 33.1298 153.624 32.8427C153.651 32.5556 153.749 32.2796 153.907 32.0388C154.066 31.7981 154.282 31.6 154.536 31.4619C154.789 31.3239 155.073 31.2501 155.361 31.2471H155.355Z" fill="#2A2D42"/>
<path d="M32.1983 45.3485H31.8117H31.6123V44.3892H31.8781C32.0819 44.3677 32.288 44.3903 32.4822 44.4556C32.5597 44.4932 32.6245 44.5527 32.6685 44.6267C32.7125 44.7007 32.7339 44.7859 32.7299 44.8719C32.7306 44.9413 32.7163 45.01 32.6879 45.0733C32.6596 45.1367 32.6179 45.1932 32.5658 45.239C32.5136 45.2848 32.4521 45.3188 32.3856 45.3388C32.3191 45.3587 32.249 45.3641 32.1802 45.3546L32.1983 45.3485ZM33.3219 44.8839C33.3281 44.7368 33.2996 44.5903 33.2387 44.4562C33.1779 44.322 33.0864 44.204 32.9716 44.1116C32.6881 43.9204 32.3437 43.8409 32.005 43.8884H31.0324V47.0017H31.6365V45.8553H32.156L32.7601 47.0138H33.4246L32.7299 45.7467C32.9114 45.6908 33.0691 45.5764 33.1784 45.4214C33.2877 45.2663 33.3425 45.0794 33.334 44.89L33.3219 44.8839ZM32.1258 47.9067C31.6479 47.9067 31.1807 47.7652 30.7834 47.5C30.386 47.2348 30.0763 46.8579 29.8934 46.4169C29.7105 45.9759 29.6626 45.4906 29.7559 45.0225C29.8491 44.5543 30.0792 44.1243 30.4172 43.7868C30.7551 43.4493 31.1857 43.2194 31.6544 43.1263C32.1231 43.0332 32.609 43.081 33.0505 43.2636C33.4921 43.4463 33.8695 43.7556 34.135 44.1525C34.4005 44.5494 34.5422 45.016 34.5422 45.4933C34.5422 46.1334 34.2876 46.7473 33.8345 47.1999C33.3813 47.6525 32.7667 47.9067 32.1258 47.9067ZM32.1258 42.4766C31.5284 42.4766 30.9445 42.6535 30.4477 42.985C29.951 43.3165 29.5639 43.7876 29.3353 44.3389C29.1067 44.8901 29.0468 45.4967 29.1634 46.0819C29.2799 46.6671 29.5676 47.2046 29.99 47.6265C30.4124 48.0484 30.9506 48.3357 31.5366 48.4521C32.1225 48.5685 32.7298 48.5088 33.2817 48.2805C33.8336 48.0521 34.3054 47.6655 34.6373 47.1693C34.9692 46.6732 35.1463 46.09 35.1463 45.4933C35.1463 44.6932 34.8281 43.9259 34.2616 43.3601C33.6952 42.7944 32.9269 42.4766 32.1258 42.4766Z" fill="#2A2D42"/>
<path d="M0.0550232 2.89625C14.5533 -4.85079 33.3407 3.3186 34.7543 23.0422C7.81162 25.1539 4.56762 13.0386 0.0550232 2.89625Z" fill="#2A2D42"/>
<path d="M0.0543518 45.1851C14.5527 52.9321 33.34 44.7627 34.7536 25.0391C7.81095 22.9274 4.56695 35.0367 0.0543518 45.1851Z" fill="#2A2D42"/>
<path d="M34.6993 23.0601C33.2857 3.33656 14.4983 -4.8268 0 2.91421C4.5126 13.0566 7.75659 25.1719 34.6993 23.0601ZM0 45.2031C14.4983 52.9502 33.2857 44.7808 34.6993 25.0572C7.75659 22.9274 4.5126 35.0548 0 45.2031Z" fill="#2A2D42"/>
</svg>
