<svg width="113" height="54" viewBox="0 0 113 54" fill="none" xmlns="http://www.w3.org/2000/svg">
<g clip-path="url(#clip0)">
<path fill-rule="evenodd" clip-rule="evenodd" d="M1.47521e-06 24.1946C2.89197 10.6348 26.934 -0.0136719 55.9736 -0.0136719C86.9723 -0.0136719 112.254 12.0971 112.254 26.9331C112.248 28.6838 111.904 30.417 111.241 32.038C111.435 31.1335 111.533 30.2112 111.534 29.2862C111.534 14.4368 86.2126 2.33936 55.2406 2.33936C27.8935 2.33936 4.98432 11.7648 -0.039978 24.168L1.47521e-06 24.1946Z" fill="#2A2D42"/>
<path fill-rule="evenodd" clip-rule="evenodd" d="M112.987 29.7913C110.095 43.3511 86.0527 53.9996 57.0131 53.9996C26.0144 53.9996 0.732971 41.8888 0.732971 27.0527C0.736646 25.2975 1.08058 23.5595 1.74583 21.9346C1.55162 22.8391 1.45334 23.7614 1.45263 24.6864C1.45263 39.5358 26.774 51.6332 57.7327 51.6332C85.0931 51.6332 107.989 42.2078 113.013 29.7913H112.987Z" fill="#2A2D42"/>
<path d="M7.9296 34.8568L8.03621 34.325H8.72922C9.26527 34.3812 9.8029 34.2341 10.2352 33.9129C10.6382 33.357 10.8907 32.7068 10.9682 32.0252L13.9667 18.5052C14.0183 18.2769 14.0584 18.0462 14.0867 17.8139C14.0981 17.6191 14.0981 17.4238 14.0867 17.229C14.1019 17.0899 14.0872 16.9492 14.0435 16.8162C13.9998 16.6833 13.9282 16.5611 13.8335 16.4579C13.5722 16.2791 13.2557 16.199 12.9406 16.232H12.021L12.1276 15.7002H22.3361L22.2295 16.232H21.5898C21.0559 16.1762 20.521 16.3286 20.0972 16.6574C19.7005 17.2017 19.4483 17.8374 19.3642 18.5052L16.4056 32.0252C16.4056 32.291 16.299 32.5303 16.259 32.743C16.2462 32.9201 16.2462 33.0978 16.259 33.2748C16.2445 33.416 16.2621 33.5587 16.3106 33.6922C16.3591 33.8257 16.4371 33.9466 16.5389 34.0458C16.8106 34.2235 17.1351 34.3032 17.4584 34.2718H18.3114L18.2047 34.8036L7.9296 34.8568Z" fill="#2A2D42"/>
<path d="M34.3305 22.1472L31.4651 34.032C31.19 35.152 30.8564 36.2569 30.4656 37.3422C30.2378 37.9882 29.9241 38.6008 29.5327 39.1635C28.9968 39.8966 28.2871 40.4858 27.467 40.8784C26.6359 41.2794 25.7249 41.4884 24.8016 41.4899C23.7819 41.5528 22.7725 41.2564 21.9496 40.6524C21.6103 40.3617 21.3425 39.9972 21.1669 39.5869C20.9913 39.1766 20.9126 38.7315 20.9368 38.2861C20.9111 37.734 21.0757 37.1898 21.4032 36.744C21.5473 36.5532 21.7348 36.3993 21.9504 36.2953C22.1659 36.1913 22.4033 36.14 22.6426 36.1457C22.8725 36.1385 23.1008 36.1852 23.3091 36.2822C23.5175 36.3792 23.7 36.5237 23.8421 36.7041C24.1581 37.1195 24.3184 37.6322 24.2952 38.1531C24.3004 38.678 24.1265 39.189 23.8021 39.6022C23.6926 39.7704 23.5425 39.9085 23.3655 40.0038C23.1885 40.099 22.9903 40.1484 22.7892 40.1472H22.496H22.2295C22.3505 40.4405 22.5727 40.681 22.8559 40.8252C23.1687 41.002 23.5226 41.0937 23.8821 41.0911C25.1348 41.0911 26.2365 39.0172 27.1872 34.8695C27.3604 34.1118 27.4937 33.5401 27.587 33.1014L27.9601 31.4929C27.5299 32.548 26.9113 33.5164 26.1343 34.3511C25.8674 34.6309 25.5472 34.855 25.1926 35.0102C24.8379 35.1654 24.4559 35.2486 24.0686 35.2551C23.6185 35.2485 23.1783 35.1218 22.7939 34.888C22.4095 34.6542 22.095 34.3219 21.883 33.9257C21.3076 32.883 21.0483 31.696 21.1367 30.5091C21.1276 29.2502 21.3396 27.9994 21.7631 26.8134C22.1541 25.6975 22.766 24.6713 23.5622 23.7957C24.0829 23.2188 24.7008 22.7374 25.388 22.3732C25.9691 22.0559 26.6182 21.8827 27.2805 21.8681C27.5983 21.8509 27.9154 21.9123 28.2037 22.0468C28.492 22.1813 28.7425 22.3848 28.933 22.6391C29.362 23.3181 29.5757 24.1103 29.5461 24.9124L30.2391 22.1605L34.3305 22.1472ZM27.0272 24.806L25.1348 32.4234C25.1348 32.6494 25.0282 32.8356 25.0015 32.9685C24.9918 33.0879 24.9918 33.208 25.0015 33.3274C24.9937 33.5032 25.0453 33.6764 25.1481 33.8193C25.1908 33.8779 25.247 33.9254 25.312 33.9578C25.3769 33.9901 25.4487 34.0065 25.5213 34.0054C25.7345 34.0054 26.0011 33.8326 26.3076 33.5003C26.6744 33.0746 26.9877 32.6059 27.2405 32.1044C27.8408 30.9628 28.3145 29.7592 28.6531 28.515C28.9635 27.3932 29.1248 26.2356 29.1329 25.0719C29.1503 24.5203 29.0644 23.9703 28.8797 23.45C28.7064 23.0379 28.4932 22.8385 28.24 22.8385C28.0915 22.8467 27.9479 22.8941 27.8237 22.9759C27.6996 23.0576 27.5995 23.1708 27.5337 23.3038C27.2906 23.7765 27.1199 24.2829 27.0272 24.806Z" fill="#2A2D42"/>
<path d="M34.9702 34.8563L37.449 24.4604C37.4559 24.3497 37.4559 24.2387 37.449 24.1281C37.4567 24.0174 37.4567 23.9064 37.449 23.7957C37.4591 23.6437 37.4268 23.4918 37.3557 23.357C37.3267 23.3096 37.2854 23.2709 37.2361 23.2451C37.1868 23.2194 37.1314 23.2075 37.0758 23.2108C36.8493 23.2108 36.5294 23.6096 36.1296 24.4072C35.654 25.3997 35.266 26.4317 34.9702 27.4914L34.6103 27.3319C34.9821 25.845 35.5894 24.4269 36.4095 23.131C36.6327 22.7443 36.9499 22.4198 37.3318 22.1874C37.7138 21.9551 38.1482 21.8224 38.5951 21.8016C38.9081 21.7879 39.2196 21.8524 39.5013 21.9894C39.7829 22.1264 40.0258 22.3315 40.2077 22.586C40.6247 23.2583 40.8204 24.0438 40.7674 24.8326C40.7674 25.1118 40.7674 25.484 40.7674 25.9493C40.7674 26.4146 40.6741 26.9863 40.5942 27.6775C41.0569 26.0047 41.7097 24.3901 42.5399 22.8651C42.7191 22.5551 42.9748 22.2958 43.2827 22.112C43.5906 21.9282 43.9404 21.826 44.2991 21.8149C44.5633 21.8078 44.8248 21.8689 45.0583 21.9923C45.2919 22.1158 45.4894 22.2974 45.6318 22.5195C45.9815 23.0948 46.1488 23.7621 46.1116 24.4338C46.1482 25.1291 45.9865 25.8206 45.6451 26.4279C45.52 26.6525 45.3362 26.839 45.1132 26.9678C44.8903 27.0965 44.6366 27.1626 44.379 27.1591C44.141 27.1661 43.9055 27.1094 43.6969 26.9948C43.4883 26.8803 43.3143 26.712 43.1929 26.5077C42.8738 25.9797 42.7206 25.3685 42.7531 24.7529C42.7489 24.4298 42.7893 24.1078 42.8731 23.7957C42.9632 23.4897 43.0979 23.1986 43.2729 22.9316C42.8553 22.9316 42.2334 24.0704 41.4071 26.3481C40.4408 29.1045 39.6704 31.9254 39.1015 34.7898L34.9702 34.8563Z" fill="#2A2D42"/>
<path d="M53.1216 21.8689C53.8584 21.8498 54.5905 21.9909 55.2671 22.2825C55.9438 22.574 56.5486 23.009 57.0397 23.5572C58.0858 24.7286 58.6394 26.2568 58.5857 27.8246C58.6075 29.7336 57.8971 31.5789 56.6 32.9826C56.0137 33.6851 55.2774 34.2478 54.445 34.6296C53.6125 35.0115 52.705 35.2027 51.7889 35.1894C51.0554 35.2129 50.3259 35.0736 49.6529 34.7816C48.9799 34.4896 48.3803 34.0523 47.8974 33.5011C46.8903 32.2874 46.3766 30.7407 46.4581 29.1673C46.4219 27.2823 47.1029 25.4535 48.3638 24.0491C48.9457 23.3571 49.6743 22.8026 50.4971 22.4256C51.3198 22.0485 52.2162 21.8584 53.1216 21.8689ZM54.6142 24.86C54.6942 24.4878 54.7475 24.2219 54.7741 24.0624C54.7834 23.9296 54.7834 23.7964 54.7741 23.6636C54.7942 23.3195 54.6795 22.9811 54.4543 22.7197C54.3593 22.6084 54.2406 22.5197 54.1069 22.4599C53.9732 22.4001 53.8278 22.3708 53.6813 22.3741C53.5058 22.3734 53.3327 22.4154 53.1771 22.4964C53.0215 22.5775 52.8881 22.6952 52.7884 22.8394C52.4911 23.2909 52.2872 23.7971 52.1887 24.3283L50.3762 32.1584C50.3762 32.1584 50.3762 32.2781 50.3762 32.3844C50.2907 32.6973 50.2371 33.018 50.2163 33.3416C50.203 33.6722 50.3068 33.9969 50.5095 34.2589C50.6012 34.3748 50.7189 34.4678 50.8532 34.5301C50.9874 34.5924 51.1345 34.6225 51.2825 34.6178C51.4631 34.6179 51.641 34.5745 51.8012 34.4911C51.9613 34.4078 52.0988 34.2871 52.202 34.1392C52.4997 33.6831 52.7036 33.1724 52.8017 32.637L54.6142 24.86Z" fill="#2A2D42"/>
<path d="M60.8113 33.2742C61.0677 33.7267 61.4795 34.0714 61.9708 34.2447C62.6037 34.5258 63.2903 34.6664 63.9831 34.6568C64.5491 34.698 65.1087 34.5167 65.5424 34.1516C65.7306 33.9593 65.8765 33.7299 65.9706 33.4781C66.0647 33.2262 66.105 32.9576 66.0888 32.6893C66.0888 31.8828 65.458 31.1206 64.1964 30.4027L63.1968 29.8045C62.3991 29.3838 61.6926 28.81 61.1178 28.1162C60.7385 27.5705 60.5425 26.9189 60.5581 26.255C60.5416 25.6546 60.6612 25.0581 60.9082 24.5103C61.1551 23.9624 61.5229 23.4773 61.9841 23.0911C63.0436 22.2366 64.3815 21.8012 65.7423 21.868C66.8943 21.8195 68.0294 22.1564 68.9674 22.8252C69.3542 23.0906 69.6704 23.446 69.8886 23.8606C70.1069 24.2752 70.2207 24.7365 70.2202 25.2048C70.2456 25.6315 70.1128 26.0526 69.847 26.388C69.7153 26.5301 69.554 26.6418 69.3744 26.7153C69.1949 26.7888 69.0014 26.8222 68.8075 26.8134C68.5627 26.8234 68.3184 26.7838 68.0893 26.697C67.8602 26.6102 67.6512 26.4779 67.4748 26.3082C67.3003 26.1348 67.164 25.927 67.0745 25.6981C66.985 25.4692 66.9444 25.2243 66.9551 24.9788C66.9305 24.5666 67.048 24.1585 67.2882 23.8222C67.3972 23.6842 67.5372 23.5737 67.697 23.4998C67.8568 23.4258 68.0318 23.3906 68.2078 23.3968H68.4877H68.8342C68.5571 23.0732 68.1911 22.8375 67.7813 22.7188C67.2681 22.5173 66.7203 22.4179 66.1688 22.4264C65.8959 22.4098 65.6224 22.447 65.364 22.536C65.1056 22.625 64.8673 22.7639 64.6628 22.9448C64.4801 23.1322 64.3383 23.3554 64.2466 23.6002C64.1548 23.8451 64.115 24.1063 64.1297 24.3673C64.1297 25.1915 64.7828 25.998 66.0888 26.7868L66.6219 27.1058C67.4276 27.5543 68.1383 28.1548 68.7142 28.8739C69.1125 29.4618 69.3175 30.1587 69.3006 30.868C69.3246 31.4567 69.2175 32.0434 68.9871 32.5858C68.7566 33.1283 68.4086 33.6131 67.9679 34.0054C66.9392 34.8592 65.6262 35.2957 64.2897 35.2284C63.0864 35.2754 61.9027 34.9146 60.9312 34.2048C60.5213 33.9192 60.1862 33.5394 59.9543 33.0974C59.7223 32.6555 59.6003 32.1645 59.5985 31.6657C59.5705 31.1873 59.7173 30.715 60.0117 30.3363C60.1588 30.1741 60.3406 30.0469 60.5435 29.964C60.7465 29.8812 60.9655 29.8449 61.1845 29.8577C61.4295 29.8419 61.6751 29.8786 61.9047 29.9654C62.1343 30.0521 62.3426 30.187 62.5156 30.3608C62.6886 30.5346 62.8222 30.7434 62.9076 30.9731C62.9929 31.2027 63.0279 31.4479 63.0103 31.6922C63.0365 32.1643 62.9053 32.6318 62.6371 33.0216C62.5152 33.1789 62.357 33.3045 62.1761 33.3878C61.9951 33.4711 61.7967 33.5097 61.5976 33.5002C61.3673 33.4853 61.1394 33.4452 60.9179 33.3806L60.8113 33.2742Z" fill="#2A2D42"/>
<path d="M77.8166 21.8689C78.5534 21.8498 79.2856 21.9909 79.9622 22.2825C80.6388 22.574 81.2437 23.009 81.7348 23.5572C82.776 24.7306 83.3248 26.2586 83.2674 27.8246C83.2892 29.7336 82.5788 31.5789 81.2817 32.9826C80.704 33.6746 79.9806 34.2311 79.1629 34.6125C78.3452 34.9939 77.4532 35.1909 76.5506 35.1894C75.8171 35.2129 75.0875 35.0736 74.4146 34.7816C73.7416 34.4896 73.142 34.0523 72.6591 33.5011C71.6279 32.2972 71.0901 30.7495 71.1531 29.1673C71.1288 27.2746 71.8295 25.444 73.1122 24.0491C73.6877 23.3634 74.4076 22.8125 75.2207 22.4357C76.0338 22.0589 76.9201 21.8654 77.8166 21.8689ZM79.3093 24.86C79.3892 24.4878 79.4425 24.2219 79.4692 24.0624C79.4784 23.9296 79.4784 23.7964 79.4692 23.6636C79.4898 23.332 79.3852 23.0048 79.176 22.7463C79.0823 22.6335 78.9638 22.5437 78.8298 22.4838C78.6958 22.4239 78.5498 22.3954 78.403 22.4007C78.2275 22.3999 78.0544 22.4419 77.8988 22.523C77.7432 22.6041 77.6098 22.7218 77.5101 22.8659C77.2149 23.3186 77.0112 23.8244 76.9104 24.3549L75.0979 32.185C75.0979 32.185 75.0979 32.3046 75.0979 32.411C75.0124 32.7239 74.9588 33.0445 74.938 33.3682C74.9247 33.6988 75.0285 34.0235 75.2312 34.2854C75.3236 34.4007 75.4414 34.493 75.5755 34.5553C75.7096 34.6175 75.8563 34.648 76.0041 34.6444C76.185 34.6457 76.3633 34.6027 76.5236 34.5193C76.684 34.4358 76.8213 34.3145 76.9237 34.1658C77.2261 33.7107 77.4345 33.2 77.5368 32.6636L79.3093 24.86Z" fill="#2A2D42"/>
<path d="M90.4373 22.9319C89.7887 26.7872 89.1579 30.2126 88.5449 33.2082C87.9318 36.2037 87.2966 38.9866 86.6391 41.5568H81.4282L81.5882 41.025C81.7601 41.0087 81.9255 40.9505 82.0696 40.8555C82.2137 40.7604 82.3321 40.6315 82.4144 40.48C82.8108 39.6298 83.1103 38.7379 83.3073 37.8212L87.1855 22.9319H84.9199L85.0798 22.1609H87.3454C87.815 20.4293 88.631 18.8104 89.7443 17.4017C90.1126 16.9119 90.5864 16.5107 91.1307 16.2277C91.675 15.9448 92.276 15.7872 92.8895 15.7665C93.2373 15.7572 93.5832 15.8211 93.9047 15.9539C94.2261 16.0868 94.5159 16.2856 94.7553 16.5376C95.0007 16.7913 95.1931 17.0913 95.3212 17.4199C95.4494 17.7486 95.5107 18.0994 95.5016 18.4519C95.5209 18.9642 95.3711 19.4686 95.0751 19.8876C94.9553 20.0601 94.7962 20.2018 94.6108 20.3012C94.4255 20.4005 94.2193 20.4547 94.009 20.4593C93.7953 20.4656 93.5833 20.4206 93.3908 20.328C93.1983 20.2355 93.0309 20.0981 92.9028 19.9275C92.6148 19.5449 92.4645 19.0765 92.4763 18.5981C92.4551 18.1016 92.5852 17.6103 92.8495 17.189C92.9469 17.0207 93.0867 16.8806 93.2549 16.7827C93.4232 16.6848 93.6142 16.6323 93.809 16.6306C93.6776 16.5331 93.5343 16.4527 93.3826 16.3913C93.2421 16.3381 93.093 16.311 92.9428 16.3116C92.4364 16.3116 92.0277 16.6439 91.7167 17.3086C91.1721 18.8971 90.7882 20.536 90.5706 22.2008H93.1027L92.9161 22.9718L90.4373 22.9319Z" fill="#2A2D42"/>
<path d="M95.4749 22.9321H93.5159L93.6891 22.161H95.6482L97.1008 15.9395H101.099L99.6196 22.1477H101.659L101.472 22.9188H99.4464L97.2741 32.1581C97.2119 32.4328 97.1719 32.6322 97.1541 32.7563C97.1459 32.8669 97.1459 32.978 97.1541 33.0886C97.1447 33.2937 97.1956 33.4971 97.3007 33.6736C97.3385 33.7388 97.3929 33.7929 97.4585 33.8302C97.5241 33.8676 97.5984 33.887 97.6739 33.8863C98.0204 33.8863 98.3936 33.5008 98.8334 32.7297C99.3803 31.6703 99.8265 30.562 100.166 29.4195L100.473 29.5923C100.108 31.1308 99.457 32.5874 98.5535 33.8863C98.2606 34.2949 97.8748 34.6284 97.4277 34.8595C96.9806 35.0906 96.4849 35.2127 95.9814 35.2157C95.6346 35.2363 95.2876 35.1802 94.965 35.0515C94.6425 34.9228 94.3524 34.7247 94.1156 34.4712C93.6387 33.8733 93.4012 33.1201 93.4492 32.3575C93.4565 31.9473 93.4966 31.5383 93.5692 31.1344C93.6491 30.6647 93.7824 30.031 93.969 29.2334L95.4749 22.9321Z" fill="#2A2D42"/>
<path d="M106.683 0.625C107.555 0.62892 108.413 0.853012 109.175 1.27641C109.975 1.70419 110.633 2.35563 111.068 3.15085C111.508 3.92011 111.74 4.79074 111.74 5.6767C111.74 6.56266 111.508 7.43329 111.068 8.20255C110.635 8.99452 109.982 9.64531 109.188 10.077C108.419 10.5141 107.549 10.7439 106.663 10.7439C105.777 10.7439 104.907 10.5141 104.137 10.077C103.345 9.6435 102.693 8.99317 102.258 8.20255C101.822 7.43687 101.592 6.57099 101.592 5.68999C101.594 4.79919 101.829 3.92426 102.272 3.15085C102.712 2.35516 103.374 1.70399 104.177 1.27641C104.944 0.85138 105.806 0.627254 106.683 0.625ZM106.683 1.46252C105.955 1.46762 105.24 1.65504 104.604 2.00757C103.936 2.36235 103.385 2.90258 103.018 3.56296C102.646 4.20583 102.448 4.93439 102.445 5.6767C102.444 6.4137 102.637 7.13809 103.005 7.77714C103.372 8.43297 103.917 8.97212 104.577 9.33253C105.216 9.69878 105.94 9.89152 106.676 9.89152C107.413 9.89152 108.137 9.69878 108.775 9.33253C109.436 8.97212 109.981 8.43297 110.348 7.77714C110.714 7.13738 110.907 6.41346 110.908 5.6767C110.903 4.93456 110.706 4.2063 110.335 3.56296C109.969 2.90164 109.418 2.3611 108.749 2.00757C108.118 1.65202 107.408 1.46004 106.683 1.44923V1.46252ZM104.457 8.48172V3.03121H106.336C106.785 3.01511 107.234 3.06437 107.669 3.17744C107.952 3.26846 108.195 3.45092 108.362 3.6959C108.526 3.93008 108.614 4.20822 108.615 4.49354C108.617 4.68597 108.58 4.87677 108.507 5.0548C108.434 5.23283 108.325 5.39453 108.189 5.53047C107.888 5.83207 107.483 6.00794 107.056 6.02234C107.228 6.09092 107.386 6.19001 107.523 6.31481C107.833 6.64269 108.105 7.00384 108.336 7.39162L109.002 8.45513H107.922L107.429 7.59103C107.204 7.09388 106.888 6.64304 106.496 6.26163C106.288 6.12349 106.04 6.05804 105.79 6.07552H105.27V8.38867L104.457 8.48172ZM105.337 5.41082H106.403C106.769 5.44897 107.138 5.36981 107.456 5.18483C107.604 5.06036 107.701 4.8857 107.728 4.69434C107.755 4.50298 107.71 4.30839 107.603 4.14789C107.509 4.01933 107.379 3.92199 107.229 3.86872C106.939 3.7902 106.637 3.75878 106.336 3.77567H105.324L105.337 5.41082Z" fill="#2A2D42"/>
</g>
<defs>
<clipPath id="clip0">
<rect width="113" height="54" fill="white"/>
</clipPath>
</defs>
</svg>
