<svg width="108" height="54" viewBox="0 0 108 54" fill="none" xmlns="http://www.w3.org/2000/svg">
<path fill-rule="evenodd" clip-rule="evenodd" d="M41.8554 8.62763C38.2061 10.2746 38.1294 20.2679 41.7517 22.1411C46.2807 24.4831 51.0262 21.4164 50.5545 16.453L50.4141 14.9764H47.4609C44.7196 14.9764 44.4982 15.0444 44.3729 15.9255C44.25 16.7911 44.408 16.8748 46.166 16.8748C48.4404 16.8748 49.019 18.71 47.156 20.0149C43.3895 22.653 39.7167 17.3203 41.7212 12.1236C42.6217 9.78836 46.7724 9.45869 47.7679 11.6435C48.313 12.8399 49.896 12.9055 50.1177 11.7407C50.6066 9.17438 45.1769 7.12832 41.8554 8.62763ZM96.6992 8.62763C93.0498 10.2746 92.9732 20.2679 96.5955 22.1411C100.238 24.0246 107.83 20.5835 104.577 18.5234C103.692 17.9634 102.938 18.0676 102.938 18.7494C102.938 20.5065 99.1324 21.2725 97.3944 19.8653C95.887 18.6444 95.887 12.1519 97.3944 10.9313C99.1945 9.47354 102.938 10.3732 102.938 12.2634C102.938 13.1056 104.832 12.4751 104.958 11.5909C105.32 9.06422 99.9783 7.14749 96.6992 8.62763ZM2.53125 15.3981V22.3593H3.58587C4.58001 22.3593 4.64076 22.2289 4.64076 20.0956V17.8319L7.63641 17.6175C11.1321 17.3675 12.5175 16.3693 12.9344 13.8006C13.5489 10.0127 11.5525 8.43728 6.13818 8.43728H2.53125V15.3981ZM14.7658 15.3981V22.3593H15.8204C16.8372 22.3593 16.875 22.2607 16.875 19.6169V16.8748H18.1062C20.128 16.8748 20.6537 17.2844 21.9642 19.881C23.0699 22.0712 23.3615 22.3593 24.4747 22.3593C26.0267 22.3593 26.0347 22.4935 24.2973 19.359L22.8604 16.7662L23.9809 15.8023C25.6484 14.3681 25.6141 10.9145 23.9179 9.45545C22.8474 8.53448 22.3536 8.43728 18.7499 8.43728H14.7658V15.3981ZM31.4628 8.80529C31.3378 9.00779 30.169 11.903 28.8657 15.2388C27.5624 18.575 26.3993 21.5417 26.281 21.8317C26.1365 22.1857 26.4913 22.3593 27.3599 22.3593C28.5036 22.3593 28.7121 22.1635 29.1592 20.6718L29.6649 18.9843H32.4872H35.3095L35.9724 20.6718C36.575 22.2062 38.7998 23.2784 38.8168 22.0428C38.8679 18.3646 32.5658 7.02086 31.4628 8.80529ZM52.3125 15.3981V22.3593H53.3671H54.422V17.617V12.8747L56.2148 16.0348C57.5092 18.3163 58.2425 19.1952 58.8516 19.1952C59.4608 19.1952 60.1941 18.3163 61.4882 16.0348L63.2813 12.8747V17.617V22.3593H64.3359H65.3908V15.3981V8.43728H64.3758C63.534 8.43728 62.9797 9.11498 61.1242 12.4128L58.8873 16.3882L58.2063 15.2604C57.8316 14.64 56.8107 12.8512 55.9373 11.285C54.6599 8.99429 54.1501 8.43728 53.3309 8.43728H52.3125V15.3981ZM71.9628 8.80529C71.8378 9.00779 70.669 11.903 69.3657 15.2388C68.0624 18.575 66.8993 21.5417 66.781 21.8317C66.6365 22.1857 66.9913 22.3593 67.8599 22.3593C69.0036 22.3593 69.2121 22.1635 69.6592 20.6718L70.1649 18.9843H72.9872H75.8095L76.4724 20.6718C77.075 22.2062 79.2998 23.2784 79.3168 22.0428C79.3679 18.3646 73.0658 7.02086 71.9628 8.80529ZM78.1229 9.3866C78.2382 10.1966 78.5516 10.3545 80.2618 10.4642L82.2658 10.593V16.476V22.3593H83.3204H84.375V16.453V10.5468H86.4845C88.4531 10.5468 88.5938 10.4763 88.5938 9.4919V8.43728H83.2909C78.033 8.43728 77.9892 8.44538 78.1229 9.3866ZM89.8595 15.3981V22.3593H90.9141H91.9688V15.3981V8.43728H90.9141H89.8595V15.3981ZM9.7308 10.9834C12.2564 12.335 10.0799 15.6093 6.65604 15.6093H4.64076V13.078V10.5468H6.77781C7.95312 10.5468 9.28206 10.7431 9.7308 10.9834ZM22.275 11.053C24.0381 12.8161 22.4878 14.7655 19.322 14.7655H16.875V12.656V10.5468H19.322C20.6677 10.5468 21.9966 10.7744 22.275 11.053ZM32.8015 16.7957C30.7465 16.9579 30.56 16.7897 31.1507 15.3063C31.4078 14.6608 31.83 13.563 32.0892 12.8669L32.5607 11.6014L33.5165 14.1327L34.4723 16.6639L32.8015 16.7957ZM73.3015 16.7957C71.2465 16.9579 71.06 16.7897 71.6507 15.3063C71.9077 14.6608 72.33 13.563 72.5892 12.8669L73.0607 11.6014L74.0165 14.1327L74.9723 16.6639L73.3015 16.7957ZM35.8595 38.6014V45.5623H40.3183C44.7012 45.5623 44.7752 45.5461 44.6426 44.613C44.5179 43.7346 44.2641 43.6547 41.2382 43.5405L37.9688 43.4174V37.529V31.6405H36.9141H35.8595V38.6014ZM45.9845 38.6014V45.5623H47.0391H48.0938V38.6014V31.6405H47.0391H45.9845V38.6014ZM49.7772 32.1678C49.775 32.4578 50.8499 35.5901 52.1656 39.1287C55.4934 48.0779 55.8112 48.0763 59.1729 39.0936C61.935 31.7129 61.9488 31.6405 60.5791 31.6405C59.5247 31.6405 59.582 31.5204 56.5024 40.1833C56.1929 41.0536 55.8263 41.7655 55.6875 41.7655C55.5487 41.7655 55.1821 41.0536 54.8726 40.1833C51.793 31.5204 51.8503 31.6405 50.7959 31.6405C50.2378 31.6405 49.7794 31.8776 49.7772 32.1678ZM62.8595 38.6014V45.5623H67.5294C72.131 45.5623 72.1975 45.5485 72.0646 44.613C71.9388 43.7282 71.6942 43.6555 68.4493 43.5413L64.9688 43.4188V41.556V39.693L68.0273 39.5691C70.834 39.4554 71.0969 39.3669 71.2209 38.4958C71.3505 37.5832 71.2325 37.5468 68.162 37.5468H64.9688V35.6482V33.7498H68.5546C72.0984 33.7498 72.1408 33.7374 72.1408 32.6952V31.6405H67.5H62.8595V38.6014Z" fill="#2A2D42"/>
</svg>
