<svg width="112" height="54" viewBox="0 0 112 54" fill="none" xmlns="http://www.w3.org/2000/svg">
<g clip-path="url(#clip0)">
<path d="M14.8186 52.455C22.8685 52.2187 30.9003 51.5521 38.88 50.4578C51.0029 49.0004 62.8773 45.9143 74.1864 41.2819C79.4131 39.2378 84.1927 36.1847 88.2566 32.2945C90.4858 30.2273 91.9947 27.4922 92.56 24.4941C92.7692 22.8006 92.6116 21.0815 92.0981 19.4552C91.5845 17.8289 90.7272 16.334 89.585 15.0733C86.6 11.6103 82.9458 8.79595 78.8453 6.80181C73.7891 4.15173 68.4875 2.00613 63.0164 0.395673C62.6445 0.293774 62.2816 0.161443 61.9312 0C63.5007 0.00402676 65.0644 0.193743 66.59 0.565248C75.8755 2.06275 84.9679 4.59034 93.7013 8.10188C98.8921 10.0487 103.658 12.9922 107.734 16.769C110.054 18.8236 111.556 21.655 111.963 24.739C112.176 27.4577 111.346 30.1555 109.642 32.2756C107.029 35.5768 103.726 38.259 99.9693 40.1326C93.0338 43.7901 85.6565 46.5261 78.022 48.2722C65.3166 51.3383 52.3457 53.1556 39.2917 53.6985C29.2093 54.19 19.107 54.083 9.03708 53.3782C6.9041 53.2275 4.77113 53.0014 2.65686 52.813C2.82525 52.2854 3.25559 52.5492 3.55496 52.5492H13.7521C14.1101 52.5979 14.4744 52.5658 14.8186 52.455Z" fill="#2A2D42"/>
<path d="M80.6602 32.6709C78.7238 32.6966 76.8232 32.1442 75.1981 31.0835C73.5731 30.0227 72.2964 28.501 71.5291 26.7105C70.7619 24.9199 70.5384 22.9406 70.8868 21.0222C71.2353 19.1039 72.1401 17.3324 73.4872 15.9313C74.8342 14.5302 76.5632 13.5622 78.4559 13.1495C80.3486 12.7367 82.3203 12.8976 84.1223 13.612C85.9243 14.3263 87.4758 15.5621 88.5812 17.1633C89.6866 18.7646 90.2963 20.6597 90.3334 22.6095C90.3636 25.232 89.3642 27.7603 87.5527 29.6446C85.7411 31.5288 83.264 32.6165 80.6602 32.6709Z" fill="#2A2D42"/>
<path d="M41.5556 25.8123C39.853 25.8123 38.1878 25.8123 36.5225 25.8123C35.8864 25.8123 35.8303 25.6239 35.9799 25.0775C36.6909 22.3643 36.6722 22.3643 39.4601 22.3643H45.7841C46.1584 22.3643 46.5139 22.3643 46.3642 22.9295C45.8365 25.9857 44.14 28.7118 41.6388 30.5224C39.1376 32.3331 36.0311 33.0841 32.9863 32.6141C31.1232 32.3465 29.4336 31.368 28.267 29.881C27.1003 28.3941 26.5458 26.5124 26.7183 24.6253C26.9774 21.4678 28.3565 18.5097 30.6034 16.292C32.8503 14.0743 35.8148 12.7452 38.9549 12.5478C40.4004 12.4494 41.8469 12.7249 43.1568 13.3482C44.4668 13.9715 45.5966 14.9218 46.439 16.1089C46.7384 16.5234 46.7945 16.7872 46.2706 16.9944C46.09 17.0769 45.915 17.1713 45.7467 17.277C45.1283 17.7671 44.4326 18.1493 43.6886 18.4075C42.9028 18.5394 42.6408 17.5031 42.0608 17.0509C40.999 16.3404 39.7526 15.9614 38.4778 15.9614C37.2029 15.9614 35.9565 16.3404 34.8947 17.0509C33.5247 17.7958 32.3804 18.9002 31.5832 20.247C30.786 21.5938 30.3657 23.1327 30.3668 24.7006C30.3644 25.8944 30.8139 27.0442 31.6239 27.9159C32.4339 28.7875 33.5433 29.3155 34.7263 29.3922C36.082 29.4893 37.4379 29.2062 38.6434 28.5743C39.849 27.9423 40.857 26.9863 41.5556 25.8123Z" fill="#2A2D42"/>
<path d="M15.8289 28.8658C17.8309 28.8658 19.7581 28.8658 21.6853 28.8658C22.3775 28.8658 22.6021 28.8658 22.3588 29.7325C21.573 32.3138 21.5917 32.3138 18.9348 32.3138C16.6335 32.3138 14.3321 32.3138 12.0307 32.3138C11.3572 32.3138 11.0952 32.3138 11.3385 31.4471C13.0598 25.6439 14.75 19.8344 16.409 14.0186C16.4265 13.8596 16.4768 13.706 16.5567 13.5677C16.6365 13.4294 16.7442 13.3094 16.8728 13.2154C17.0013 13.1214 17.148 13.0554 17.3033 13.0218C17.4586 12.9881 17.6192 12.9875 17.7748 13.02C20.6375 13.02 23.5002 13.02 26.3628 13.02C26.999 13.02 27.13 13.133 26.9429 13.7925C26.1945 16.4868 26.1945 16.4868 23.4253 16.4868C22.3401 16.4868 21.2549 16.4868 20.1697 16.4868C19.6271 16.4868 19.3278 16.5999 19.1781 17.1651C18.9723 18.0318 18.7103 18.8986 18.4297 19.7276C18.149 20.5566 18.4297 20.4436 19.0097 20.4436C20.7123 20.4436 22.4337 20.4436 24.1363 20.4436C24.7725 20.4436 24.997 20.4436 24.7912 21.2538C24.0615 23.8539 24.0802 23.8727 21.4233 23.8727C20.2446 23.8727 19.0471 23.8727 17.8684 23.8727C17.7822 23.8566 17.6937 23.8579 17.6082 23.8768C17.5226 23.8957 17.4416 23.9317 17.3701 23.9826C17.2985 24.0336 17.2379 24.0985 17.1917 24.1734C17.1455 24.2484 17.1148 24.332 17.1012 24.4191C16.7644 25.7004 16.3528 26.9628 15.9973 28.1875C15.9412 28.3759 15.9038 28.5643 15.8289 28.8658Z" fill="#2A2D42"/>
<path d="M53.7547 16.4868H49.6946C49.994 15.4128 50.2933 14.4331 50.5553 13.4533C50.6675 13.0765 50.9295 13.0576 51.2476 13.0576H62.3428L61.4634 16.2042C61.3699 16.5622 61.0705 16.4868 60.8085 16.4868C59.9292 16.4868 58.9375 16.4868 58.1517 16.4868C57.3658 16.4868 57.2723 16.8071 57.1226 17.3535C55.7942 21.9132 54.447 26.4728 53.156 31.0513C52.8941 31.9934 52.5573 32.3703 51.5095 32.3326C49.1707 32.2384 49.1707 32.3326 49.8256 30.0527L53.7547 16.4868Z" fill="#2A2D42"/>
<path d="M14.8186 52.4551C14.5005 52.7377 14.1263 52.6247 13.7708 52.6247H3.61109C3.27431 52.6247 2.88139 52.4739 2.58202 52.7942C1.70919 52.8149 0.838373 52.7005 0 52.4551H14.8186Z" fill="#2A2D42"/>
</g>
<defs>
<clipPath id="clip0">
<rect width="112" height="54" fill="white"/>
</clipPath>
</defs>
</svg>
