<svg width="304" height="54" viewBox="0 0 304 54" fill="none" xmlns="http://www.w3.org/2000/svg">
<g clip-path="url(#clip0)">
<path fill-rule="evenodd" clip-rule="evenodd" d="M2.21261 0.000220322H27.2419C28.6575 -0.00737967 30.0671 0.181677 31.4291 0.561815L31.451 0.568301C40.9702 3.29465 47.7854 9.19361 52.1511 17.939C52.3761 18.3892 52.8657 18.9801 52.3608 19.413C51.8558 19.8459 51.3667 19.254 50.9188 18.9992C48.1425 17.4198 45.2218 16.2508 41.9993 15.9972C33.8747 15.3574 25.7351 15.862 17.6039 15.709C16.6287 15.6909 16.2909 16.1618 16.2291 17.0979C16.1238 18.6924 17.0788 18.8259 18.3071 18.8259C26.6088 18.8058 34.9105 18.8024 43.2122 18.816C44.2488 18.7954 45.2849 18.8722 46.3066 19.0454C48.0998 19.365 49.7197 20.3008 50.8778 21.6863C52.036 23.0718 52.6574 24.817 52.6314 26.6114C52.637 34.9922 52.637 43.374 52.6314 51.7569C52.6314 53.9791 52.6134 53.9933 50.324 53.995C42.8958 53.9996 35.4676 53.9996 28.0394 53.995C16.759 53.9894 4.86395 46.0778 0.605752 35.7456C0.427651 35.3136 -0.0211112 34.7922 0.386416 34.4008C0.901417 33.9062 1.38747 34.5015 1.81649 34.7555C5.01397 36.6498 8.43123 37.8892 12.1823 37.9207C19.7713 37.9847 27.3648 37.964 34.9564 37.9808C35.9527 37.9834 36.6392 37.7402 36.6563 36.5405C36.6747 35.2531 35.9334 35.0393 34.8753 34.9987C27.9956 34.733 21.1137 34.9188 14.2335 34.8911C11.888 34.8816 9.54458 35.1071 7.19637 34.857C3.33605 34.4475 0.0626754 31.2321 0.0328456 27.4111C-0.0329552 18.9836 0.0328446 10.5548 0.0560942 2.12652C0.0567889 1.56325 0.284132 1.02321 0.688331 0.624674C1.09253 0.226138 1.64064 0.00159151 2.21261 0.000220322ZM99.4474 48.8162C99.4474 41.4748 99.4474 34.1334 99.4474 26.792C99.4474 26.5458 99.4439 26.2995 99.4522 26.0537C99.4707 25.5068 99.4628 24.9227 100.261 24.9504C100.971 24.9746 100.978 25.5077 100.985 26.0127C100.995 26.6607 100.985 27.3087 100.985 27.8953C101.024 27.9281 101.07 27.9512 101.119 27.9629C101.168 27.9745 101.22 27.9742 101.269 27.9621C101.318 27.95 101.364 27.9264 101.402 27.8932C101.44 27.8601 101.469 27.8185 101.488 27.7718C104.123 24.6471 107.784 23.6527 111.917 24.9392C115.137 25.9418 117.356 28.9792 117.61 32.8581C117.8 35.7551 117.327 38.4742 115.386 40.8307C112.537 44.2902 104.661 44.5355 101.804 40.6791C101.592 40.386 101.289 40.1695 100.94 40.0626V48.8162H99.4474ZM108.7 25.9137C104.641 25.8956 101.867 28.2353 101.205 32.1842C101.042 33.3176 101.033 34.4673 101.178 35.6031C101.782 41.6368 107.518 43.0054 111.323 41.6839C114.964 40.4203 116.679 36.7159 115.891 32.0041C115.246 28.164 112.608 25.9306 108.698 25.9124L108.7 25.9137ZM80.1686 17.7381C82.5375 17.6293 84.8769 17.8703 87.0273 19.0134C87.9947 19.5053 88.8194 20.2311 89.424 21.1227C90.0286 22.0143 90.3934 23.0426 90.484 24.111C90.5433 24.6031 90.7148 25.2597 89.9265 25.3958C89.0746 25.5427 89.0285 24.8994 88.9329 24.3158C88.4797 21.5419 86.7834 20.0018 84.0509 19.4368C81.4471 18.8785 78.7486 18.9093 76.1587 19.5271C74.8076 19.8515 73.5407 20.401 72.7621 21.6223C71.2228 24.0354 72.2138 26.8309 75.0331 27.9429C76.8706 28.5883 78.7683 29.0538 80.6986 29.3326C83.1999 29.721 85.6412 30.4196 87.9643 31.4118C90.1498 32.4136 91.0447 34.2298 91.1504 36.4476C91.2539 38.6271 90.3257 40.4782 88.3631 41.4619C83.2095 44.0448 77.963 44.0292 72.8858 41.277C70.5319 40.0013 69.7427 37.6879 69.7502 35.0994C69.7502 34.6293 69.8664 34.295 70.4183 34.2647C71.0004 34.2328 71.2395 34.5373 71.2912 35.0678C71.3181 35.6405 71.3862 36.2106 71.4948 36.7738C71.7128 37.7635 72.198 38.6769 72.8992 39.4177C73.6004 40.1585 74.4916 40.6992 75.4788 40.9828C79.1685 42.1708 82.8924 42.319 86.5483 40.8385C88.961 39.8604 89.9357 37.9618 89.4628 35.502C89.3414 34.8327 89.0385 34.2082 88.5861 33.6946C88.1337 33.1811 87.5487 32.7976 86.8931 32.5847C84.7212 31.7336 82.4217 31.3613 80.1586 30.8567C78.2038 30.4791 76.2823 29.9502 74.4119 29.2751C71.0872 27.964 69.7204 24.9253 70.939 21.6693C71.5347 20.0783 72.7739 19.1767 74.2786 18.5693C76.156 17.8718 78.1656 17.5876 80.1665 17.7368L80.1686 17.7381ZM189.946 27.4361C191.997 25.124 194.482 24.4229 197.321 24.8182C198.174 24.9023 198.995 25.1793 199.721 25.6276C200.447 26.0759 201.057 26.6833 201.505 27.4024C201.816 27.9023 202.052 27.9696 202.37 27.4288C204.166 24.3745 209.588 24.0708 212.279 25.5833C214.122 26.6201 214.893 28.3277 214.93 30.3115C215.005 34.2505 214.962 38.1916 214.957 42.1319C214.957 42.6645 214.985 43.2884 214.197 43.2922C213.41 43.2961 213.432 42.6779 213.43 42.1414C213.422 39.2276 213.426 36.3133 213.425 33.399C213.425 32.7834 213.432 32.1674 213.422 31.5522C213.362 28.1999 211.928 26.3933 209.175 26.1954C205.476 25.9271 202.885 27.6798 202.49 30.9383C202.055 34.5304 202.399 38.1527 202.318 41.7612C202.314 41.9664 202.318 42.1721 202.327 42.3768C202.348 42.8563 202.337 43.3139 201.679 43.3393C201.03 43.3644 200.792 42.9786 200.785 42.4105C200.77 41.0972 200.769 39.784 200.768 38.4703C200.765 36.131 200.779 33.7913 200.761 31.4516C200.739 28.4924 199.723 26.9739 197.41 26.3838C194.626 25.6731 192.022 26.7294 190.699 29.0959C190.084 30.2212 189.776 31.4846 189.806 32.7622C189.821 35.8407 189.818 38.919 189.799 41.9971C189.796 42.5337 189.978 43.2776 189.101 43.3182C188.133 43.3614 188.273 42.5838 188.272 41.9941C188.263 36.8637 188.264 31.7331 188.276 26.6023C188.276 26.0312 188.072 25.223 189.039 25.22C190.007 25.2169 189.739 26.0338 189.815 26.5998C189.846 26.8274 189.886 27.0512 189.946 27.4361ZM233.473 34.7892C231.028 34.7892 228.583 34.8056 226.139 34.7793C225.346 34.7706 225.059 34.9927 225.126 35.8502C225.43 39.755 227.873 42.0368 231.829 42.1967C235.202 42.3328 237.971 41.4472 239.622 38.2927C239.672 38.1782 239.745 38.0751 239.837 37.9895C239.929 37.9039 240.038 37.8378 240.157 37.7951C240.276 37.7524 240.402 37.7341 240.529 37.7413C240.655 37.7485 240.779 37.7811 240.892 37.837C241.561 38.119 241.124 38.6081 240.961 38.9753C239.658 41.9046 237.217 43.2654 234.146 43.618C232.786 43.7825 231.408 43.735 230.063 43.4771C227.126 42.8978 225.056 41.2679 224.162 38.4482C222.876 34.39 223.021 30.4778 226.202 27.211C228.756 24.5866 233.357 23.9499 237.098 25.5595C240.241 26.9112 241.961 29.8821 241.924 33.7394C241.915 34.59 241.56 34.7965 240.808 34.7909C238.363 34.7732 235.918 34.7844 233.473 34.7844V34.7892H233.473ZM232.431 33.2914C234.38 33.2914 236.328 33.2914 238.275 33.2914C240.126 33.2884 240.392 32.9376 239.884 31.1841C238.899 27.7765 235.909 25.9137 231.878 26.1906C230.222 26.2923 228.653 26.9531 227.434 28.0615C226.215 29.1698 225.422 30.6581 225.188 32.2754C225.08 33.0456 225.315 33.3122 226.091 33.3001C228.204 33.2703 230.318 33.2897 232.432 33.2914H232.431ZM291.844 28.3727C291.844 27.4327 291.832 26.6728 291.848 25.9133C291.86 25.3928 291.766 24.7534 292.579 24.7512C293.346 24.7486 293.377 25.3349 293.378 25.8861C293.386 28.0591 293.383 30.232 293.384 32.405C293.384 35.6018 293.392 38.8007 293.374 41.9988C293.371 42.5289 293.569 43.2862 292.675 43.3039C291.735 43.322 291.867 42.5557 291.848 41.9574C291.83 41.359 291.844 40.7503 291.844 40.117C291.292 40.1784 291.155 40.5719 290.916 40.8216C289.53 42.2748 287.707 43.2506 285.714 43.6048C283.722 43.9589 281.667 43.6728 279.853 42.7885C278.893 42.337 278.039 41.6955 277.343 40.9039C276.647 40.1123 276.124 39.1878 275.807 38.1882C274.713 34.9698 274.763 31.7466 276.525 28.7956C279.452 23.889 286.842 23.2163 290.799 27.38C291.074 27.6694 291.378 27.9316 291.844 28.3727H291.844ZM284.107 26.1794C283.001 26.0842 281.889 26.282 280.887 26.7524C279.885 27.2227 279.029 27.9484 278.407 28.8544C276.214 31.9414 276.113 35.2752 277.719 38.64C278.148 39.5788 278.815 40.3935 279.656 41.0061C280.497 41.6187 281.483 42.0089 282.52 42.1392C287.51 42.944 291.548 39.8423 291.802 34.8328C292.061 29.7261 289.166 26.1038 284.107 26.1794ZM170.151 43.6754C164.456 43.6784 160.755 39.9749 160.702 34.2215C160.651 28.5969 164.583 24.6847 170.288 24.6847C175.869 24.6847 179.621 28.5403 179.626 34.282C179.631 40.0034 175.93 43.6728 170.151 43.6754ZM170.255 26.1742C165.53 26.1617 162.259 29.3797 162.254 34.0444C162.249 38.9429 165.397 42.3047 170.016 42.3315C174.816 42.3591 178.071 39.1545 178.084 34.387C178.101 29.3127 175.118 26.1872 170.255 26.1747V26.1742ZM252.3 27.6379C254.746 24.7759 257.88 24.2618 261.337 24.9867C264.666 25.6848 266.469 27.9195 266.488 31.2852C266.505 34.7745 266.493 38.2638 266.488 41.753C266.493 42.0809 266.471 42.4086 266.424 42.7332C266.413 42.8257 266.383 42.9149 266.335 42.9953C266.287 43.0757 266.223 43.1455 266.147 43.2003C266.07 43.2551 265.983 43.2937 265.891 43.3137C265.799 43.3336 265.703 43.3346 265.61 43.3164C265.526 43.3166 265.443 43.2999 265.366 43.2675C265.289 43.2351 265.219 43.1877 265.161 43.128C265.102 43.0682 265.057 42.9975 265.027 42.9201C264.998 42.8427 264.984 42.7602 264.988 42.6775C264.966 42.35 264.959 42.0213 264.959 41.6934C264.957 38.5323 264.957 35.3714 264.959 32.2106C264.953 27.5808 261.393 25.0338 256.883 26.4287C253.781 27.3886 252.148 29.7452 252.105 33.4081C252.075 36.0761 252.099 38.7446 252.098 41.4126C252.098 41.7409 252.094 42.0697 252.091 42.398C252.085 42.8965 251.955 43.3052 251.348 43.3277C250.742 43.3501 250.574 42.9609 250.561 42.452C250.553 42.1237 250.55 41.7953 250.55 41.467C250.55 36.6641 250.55 31.8611 250.55 27.0581C250.55 26.7708 250.55 26.4835 250.557 26.1941C250.568 25.6589 250.671 25.1837 251.364 25.2005C251.981 25.2161 252.062 25.6502 252.098 26.138C252.133 26.6179 252.03 27.1173 252.3 27.6383V27.6379ZM138.28 27.4046C140.984 23.6963 148.471 23.8907 150.909 26.6399C151.855 27.707 152.493 28.8535 152.504 30.2687C152.538 34.206 152.536 38.1437 152.548 42.0813C152.548 42.5768 152.619 43.1104 151.866 43.1419C151.098 43.1739 150.989 42.6779 150.989 42.0947C150.985 38.567 150.875 35.0354 151.013 31.5107C151.157 27.8387 148.307 25.7375 144.794 26.0174C140.551 26.3552 138.315 28.8375 138.298 33.056C138.287 35.9681 138.304 38.8807 138.286 41.7928C138.283 42.3319 138.447 43.0698 137.573 43.1056C136.594 43.1458 136.76 42.3539 136.758 41.7742C136.742 36.5237 136.746 31.2736 136.739 26.023C136.739 25.5215 136.654 24.9767 137.418 24.9815C138.056 24.9858 138.278 25.3807 138.284 25.9483C138.284 26.436 138.28 26.9207 138.28 27.405V27.4046ZM302.3 30.731C302.3 27.201 302.3 23.6711 302.3 20.1414C302.3 19.772 302.305 19.4022 302.322 19.0333C302.311 18.9305 302.324 18.8265 302.359 18.7291C302.395 18.6318 302.452 18.5436 302.527 18.4713C302.602 18.3989 302.693 18.3442 302.792 18.3113C302.892 18.2783 302.998 18.268 303.102 18.2812C303.196 18.2762 303.291 18.291 303.379 18.3245C303.467 18.3581 303.547 18.4097 303.613 18.4758C303.679 18.542 303.73 18.6213 303.763 18.7085C303.796 18.7956 303.81 18.8887 303.804 18.9814C303.831 19.308 303.834 19.6372 303.834 19.9651C303.834 27.1478 303.834 34.3308 303.834 41.5141C303.834 41.6372 303.843 41.7612 303.831 41.8831C303.775 42.4632 303.998 43.2654 303.069 43.2974C302.074 43.3328 302.312 42.4956 302.309 41.9362C302.292 38.2002 302.302 34.4652 302.302 30.7301L302.3 30.731ZM128.093 33.8755C128.093 36.4602 128.1 39.0448 128.087 41.629C128.084 42.1833 128.192 42.8922 127.301 42.871C126.41 42.8499 126.563 42.1271 126.561 41.5858C126.55 36.3753 126.55 31.1651 126.561 25.9552C126.561 25.3997 126.456 24.6916 127.346 24.7128C128.236 24.734 128.082 25.4563 128.085 25.9988C128.102 28.6241 128.093 31.2498 128.093 33.8755Z" fill="#2A2D42"/>
</g>
<defs>
<clipPath id="clip0">
<rect width="304" height="54" fill="white"/>
</clipPath>
</defs>
</svg>
