<svg width="218" height="54" viewBox="0 0 218 54" fill="none" xmlns="http://www.w3.org/2000/svg">
<path d="M27.25 0C42.1467 0 54.1367 11.9597 54.1367 27.1812C54.1367 42.0403 42.1467 54 27.25 54C17.44 54 9.44667 49.2886 4.36 41.6779C9.08333 35.1544 13.4433 27.906 17.44 20.2953C17.44 20.2953 16.35 44.2148 24.7067 44.5772C31.2467 46.0268 39.6033 25.7315 39.6033 25.7315C38.8767 25.7315 45.78 37.6913 47.5967 36.604C48.3233 36.2416 46.5067 33.7047 45.0533 30.443C43.6 27.1812 42.8733 22.8322 42.51 21.0201C42.1467 18.1208 42.51 17.0336 40.33 16.6711C38.5133 16.3087 37.7867 17.7584 36.6967 20.2953C33.4267 27.5436 27.25 40.2282 25.07 39.8658C21.8 39.1409 22.5267 11.9597 22.5267 9.78524C22.89 7.61074 22.5267 6.52349 21.0733 5.79866C18.53 5.79866 17.44 8.69799 16.7133 10.5101C11.2633 19.9329 6.17667 28.6309 1.09 35.1544C0.363333 32.6175 0 29.7181 0 27.1812C0 11.9597 11.99 0 27.25 0Z" fill="#2A2D42"/>
<path d="M207.827 28.6307C207.827 30.8052 208.19 32.2549 208.917 32.9797C209.643 33.7046 210.37 34.4294 211.823 34.4294C212.913 34.4294 213.64 33.7046 214.367 32.9797C215.457 32.2549 215.82 30.8052 215.82 28.9932C215.82 27.1811 215.457 25.7314 214.367 25.0066C213.64 23.9193 212.913 23.5569 211.46 23.5569C210.37 23.5569 209.643 23.9193 208.917 24.6442C208.19 25.7314 207.827 27.1811 207.827 28.6307ZM205.647 37.6911H208.19C208.19 38.7784 208.553 39.1408 208.917 39.5032C209.643 39.8656 210.37 40.2281 211.46 40.2281C212.55 40.2281 213.277 39.8656 214.003 39.5032C214.73 39.1408 215.093 38.416 215.457 37.6911C215.457 36.9663 215.457 35.8791 215.457 34.4294C214.367 35.5167 212.913 36.2415 211.46 36.2415C209.28 36.2415 207.827 35.5167 206.737 34.067C205.647 32.6173 205.283 30.8052 205.283 28.9932C205.283 27.5435 205.283 26.4562 206.01 25.0066C206.373 23.9193 207.1 23.1945 208.19 22.4697C208.917 21.7448 210.007 21.3824 211.46 21.3824C213.277 21.3824 214.73 22.1073 215.82 23.5569V21.7448H218V34.4294C218 36.6039 217.637 38.0536 217.273 39.1408C216.91 40.2281 216.183 40.9529 215.093 41.3153C214.003 42.0401 212.913 42.0401 211.46 42.0401C209.643 42.0401 208.19 41.6777 207.1 40.9529C206.01 40.2281 205.647 39.1408 205.647 37.6911ZM190.387 36.2415V21.7448H192.567V23.9193C193.657 22.1073 195.11 21.3824 197.29 21.3824C198.017 21.3824 199.107 21.7448 199.833 21.7448C200.56 22.1073 200.923 22.4697 201.287 23.1945C201.65 23.5569 202.013 24.2817 202.013 25.0066C202.377 25.369 202.377 26.0938 202.377 27.5435V36.2415H199.833V27.5435C199.833 26.4562 199.833 25.7314 199.47 25.369C199.47 24.6442 199.107 24.2817 198.38 23.9193C198.017 23.5569 197.29 23.5569 196.927 23.5569C195.837 23.5569 194.747 23.9193 194.02 24.6442C193.293 25.369 192.93 26.4562 192.93 28.2683V36.2415H190.387ZM184.21 36.2415V21.7448H186.753V36.2415H184.21ZM184.21 18.8455V16.3086H186.753V18.8455H184.21ZM160.593 36.2415V21.7448H163.137V23.9193C163.5 23.1945 163.863 22.4697 164.953 22.1073C165.68 21.7448 166.407 21.3824 167.497 21.3824C168.587 21.3824 169.313 21.7448 170.04 22.1073C170.767 22.4697 171.13 23.1945 171.493 23.9193C172.583 22.1073 174.037 21.3824 175.853 21.3824C177.307 21.3824 178.76 21.7448 179.487 22.4697C180.213 23.5569 180.577 24.6442 180.577 26.4562V36.2415H178.033V27.1811C178.033 26.0938 178.033 25.369 177.67 25.0066C177.67 24.6442 177.307 24.2817 176.943 23.9193C176.58 23.5569 175.853 23.5569 175.49 23.5569C174.4 23.5569 173.673 23.9193 172.947 24.6442C172.22 25.369 171.857 26.4562 171.857 27.9059V36.2415H169.313V26.8187C169.313 25.7314 169.313 25.0066 168.95 24.2817C168.223 23.9193 167.86 23.5569 166.77 23.5569C166.043 23.5569 165.317 23.9193 164.953 24.2817C164.227 24.6442 163.863 25.0066 163.5 25.7314C163.5 26.4562 163.137 27.5435 163.137 28.6307V36.2415H160.593ZM131.89 28.6307C131.89 30.8052 132.253 32.2549 132.98 32.9797C133.707 33.7046 134.797 34.4294 135.887 34.4294C136.977 34.4294 138.067 33.7046 138.793 32.9797C139.52 32.2549 139.883 30.8052 139.883 28.9932C139.883 27.1811 139.52 25.7314 138.793 25.0066C137.703 23.9193 136.977 23.5569 135.887 23.5569C134.797 23.5569 133.707 23.9193 132.98 24.6442C132.253 25.7314 131.89 27.1811 131.89 28.6307ZM129.71 37.6911H132.253C132.253 38.7784 132.617 39.1408 132.98 39.5032C133.707 39.8656 134.433 40.2281 135.523 40.2281C136.613 40.2281 137.703 39.8656 138.067 39.5032C138.793 39.1408 139.157 38.416 139.52 37.6911C139.52 36.9663 139.52 35.8791 139.52 34.4294C138.43 35.5167 137.34 36.2415 135.523 36.2415C133.707 36.2415 131.89 35.5167 130.8 34.067C129.71 32.6173 129.347 30.8052 129.347 28.9932C129.347 27.5435 129.71 26.4562 130.073 25.0066C130.437 23.9193 131.163 23.1945 132.253 22.4697C133.343 21.7448 134.433 21.3824 135.523 21.3824C137.34 21.3824 138.793 22.1073 139.883 23.5569V21.7448H142.063V34.4294C142.063 36.6039 142.063 38.0536 141.337 39.1408C140.973 40.2281 140.247 40.9529 139.157 41.3153C138.43 42.0401 136.977 42.0401 135.523 42.0401C133.707 42.0401 132.253 41.6777 131.527 40.9529C130.437 40.2281 129.71 39.1408 129.71 37.6911ZM116.267 28.9932C116.267 30.8052 116.63 32.2549 117.357 33.3422C118.083 34.067 119.173 34.4294 120.627 34.4294C121.717 34.4294 122.807 34.067 123.533 33.3422C124.26 32.2549 124.987 30.8052 124.987 28.9932C124.987 27.1811 124.26 25.7314 123.533 25.0066C122.807 23.9193 121.717 23.5569 120.627 23.5569C119.173 23.5569 118.083 23.9193 117.357 25.0066C116.63 25.7314 116.267 27.1811 116.267 28.9932ZM113.723 28.9932C113.723 26.4562 114.45 24.2817 115.903 23.1945C117.357 22.1073 118.81 21.3824 120.627 21.3824C122.443 21.3824 124.26 22.1073 125.35 23.5569C126.803 24.6442 127.53 26.4562 127.53 28.9932C127.53 30.8052 127.167 32.2549 126.44 33.3422C126.077 34.4294 124.987 35.1542 123.897 35.8791C122.807 36.2415 121.717 36.6039 120.627 36.6039C118.447 36.6039 116.993 35.8791 115.54 34.7918C114.45 33.3422 113.723 31.5301 113.723 28.9932ZM105.367 36.2415V21.7448H107.547V23.9193C107.91 22.8321 108.637 22.1073 109 22.1073C109.363 21.7448 110.09 21.3824 110.453 21.3824C111.543 21.3824 112.27 21.7448 112.997 22.1073L112.27 24.6442C111.543 24.2817 111.18 23.9193 110.453 23.9193C110.09 23.9193 109.363 24.2817 109 24.6442C108.637 24.6442 108.273 25.369 107.91 25.7314C107.91 26.8187 107.547 27.5435 107.547 28.6307V36.2415H105.367ZM100.643 30.8052L103.187 31.1677C102.823 32.9797 102.097 34.4294 101.007 35.1542C99.9167 36.2415 98.4633 36.6039 97.01 36.6039C95.1933 36.6039 93.3767 35.8791 92.2867 34.7918C91.1967 33.3422 90.47 31.5301 90.47 28.9932C90.47 27.5435 90.8333 26.0938 91.1967 25.0066C91.56 23.9193 92.65 22.8321 93.74 22.4697C94.83 21.7448 95.92 21.3824 97.01 21.3824C98.8267 21.3824 99.9167 21.7448 101.007 22.4697C102.097 23.5569 102.46 24.6442 102.823 26.0938L100.643 26.4562C100.28 25.369 99.9167 24.6442 99.19 24.2817C98.8267 23.5569 98.1 23.5569 97.01 23.5569C95.92 23.5569 94.83 23.9193 94.1033 24.6442C93.3767 25.7314 93.0133 27.1811 93.0133 28.9932C93.0133 30.8052 93.3767 32.2549 94.1033 33.3422C94.83 34.067 95.92 34.4294 97.01 34.4294C98.1 34.4294 98.8267 34.4294 99.5533 33.7046C100.28 32.9797 100.643 32.2549 100.643 30.8052ZM85.02 36.2415V21.7448H87.2V36.2415H85.02ZM85.02 18.8455V16.3086H87.2V18.8455H85.02ZM61.7667 36.2415V16.3086H65.7633L70.4867 30.4428C70.85 31.8925 71.2133 32.6173 71.5767 33.3422C71.5767 32.6173 71.94 31.5301 72.6667 30.0804L77.39 16.3086H81.0233V36.2415H78.48V19.5703L72.3033 36.2415H70.1233L64.31 19.2079V36.2415H61.7667ZM147.15 28.6307C147.15 30.8052 147.513 32.2549 148.24 32.9797C148.967 33.7046 150.057 34.4294 151.147 34.4294C152.237 34.4294 152.963 33.7046 154.053 32.9797C154.78 32.2549 155.143 30.8052 155.143 28.9932C155.143 27.1811 154.78 25.7314 153.69 25.0066C152.963 23.9193 152.237 23.5569 151.147 23.5569C150.057 23.5569 148.967 23.9193 148.24 24.6442C147.513 25.7314 147.15 27.1811 147.15 28.6307ZM155.143 34.4294C154.78 34.7918 153.327 35.8791 151.873 36.2415C151.51 36.2415 151.147 36.2415 150.783 36.2415C148.967 36.2415 147.15 35.5167 146.06 34.067C144.97 32.6173 144.607 30.8052 144.607 28.9932C144.607 27.5435 144.607 26.4562 145.333 25.0066C145.697 23.9193 146.423 23.1945 147.513 22.4697C148.24 21.7448 149.693 21.3824 150.783 21.3824C152.6 21.3824 154.053 22.1073 155.143 23.5569V21.7448H157.323V26.8187V30.4428C157.323 32.6173 157.323 34.067 157.323 34.4294C157.687 35.1542 157.687 35.8791 158.05 36.2415H155.507C155.143 35.8791 155.143 35.1542 155.143 34.4294Z" fill="#2A2D42"/>
</svg>
