<svg width="183" height="54" viewBox="0 0 183 54" fill="none" xmlns="http://www.w3.org/2000/svg">
<path fill-rule="evenodd" clip-rule="evenodd" d="M135.397 7.53759C135.048 7.17014 134.747 7.19337 134.455 7.19337C128.213 7.19337 121.971 7.19583 115.728 7.19407C113.547 7.19337 111.575 7.90082 109.741 9.00422C106.077 11.2093 103.605 14.265 102.379 18.4506C100.511 24.8278 98.4376 31.148 96.3422 37.4559C94.3454 43.4667 98.0767 48.2731 103.967 47.8582C107.132 47.635 110.325 47.836 113.505 47.8082C114.494 47.7994 115.476 47.7871 116.465 47.4956C121.57 45.9935 124.732 42.5298 126.432 37.6699C127.682 34.0929 128.77 30.4578 129.865 26.8294C130.282 25.4501 130.874 24.1108 131.074 22.6805C130.469 22.2922 129.867 22.4686 129.299 22.4651C126.178 22.4453 123.056 22.4327 119.935 22.4682C118.829 22.4809 117.529 22.0346 116.666 22.6886C115.818 23.3309 115.836 24.6768 115.497 25.7207C114.781 27.9251 114.092 30.1379 113.371 32.4112C115.102 32.7698 116.748 32.3088 118.382 32.7385C117.896 34.2579 117.43 35.6362 117.025 37.0328C116.879 37.5361 116.727 37.8782 116.118 37.8751C113.008 37.8606 109.898 37.8687 106.582 37.8687C107.251 35.7284 107.852 33.7898 108.464 31.8551C109.87 27.407 111.279 22.9599 112.693 18.5143C113.129 17.1455 113.138 17.1451 114.633 17.1399C115.987 17.1349 117.342 17.1388 118.696 17.1384C122.877 17.1384 127.058 17.1476 131.239 17.1258C131.702 17.1233 132.286 17.3781 132.527 16.5925C133.464 13.5361 134.454 10.4965 135.397 7.53759ZM141.187 47.7695C143.481 47.7983 145.847 48.1668 148.054 47.6248C153.787 46.2169 157.888 42.7934 159.753 37.0747C161.74 30.9787 163.648 24.8563 165.568 18.7385C166.055 17.1849 166.469 15.6327 166.546 13.963C166.759 9.32732 162.844 6.43313 159.171 6.52816C155.76 6.61615 152.345 6.54153 148.931 6.55174C148.288 6.5535 147.649 6.55385 147.007 6.7235C141.181 8.26369 137.191 11.7675 135.311 17.5302C134.516 19.9672 133.754 22.4151 132.992 24.8626C131.623 29.259 130.167 33.6318 128.928 38.0644C127.308 43.863 131.305 47.9169 135.893 47.7783C137.656 47.7251 139.422 47.7695 141.187 47.7695ZM99.1942 13.9071C101.891 8.65754 105.999 5.06821 111.674 3.26088C112.254 3.07645 112.996 3.32529 113.425 2.69141H161.136C161.241 2.95116 161.48 2.94799 161.706 2.99937C166.296 4.03661 169.219 6.81677 170.511 11.3244C170.754 12.1687 170.596 13.0849 171.027 13.8863C170.812 16.1449 170.449 18.3598 169.695 20.5268C168.741 23.2682 168.024 26.0903 167.108 28.8462C165.718 33.031 164.673 37.3292 162.964 41.4091C160.302 46.1166 156.539 49.5518 151.374 51.3736C149.589 52.0032 147.766 52.3313 145.86 52.3288C131.562 52.3094 117.263 52.2626 102.966 52.3481C97.9488 52.3784 92.2391 48.8982 91.4467 42.6213C91.3959 42.2176 91.2658 41.8241 91.1729 41.4257C91.2379 38.6599 92.0338 36.06 92.8883 33.4544C95.0215 26.9487 96.8893 20.3579 99.1942 13.9071Z" fill="#2A2D42"/>
<path fill-rule="evenodd" clip-rule="evenodd" d="M162.964 41.4089C164.673 37.3286 165.718 33.0308 167.108 28.8456C168.024 26.0901 168.741 23.268 169.695 20.5266C170.449 18.3595 170.812 16.1446 171.027 13.8857C172.614 13.897 174.201 13.8907 175.787 13.9245C177.914 13.9695 179.577 14.9019 180.947 16.5131C181.564 17.2385 181.712 18.1913 182.34 18.8815V23.1051C181.286 24.6861 181.175 26.5825 180.606 28.3243C180.011 30.1486 179.606 32.034 179.056 33.8741C177.578 38.8223 172.835 41.586 168.776 41.4191C166.841 41.3399 164.901 41.4079 162.964 41.4089Z" fill="#2A2D42"/>
<path fill-rule="evenodd" clip-rule="evenodd" d="M72.3018 23.8511H77.1442C77.5768 23.8511 77.92 23.7814 78.0783 23.269C78.5024 21.8966 78.9791 20.5405 79.4654 19.0855C77.7479 18.856 76.1745 19.0278 74.6106 18.9616C73.9911 18.9356 73.7999 19.36 73.6476 19.7968C73.2104 21.0505 72.8082 22.3165 72.3018 23.8511ZM83.0734 35.0734C84.221 35.0734 85.2716 35.0354 86.3177 35.0858C87.1097 35.1238 87.454 34.8045 87.6529 34.0478C88.2308 31.8509 88.9256 29.6845 89.5045 27.4879C90.1388 25.083 89.0175 23.5604 86.5687 23.466C85.2183 23.414 83.8615 23.4041 82.5122 23.4675C79.8913 23.5903 78.0274 25.0038 77.123 27.3369C76.1808 29.7669 75.6157 32.3422 74.8683 34.914C75.9377 35.2047 76.9421 34.9594 77.9133 35.0889C78.9035 35.2206 79.246 34.7137 79.4669 33.8831C79.9312 32.137 80.4387 30.4022 80.9533 28.6702C81.0989 28.1809 81.2173 27.6118 81.9436 27.6505C82.9854 27.7062 84.0418 27.5171 85.1741 27.8012C84.48 30.204 83.8032 32.5471 83.0734 35.0734ZM34.7557 18.5618C33.5541 18.5618 32.6681 18.6449 31.8054 18.5403C30.7664 18.4143 30.3652 18.8719 30.0829 19.793C28.9371 23.5294 27.6779 27.2321 26.5678 30.9787C26.1819 32.281 25.5373 33.5385 25.4673 35.0724C29.3976 35.0724 33.2148 35.0611 37.032 35.0829C37.7099 35.0865 37.941 34.7317 38.1103 34.1731C38.5672 32.6653 39.1143 31.1828 39.5218 29.6627C40.4506 26.1959 41.2069 26.7805 37.1211 26.7024C36.4068 26.689 36.0559 27.0156 35.8647 27.6611C35.6166 28.4995 35.2936 29.3157 35.0518 30.1558C34.9243 30.5975 34.7635 30.9101 34.2386 30.878C33.1982 30.8147 32.1394 31.0301 30.9572 30.6911C32.2069 26.7006 33.4389 22.7663 34.7557 18.5618ZM60.8399 26.7534C61.6701 24.057 62.4851 21.4099 63.3619 18.5621C62.0705 18.5621 61.0205 18.5945 59.9737 18.5502C59.3181 18.5227 59.0658 18.8029 58.8849 19.4016C58.0922 22.0241 57.2549 24.6328 56.418 27.2412C56.0325 28.4421 56.4223 29.4255 57.2507 30.2709C57.7532 30.7837 58.5216 30.8094 59.1775 31.1293C59.0566 32.4805 58.2632 33.6364 58.1805 35.0154C58.4583 35.0372 58.6898 35.0812 58.9181 35.0689C60.0243 35.0073 61.3489 35.4905 62.1727 34.8535C62.8272 34.3473 62.9357 33.0993 63.2089 32.1585C63.4269 31.4085 63.7962 31.0171 64.6154 30.8267C66.831 30.3114 68.3294 28.9303 69.0349 26.7471C69.5908 25.0274 70.1774 23.3172 70.687 21.5841C71.6876 18.1789 72.2831 18.5938 68.339 18.5551C67.6505 18.5481 67.2819 18.7783 67.0858 19.4797C66.6783 20.9375 66.1687 22.3669 65.7061 23.8099C64.6582 27.079 64.6593 27.0797 61.1732 26.9072C61.1188 26.9044 61.0665 26.8597 60.8399 26.7534ZM11.433 35.0731C12.4165 35.0731 13.4637 35.0537 14.5101 35.0805C15.1237 35.0967 15.4085 34.8978 15.6131 34.2615C15.9323 33.2696 15.9344 31.9885 16.7225 31.3694C17.5884 30.689 18.8744 31.1828 19.9749 31.1223C23.3228 30.9375 25.3245 29.4758 26.3887 26.3479C26.7824 25.1903 27.1584 24.0236 27.4644 22.841C28.1433 20.2188 26.8979 18.6047 24.1724 18.5678C21.9989 18.5382 19.8212 18.6325 17.6523 18.5326C16.5313 18.4808 16.1482 18.9338 15.8489 19.9193C14.4596 24.4881 12.9954 29.0341 11.5471 33.585C11.4072 34.0242 11.1725 34.4367 11.433 35.0731ZM39.5239 34.9372C40.6799 35.1864 41.7373 34.9932 42.7764 35.0847C43.4888 35.147 43.8578 34.8457 44.0511 34.2041C44.2865 33.4234 44.5699 32.6569 44.7873 31.8716C44.9085 31.4331 45.0682 31.0966 45.5881 31.1241C46.6278 31.1779 47.687 30.9513 48.7363 31.2835C48.7653 32.6101 47.8574 33.6945 47.933 35.0734C48.9756 35.0734 49.9718 35.04 50.9649 35.0844C51.7332 35.1181 52.093 34.8457 52.3245 34.0756C53.4649 30.2797 54.7037 26.513 55.8575 22.7213C56.5728 20.3702 55.3126 18.6526 52.8543 18.5702C51.5622 18.5266 50.2645 18.5076 48.9741 18.5738C46.373 18.7068 44.4074 20.0485 43.5475 22.3978C42.048 26.4947 40.8626 30.7059 39.5239 34.9372ZM99.1947 13.9067C96.8894 20.3575 95.0219 26.9484 92.8884 33.4541C92.0338 36.0596 91.2379 38.6596 91.1729 41.4253C76.095 41.4186 61.017 41.4098 45.939 41.406C33.747 41.4028 21.555 41.4081 9.36305 41.3996C8.54242 41.3989 7.70201 41.4134 6.90471 41.2543C2.36161 40.3469 0.708346 36.6443 1.55901 32.8427C2.4383 28.9127 3.58512 25.0404 4.66868 21.1579C5.97312 16.482 10.7173 13.8543 14.5571 13.8663C42.7696 13.9553 70.9821 13.9095 99.1947 13.9067Z" fill="#2A2D42"/>
<path fill-rule="evenodd" clip-rule="evenodd" d="M155.522 17.1973C152.751 17.1973 150.23 17.1917 147.709 17.1994C146.085 17.2043 146.092 17.2149 145.627 18.6984C144.584 22.0322 143.526 25.3614 142.486 28.6966C141.552 31.694 140.635 34.6962 139.656 37.8709C141.745 37.8709 143.676 37.8945 145.607 37.8618C146.716 37.8431 148.017 38.2746 148.883 37.6678C149.75 37.0593 149.713 35.6835 150.045 34.6395C151.861 28.9307 153.638 23.2102 155.522 17.1973Z" fill="#2A2D42"/>
<path fill-rule="evenodd" clip-rule="evenodd" d="M155.522 17.1973C153.638 23.2102 151.861 28.9307 150.045 34.6395C149.713 35.6835 149.75 37.0593 148.883 37.6678C148.017 38.2746 146.716 37.8431 145.607 37.8618C143.676 37.8945 141.745 37.8709 139.656 37.8709C140.635 34.6962 141.552 31.694 142.486 28.6966C143.526 25.3614 144.584 22.0322 145.627 18.6984C146.092 17.2149 146.085 17.2043 147.709 17.1994C150.23 17.1917 152.751 17.1973 155.522 17.1973Z" fill="#2A2D42"/>
<path fill-rule="evenodd" clip-rule="evenodd" d="M46.4736 26.8526C46.5284 26.5359 46.557 26.3032 46.6097 26.0758C47.4183 22.5911 47.7548 22.3728 51.5331 22.9205C51.4688 23.1472 51.4097 23.3671 51.344 23.5853C50.2919 27.074 50.2915 27.074 46.4736 26.8526Z" fill="#2A2D42"/>
<path fill-rule="evenodd" clip-rule="evenodd" d="M18.1847 26.9325C17.9981 26.3356 18.1826 26.0867 18.2681 25.8147C19.3379 22.4027 19.3365 22.4024 23.136 22.9053C22.8261 23.9644 22.5052 25.0136 22.2157 26.0716C22.057 26.652 21.7549 26.961 21.1095 26.9406C20.1285 26.9096 19.1456 26.9325 18.1847 26.9325Z" fill="#2A2D42"/>
</svg>
