<svg width="143" height="34" viewBox="0 0 143 34" fill="none" xmlns="http://www.w3.org/2000/svg">
<path d="M0 7.39703C0 3.55583 3.16695 0.434868 7.06473 0.434868C7.30835 0.434868 7.30835 0.434868 7.55196 0.434868C11.4497 0.194794 14.8603 3.07569 15.1039 6.91688C15.1039 7.15695 15.1039 7.15695 15.1039 7.39703C15.1039 8.5974 14.1295 9.55769 12.9114 9.55769C11.6934 9.55769 10.7189 8.5974 10.7189 7.39703C10.7189 5.47643 9.01363 4.75621 7.55196 4.75621C6.09029 4.75621 4.38501 5.47643 4.38501 7.39703C4.38501 8.5974 3.41056 9.55769 2.1925 9.55769C0.974445 9.55769 0 8.5974 0 7.39703ZM15.3475 22.7618C15.3475 21.5614 14.3731 20.6011 13.155 20.6011C11.937 20.6011 10.9625 21.5614 10.9625 22.7618C10.9625 24.6824 9.25724 25.4026 7.79557 25.4026C6.3339 25.4026 4.62862 24.6824 4.62862 22.7618C4.62862 21.5614 3.65417 20.6011 2.43612 20.6011C1.21806 20.6011 0.24361 21.5614 0.24361 22.7618C0.24361 26.603 3.41056 29.7239 7.30835 29.7239C7.55196 29.7239 7.55196 29.7239 7.79557 29.7239C8.28279 29.7239 9.01363 29.7239 9.50085 29.7239L11.4497 33.3251C12.1806 34.0453 13.155 34.2854 14.1295 33.5651C15.1039 33.085 15.8348 32.1247 15.3475 31.4045L13.3986 27.8033C14.6167 26.3629 15.3475 24.4423 15.3475 22.7618ZM4.38501 20.6011V9.55769C3.89778 10.0378 3.16695 10.518 2.1925 10.518C1.46167 10.518 0.487223 10.2779 0 9.55769V20.8412C0.487223 20.361 1.21806 19.8809 2.1925 19.8809C3.16695 19.8809 3.89778 20.121 4.38501 20.6011ZM10.9625 9.31762V20.6011C12.1806 19.4007 14.1295 19.4007 15.1039 20.6011V9.55769C14.6167 10.0378 13.8859 10.518 12.9114 10.518C12.4242 10.518 11.4497 10.0378 10.9625 9.31762ZM48.7223 9.31762C49.9404 9.31762 50.9148 8.35732 50.9148 7.15695C50.9148 5.23635 52.6201 4.51613 54.0818 4.51613C55.5434 4.51613 57.2487 5.23635 57.2487 7.15695C57.2487 8.35732 58.2232 9.31762 59.4412 9.31762C60.6593 9.31762 61.6337 8.35732 61.6337 7.15695C61.6337 3.31576 58.4668 0.194793 54.569 0.194793C54.3254 0.194793 54.3254 0.194793 54.0818 0.194793C50.184 -0.0452812 46.7734 2.83561 46.5298 6.6768C46.5298 6.91688 46.5298 6.91688 46.5298 7.15695C46.5298 8.5974 47.5043 9.5577 48.7223 9.31762C48.7223 9.5577 48.7223 9.5577 48.7223 9.31762ZM59.6848 20.361C58.4668 20.361 57.4923 21.3213 57.4923 22.5217C57.4923 24.4423 55.7871 25.1625 54.3254 25.1625C52.8637 25.1625 51.1584 24.4423 51.1584 22.5217C51.1584 21.3213 50.184 20.361 48.9659 20.361C47.7479 20.361 46.7734 21.3213 46.7734 22.5217C46.7734 26.3629 49.9404 29.4839 53.8382 29.4839C54.0818 29.4839 54.0818 29.4839 54.3254 29.4839C58.2232 29.7239 61.6337 26.8431 61.8773 23.2419C61.8773 23.0019 61.8773 23.0019 61.8773 22.7618C61.8773 21.5614 60.9029 20.6011 59.6848 20.361C59.6848 20.6011 59.6848 20.6011 59.6848 20.361ZM50.9148 20.361V9.55769C50.4276 10.0378 49.6968 10.518 48.7223 10.518C47.9915 10.518 47.017 10.2779 46.5298 9.55769V20.8412C47.017 20.361 47.7479 19.8809 48.7223 19.8809C49.6968 19.8809 50.4276 20.121 50.9148 20.361ZM84.5332 9.55769C85.7513 9.55769 86.7257 8.5974 86.7257 7.39703C86.7257 5.47643 88.431 4.75621 89.8927 4.75621C91.3543 4.75621 93.0596 5.47643 93.0596 7.39703C93.0596 8.5974 94.0341 9.55769 95.2521 9.55769C96.4702 9.55769 97.4446 8.5974 97.4446 7.39703C97.4446 3.55583 94.2777 0.434868 90.3799 0.434868C90.1363 0.434868 90.1363 0.434868 89.8927 0.434868H89.6491C85.7513 0.194794 82.3407 3.07569 82.0971 6.91688C82.0971 7.15695 82.0971 7.15695 82.0971 7.39703C82.3407 8.5974 83.3151 9.55769 84.5332 9.55769ZM86.2385 10.2779C85.5077 10.7581 84.5332 10.7581 83.8024 10.518L92.3288 22.0416C92.3288 21.0813 92.816 20.361 93.5468 19.8809C94.2777 19.4007 95.2521 19.4007 95.983 19.6408L87.4566 8.35732C87.4566 9.31762 86.9693 10.0378 86.2385 10.2779ZM95.4957 20.6011C94.2777 20.6011 93.3032 21.5614 93.3032 22.7618C93.3032 24.6824 91.598 25.4026 90.1363 25.4026C88.6746 25.4026 86.9693 24.6824 86.9693 22.7618C86.9693 21.5614 85.9949 20.6011 84.7768 20.6011C83.5588 20.6011 82.5843 21.5614 82.5843 22.7618C82.5843 26.603 85.7513 29.7239 89.6491 29.7239C89.8927 29.7239 89.8927 29.7239 90.1363 29.7239C94.0341 29.964 97.4446 27.0831 97.6882 23.2419C97.6882 23.0019 97.6882 23.0019 97.6882 22.7618C97.4446 21.5614 96.4702 20.6011 95.4957 20.6011ZM32.1567 20.6011C30.9387 20.6011 29.9642 21.5614 29.9642 22.7618C29.9642 24.6824 28.2589 25.4026 26.7973 25.4026C25.3356 25.4026 23.6303 24.6824 23.6303 22.7618C23.6303 21.5614 22.6559 20.6011 21.4378 20.6011C20.2198 20.6011 19.2453 21.5614 19.2453 22.7618C19.2453 26.603 22.4123 29.7239 26.31 29.7239C26.5537 29.7239 26.5537 29.7239 26.7973 29.7239C30.6951 29.964 34.1056 27.0831 34.3492 23.2419C34.3492 23.0019 34.3492 23.0019 34.3492 22.7618C34.1056 21.5614 33.3748 20.6011 32.1567 20.6011ZM32.1567 0.674941C30.9387 0.674941 29.9642 1.63524 29.9642 2.83561V20.6011C31.1823 19.4007 33.1312 19.4007 34.1056 20.6011V2.83561C34.3492 1.63524 33.3748 0.674941 32.1567 0.674941ZM23.3867 20.6011V2.83561C23.3867 1.63524 22.4123 0.674941 21.1942 0.674941C19.9761 0.674941 19.0017 1.63524 19.0017 2.83561V20.6011C19.4889 20.121 20.2198 19.6408 21.1942 19.6408C21.925 19.6408 22.8995 19.8809 23.3867 20.6011ZM42.632 10.7581V2.83561C42.632 1.63524 41.6576 0.674941 40.4395 0.674941C39.2215 0.674941 38.247 1.63524 38.247 2.83561V19.8809V27.5633C38.247 28.7636 39.2215 29.7239 40.4395 29.7239C41.6576 29.7239 42.632 28.7636 42.632 27.5633V19.4007V10.7581ZM122.78 10.7581V2.83561C122.78 1.63524 121.806 0.674941 120.588 0.674941C119.37 0.674941 118.395 1.63524 118.395 2.83561V19.8809V27.5633C118.395 28.7636 119.37 29.7239 120.588 29.7239C121.806 29.7239 122.78 28.7636 122.78 27.5633V19.4007V10.7581ZM130.576 13.879L129.845 12.1985L128.871 10.0378L126.434 5.23636V19.6408V27.3232C126.434 28.5236 127.409 29.4839 128.627 29.4839C129.845 29.4839 130.819 28.5236 130.819 27.3232V19.4007L130.576 13.879ZM138.859 18.4404L134.474 9.79777L133.499 7.6371L130.576 1.87531C130.089 0.915016 128.627 0.434868 127.652 0.915017C126.678 1.39517 126.191 2.83561 126.678 3.79591L129.601 9.55769L130.576 11.7184L134.961 20.6011L138.859 28.2835C139.346 29.2438 140.807 29.964 141.782 29.4839C142.756 29.0037 143.244 27.5633 142.756 26.3629L138.859 18.4404ZM143 19.6408V2.83561C143 1.63524 142.026 0.674941 140.807 0.674941C139.589 0.674941 138.615 1.63524 138.615 2.83561V16.7599L139.346 18.4404L142.756 25.4026V19.6408H143ZM68.4549 12.4386L64.8007 17.7202C64.3135 18.6805 64.5571 19.8809 65.5315 20.361C66.2623 21.0813 67.4804 20.8412 68.4549 20.121L72.3526 14.5993L76.494 8.5974L77.4685 7.15695L80.3918 3.07569C80.879 2.11539 80.6354 0.915017 79.661 0.434868C78.9301 -0.285355 77.7121 -0.0452817 76.7376 0.674941L73.8143 4.75621L72.8399 6.19665L68.4549 12.4386ZM78.1993 22.5217L75.276 17L74.5451 15.7996L73.5707 13.879L72.8399 15.0794L70.891 17.9603L71.3782 18.9206L74.3015 24.4423L76.7376 29.2438C77.4685 29.964 78.4429 30.2041 79.4174 29.4839C80.3918 29.0037 81.1227 28.0434 80.6354 27.3232L78.1993 22.5217ZM68.9421 10.518V2.59554C68.9421 1.39517 67.9676 0.434868 66.7496 0.434868C65.5315 0.434868 64.5571 1.39517 64.5571 2.59554V16.5199L67.724 11.9584L68.9421 10.518ZM65.0443 21.0813L64.5571 20.6011V27.5633C64.5571 28.7636 65.5315 29.7239 66.7496 29.7239C67.9676 29.7239 68.9421 28.7636 68.9421 27.5633V20.8412C68.4549 21.3213 67.724 21.5614 66.9932 21.5614C66.2623 21.5614 65.7751 21.3213 65.0443 21.0813ZM110.112 0.434868H107.189H102.56C101.342 0.434868 100.612 1.39517 100.612 2.59554C100.612 2.59554 100.612 2.59554 100.612 2.83561C100.368 4.03598 101.342 4.99628 102.317 4.99628C102.317 4.99628 102.317 4.99628 102.56 4.99628H109.625C111.087 5.23636 111.818 7.15695 111.818 9.07755V9.31762C111.818 11.2382 111.087 13.3989 109.625 13.639H102.56C101.342 13.639 100.612 14.5993 100.612 15.7996C100.612 15.7996 100.612 15.7996 100.612 16.0397C100.368 17.2401 101.342 18.2004 102.317 18.2004C102.317 18.2004 102.317 18.2004 102.56 18.2004H110.112C113.279 17.7202 115.472 14.3592 115.472 9.55769V9.31762C115.472 4.03598 113.279 0.915017 110.112 0.434868ZM104.997 18.4404H102.56C101.83 18.4404 101.099 18.2004 100.612 17.7202V19.8809V27.5633C100.612 28.7636 101.586 29.7239 102.804 29.7239C104.022 29.7239 104.997 28.7636 104.997 27.5633V19.4007V18.4404ZM104.997 12.1985V5.47643H102.56C101.83 5.47643 101.099 5.23635 100.612 4.75621V12.9187C101.099 12.4386 101.83 12.1985 102.56 12.1985H104.997Z" fill="#2A2D42"/>
</svg>
