<svg width="138" height="54" viewBox="0 0 138 54" fill="none" xmlns="http://www.w3.org/2000/svg">
<g clip-path="url(#clip0)">
<path d="M6.64197 54.0001C9.33175 54.0001 10.3177 52.5204 10.3177 51.0979C10.3177 47.4192 4.41836 48.6863 4.41836 46.4668C4.41836 45.5348 5.2847 44.8972 6.48108 44.8972C7.02008 44.8779 7.55697 44.9738 8.05526 45.1783C8.55355 45.3828 9.00157 45.6912 9.36888 46.0826L10.1156 45.1792C9.65863 44.717 9.10912 44.3545 8.50237 44.1152C7.89563 43.8758 7.24506 43.7649 6.59246 43.7895C4.6205 43.7895 3.15597 44.9135 3.15597 46.5404C3.15597 50.0638 9.05535 48.6413 9.05535 51.1879C9.05535 51.9563 8.48604 52.9046 6.7121 52.9046C6.11637 52.91 5.52654 52.7874 4.98317 52.5454C4.4398 52.3034 3.95578 51.9476 3.56439 51.5026L2.81769 52.4509C3.30492 52.9668 3.89887 53.3723 4.55892 53.6396C5.21897 53.907 5.92953 54.03 6.64197 54.0001Z" fill="#2A2D42"/>
<path d="M27.7271 53.8244V45.0486H30.8913V43.9531H23.3376V45.0486H26.4894V53.8244H27.7271Z" fill="#2A2D42"/>
<path d="M48.5482 54.0002C51.2503 54.0002 52.6241 52.4306 52.6241 49.974V43.9531H51.3865V49.9618C51.3865 51.7684 50.4005 52.9047 48.5647 52.9047C46.7288 52.9047 45.7552 51.7643 45.7552 49.9618V43.9531H44.5176V49.9904C44.4846 52.4183 45.8584 54.0002 48.5482 54.0002Z" fill="#2A2D42"/>
<path d="M70.3057 53.8244C73.4122 53.8244 75.413 51.7071 75.413 48.8949C75.413 46.0827 73.4122 43.9531 70.3057 43.9531H66.9022V53.8244H70.3057ZM70.3057 52.729H68.1399V45.0486H70.3057C72.781 45.0486 74.13 46.7653 74.13 48.8949C74.13 51.0245 72.7273 52.729 70.3057 52.729Z" fill="#2A2D42"/>
<path d="M90.5451 53.8244V43.9531H89.3074V53.8244H90.5451Z" fill="#2A2D42"/>
<path d="M109.361 53.9996C112.303 53.9996 114.312 51.8087 114.312 48.8944C114.312 45.98 112.294 43.7891 109.361 43.7891C106.428 43.7891 104.411 45.98 104.411 48.8944C104.411 51.8087 106.436 53.9996 109.361 53.9996ZM109.361 52.9042C107.121 52.9042 105.702 51.1874 105.702 48.8944C105.702 46.6013 107.121 44.8845 109.361 44.8845C111.601 44.8845 113.037 46.5972 113.037 48.8944C113.037 51.1915 111.585 52.9042 109.361 52.9042Z" fill="#2A2D42"/>
<path d="M131.42 54.0001C134.11 54.0001 135.096 52.5204 135.096 51.0979C135.096 47.4192 129.196 48.6863 129.196 46.4668C129.196 45.5348 130.063 44.8972 131.259 44.8972C131.798 44.8779 132.335 44.9738 132.833 45.1783C133.332 45.3828 133.78 45.6912 134.147 46.0826L134.894 45.1792C134.437 44.717 133.887 44.3545 133.28 44.1152C132.674 43.8758 132.023 43.7649 131.37 43.7895C129.398 43.7895 127.934 44.9135 127.934 46.5404C127.934 50.0638 133.833 48.6413 133.833 51.1879C133.833 51.9563 133.264 52.9046 131.49 52.9046C130.894 52.91 130.305 52.7874 129.761 52.5454C129.218 52.3034 128.734 51.9476 128.342 51.5026L127.596 52.4509C128.083 52.9668 128.677 53.3723 129.337 53.6396C129.997 53.907 130.707 54.03 131.42 54.0001Z" fill="#2A2D42"/>
<path fill-rule="evenodd" clip-rule="evenodd" d="M137.999 0.1635L114.105 0.110363L103.041 8.38347L102.876 8.54697L102.822 0.110363H85.4538V20.6623H60.2886V0H11.7199L7.40467 0.110363C5.93894 0.485073 4.57788 1.1838 3.42362 2.15411C1.83685 3.4094 0.69287 5.13106 0.156274 7.07138C-0.116005 8.15048 0.0448868 9.70373 0.0448868 10.9627V19.2358C0.0448868 24.3329 -0.289274 28.5062 1.8147 31.4983C2.99045 33.1783 4.72313 34.8378 6.90549 35.5C8.79081 36.0722 11.8313 35.7207 14.0961 35.7207H102.723V26.5238L114.117 35.6226H137.847L116.428 17.8665L137.888 0.1635H137.999ZM113.717 17.8133H113.606L132.909 33.7546L133.02 33.9181H114.823L100.994 22.8532V34.0898H14.3602C12.12 34.0898 9.1291 34.4331 7.34691 33.8159C5.72916 33.1837 4.34165 32.0825 3.36586 30.6563C1.42278 27.9095 1.87246 23.589 1.87246 18.9619V11.069C1.87246 9.81818 1.73219 8.29354 2.03747 7.28802C2.50027 5.92317 3.30758 4.69823 4.38271 3.72957C5.45784 2.7609 6.76508 2.08069 8.18025 1.75354L20.6267 1.7004H58.6261V22.3055H87.17V1.75354H101.11V12.0581L114.769 1.80668H133.131L113.717 17.8133Z" fill="#2A2D42"/>
<path fill-rule="evenodd" clip-rule="evenodd" d="M44.0762 3.72802V11.4003H21.2336C19.732 11.4003 14.6329 11.0937 14.043 11.7845C13.6305 12.2709 13.7006 13.3459 13.713 14.237H44.0267V21.758H13.6552C13.6552 22.5755 13.548 23.6669 13.9316 24.1165C14.5051 24.7868 19.6371 24.4435 21.1759 24.4435H44.0762V32.1157H16.7534C10.3425 32.1157 6.02729 32.8188 4.19559 28.0609C3.37051 25.9354 3.8078 22.2035 3.8078 19.4567C3.8078 13.4236 2.92083 7.55392 6.46458 4.87661C8.68819 3.19664 13.647 3.72393 17.529 3.72393L44.0762 3.72802Z" fill="#2A2D42"/>
<path fill-rule="evenodd" clip-rule="evenodd" d="M46.4565 3.72754H56.469V24.443H87.2241V32.1725H46.4565V3.72754Z" fill="#2A2D42"/>
<path fill-rule="evenodd" clip-rule="evenodd" d="M89.1094 3.8916H98.899L98.9527 15.6759L99.0641 15.5655L115.434 3.8916H127.398L110.483 17.7564L110.595 17.9199L127.686 32.0586H115.1L98.9485 18.6352H98.8949V32.0627H89.1094V3.8916Z" fill="#2A2D42"/>
</g>
<defs>
<clipPath id="clip0">
<rect width="138" height="54" fill="white"/>
</clipPath>
</defs>
</svg>
