<svg width="209" height="54" viewBox="0 0 209 54" fill="none" xmlns="http://www.w3.org/2000/svg">
<path d="M53.3951 0.37793C53.3951 2.15993 53.323 3.94193 53.1787 5.68793C53.0345 7.46993 52.8181 9.25193 52.5476 10.9979C52.2591 12.7979 51.8984 14.5619 51.4656 16.3079C51.0328 18.1079 50.5099 19.8719 49.9328 21.6179H15.0033C14.3 19.8899 13.6689 18.1259 13.146 16.3079H46.0918C46.5607 14.5619 46.9574 12.7979 47.264 10.9979C47.5705 9.25193 47.805 7.48793 47.9492 5.68793H5.75251C5.9148 7.48793 6.1312 9.25193 6.43775 10.9979C6.74431 12.7979 7.14103 14.5619 7.60989 16.3079C8.09677 18.1079 8.65579 19.8899 9.28693 21.6179C9.79185 22.9679 10.3328 24.2999 10.9279 25.6139C11.1263 26.0459 11.3246 26.4959 11.541 26.9279C12.4066 28.7459 13.3804 30.5279 14.4263 32.2379C15.0033 33.2099 15.6164 34.1459 16.2476 35.0639C16.8246 35.9099 17.4197 36.7379 18.0328 37.5479C18.4837 38.1419 18.9345 38.7179 19.4033 39.2939C20.0886 40.1399 20.8099 40.9859 21.5492 41.7959C21.8738 42.1559 22.2164 42.5159 22.5591 42.8759C22.6853 43.0019 22.8115 43.1459 22.9378 43.2719C24.182 44.5499 25.4804 45.7739 26.8328 46.9439C26.8509 46.9619 26.8689 46.9799 26.8689 46.9799V46.9079C28.2033 45.7559 29.4837 44.5499 30.7099 43.2899C30.8361 43.1639 30.9623 43.0199 31.0886 42.8939C31.4492 42.5159 31.8279 42.1199 32.1705 41.7239C32.8738 40.9499 33.5771 40.1399 34.2443 39.3299C34.7132 38.7539 35.182 38.1779 35.6148 37.5839C36.264 36.7379 36.8951 35.8739 37.4902 34.9739C38.0853 34.0919 38.6804 33.1919 39.2394 32.2739H20.7558C19.5837 30.5639 18.4837 28.7999 17.5099 26.9639H47.9132C47.1197 28.7819 46.2541 30.5459 45.3164 32.2739C44.541 33.6959 43.7295 35.0639 42.864 36.4139C42.6115 36.8099 42.3591 37.1879 42.1066 37.5839C40.9705 39.2759 39.7443 40.9139 38.464 42.4979C38.3558 42.6239 38.2476 42.7679 38.1394 42.8939C37.941 43.1279 37.7427 43.3619 37.5443 43.5959C36.6968 44.5859 35.8312 45.5579 34.9115 46.5119C34.3705 47.0879 33.7935 47.6639 33.2345 48.2219C32.8918 48.5459 32.5673 48.8699 32.2246 49.1759C31.8279 49.5539 31.4312 49.9139 31.0345 50.2739C29.7541 51.4079 28.4377 52.4879 27.0853 53.5319C27.0132 53.5859 26.941 53.6399 26.8689 53.6939C26.7968 53.6399 26.7246 53.5859 26.6525 53.5319C25.282 52.4879 23.9656 51.4079 22.7033 50.2739C22.3246 49.9499 21.964 49.6079 21.5853 49.2659C21.2066 48.9239 20.8459 48.5819 20.4853 48.2219C19.9082 47.6639 19.3492 47.0879 18.7902 46.5119C17.9246 45.5939 17.0771 44.6579 16.2476 43.7039C16.0132 43.4339 15.7968 43.1639 15.5623 42.8939C15.4541 42.7679 15.346 42.6239 15.2378 42.4979C13.9574 40.9139 12.7312 39.2759 11.5951 37.5839C11.3607 37.2419 11.1443 36.8999 10.9099 36.5579C10.0082 35.1719 9.1607 33.7319 8.36726 32.2739C7.42956 30.5459 6.56398 28.7819 5.77054 26.9639C5.71644 26.8199 5.64431 26.6939 5.59021 26.5499C4.90497 24.9479 4.29185 23.3099 3.73284 21.6539C3.15579 19.9079 2.63284 18.1439 2.20005 16.3439C1.76726 14.5979 1.40661 12.8339 1.11808 11.0339C0.847591 9.28793 0.631197 7.50593 0.486935 5.72393C0.360705 3.92393 0.288574 2.15993 0.288574 0.37793H53.3951Z" fill="#2A2D42"/>
<path d="M72.7263 15.3184C74.1689 15.3184 75.3771 15.8044 76.3689 16.7764C77.3607 17.7484 77.8476 18.9364 77.8476 20.3404C77.8476 21.7444 77.3607 22.9504 76.3689 23.9044C75.3771 24.8764 74.1689 25.3624 72.7263 25.3624H70.0935V30.2764H67.1361V15.3184H72.7263ZM72.7263 22.6084C73.3574 22.6084 73.8804 22.3924 74.2951 21.9604C74.7099 21.5284 74.9082 20.9884 74.9082 20.3404C74.9082 19.6924 74.7099 19.1344 74.2951 18.7204C73.8804 18.2884 73.3574 18.0724 72.7263 18.0724H70.0935V22.6084H72.7263Z" fill="#2A2D42"/>
<path d="M85.3673 30.5823C83.6902 30.5823 82.3197 30.1144 81.2558 29.1784C80.1919 28.2424 79.6509 26.9824 79.6509 25.3984V15.3184H82.5902V25.1464C82.5902 25.9384 82.8066 26.5504 83.2574 27.0004C83.7083 27.4504 84.4115 27.6844 85.3673 27.6844C86.323 27.6844 87.0263 27.4504 87.4771 27.0004C87.9279 26.5504 88.1443 25.9204 88.1443 25.1464V15.3184H91.1017V25.3804C91.1017 26.9644 90.5607 28.2244 89.4968 29.1604C88.4328 30.1144 87.0443 30.5823 85.3673 30.5823Z" fill="#2A2D42"/>
<path d="M98.8919 30.5817C97.4132 30.5817 96.1509 30.2577 95.1411 29.5917C94.1312 28.9257 93.4099 28.0257 92.9952 26.8917L95.5198 25.4157C96.0968 26.9457 97.2509 27.7017 98.964 27.7017C99.7935 27.7017 100.407 27.5577 100.785 27.2517C101.164 26.9457 101.362 26.5677 101.362 26.1177C101.362 25.5957 101.128 25.1817 100.659 24.8937C100.19 24.6057 99.3427 24.2817 98.1345 23.9397C97.4673 23.7417 96.8903 23.5437 96.4394 23.3457C95.9706 23.1477 95.5198 22.8777 95.0509 22.5357C94.5821 22.1937 94.2394 21.7797 93.987 21.2577C93.7526 20.7357 93.6263 20.1417 93.6263 19.4577C93.6263 18.1077 94.1132 17.0277 95.0689 16.2177C96.0247 15.4077 97.1968 15.0117 98.5493 15.0117C99.7575 15.0117 100.821 15.2997 101.759 15.8937C102.679 16.4877 103.4 17.3157 103.905 18.3597L101.416 19.7997C100.821 18.5217 99.8657 17.8737 98.5493 17.8737C97.9362 17.8737 97.4493 18.0177 97.1067 18.2877C96.764 18.5577 96.5837 18.9177 96.5837 19.3677C96.5837 19.8357 96.7821 20.2137 97.1788 20.5197C97.5755 20.8077 98.3329 21.1317 99.4329 21.4737C99.8837 21.6177 100.244 21.7257 100.479 21.7977C100.713 21.8697 101.038 21.9957 101.435 22.1577C101.849 22.3197 102.156 22.4817 102.372 22.6257C102.589 22.7697 102.841 22.9677 103.13 23.2017C103.418 23.4357 103.635 23.6877 103.779 23.9577C103.923 24.2097 104.049 24.5157 104.157 24.8937C104.266 25.2537 104.32 25.6497 104.32 26.0817C104.32 27.4677 103.815 28.5657 102.805 29.3757C101.813 30.1677 100.497 30.5817 98.8919 30.5817Z" fill="#2A2D42"/>
<path d="M114.671 15.3184H117.61V30.2764H114.671V24.0844H109.098V30.2764H106.141V15.3184H109.098V21.2584H114.671V15.3184Z" fill="#2A2D42"/>
<path d="M140.457 22.2477V23.3997C140.457 25.5417 139.772 27.2697 138.402 28.6017C137.031 29.9337 135.264 30.5817 133.082 30.5817C130.774 30.5817 128.844 29.8257 127.33 28.3317C125.815 26.8197 125.057 25.0017 125.057 22.8237C125.057 20.6457 125.815 18.7917 127.312 17.2797C128.826 15.7677 130.684 15.0117 132.92 15.0117C134.326 15.0117 135.589 15.3357 136.761 15.9657C137.915 16.5957 138.816 17.4417 139.466 18.5037L136.941 19.9617C136.58 19.3497 136.039 18.8457 135.318 18.4677C134.597 18.0897 133.785 17.8917 132.902 17.8917C131.477 17.8917 130.305 18.3597 129.385 19.2957C128.466 20.2317 127.997 21.4017 127.997 22.8417C127.997 24.2457 128.466 25.4157 129.403 26.3337C130.341 27.2517 131.585 27.7197 133.118 27.7197C134.254 27.7197 135.21 27.4677 135.949 26.9637C136.707 26.4597 137.212 25.7577 137.482 24.8757H132.938V22.2657H140.457V22.2477Z" fill="#2A2D42"/>
<path d="M151.872 30.2764L150.916 27.5764H144.749L143.848 30.2764H140.656L145.903 15.3184H149.564L154.848 30.2764H151.872ZM145.723 24.8224H149.943L147.779 18.7024L145.723 24.8224Z" fill="#2A2D42"/>
<path d="M171.005 15.3184V30.2764H168.066V20.5744L163.828 27.5224H163.485L159.284 20.6104V30.2764H156.326V15.3184H159.374L163.666 22.3744L167.939 15.3184H171.005Z" fill="#2A2D42"/>
<path d="M176.739 15.3184H173.782V30.2764H176.739V15.3184Z" fill="#2A2D42"/>
<path d="M188.19 15.3184H191.148V30.2764H188.912L182.474 21.1324V30.2764H179.516V15.3184H181.771L188.19 24.4264V15.3184Z" fill="#2A2D42"/>
<path d="M208.657 22.2477V23.3997C208.657 25.5417 207.972 27.2697 206.602 28.6017C205.231 29.9337 203.464 30.5817 201.282 30.5817C198.974 30.5817 197.044 29.8257 195.53 28.3317C194.015 26.8197 193.257 25.0017 193.257 22.8237C193.257 20.6457 194.015 18.7917 195.512 17.2797C197.026 15.7677 198.884 15.0117 201.12 15.0117C202.526 15.0117 203.789 15.3357 204.961 15.9657C206.115 16.5957 207.016 17.4417 207.666 18.5037L205.141 19.9617C204.78 19.3497 204.239 18.8457 203.518 18.4677C202.797 18.0897 201.985 17.8917 201.102 17.8917C199.677 17.8917 198.505 18.3597 197.585 19.2957C196.666 20.2317 196.197 21.4017 196.197 22.8417C196.197 24.2457 196.666 25.4157 197.603 26.3337C198.541 27.2517 199.785 27.7197 201.318 27.7197C202.454 27.7197 203.41 27.4677 204.149 26.9637C204.907 26.4597 205.412 25.7577 205.682 24.8757H201.138V22.2657H208.657V22.2477Z" fill="#2A2D42"/>
</svg>
