<svg width="90" height="54" viewBox="0 0 90 54" xmlns="http://www.w3.org/2000/svg">
<g clip-path="url(#clip0)">
<path  clip-rule="evenodd" d="M38.7847 27.1337H43.3292C43.4629 25.797 43.1955 24.7277 41.8589 24.4604C39.9876 24.1931 39.052 25.396 38.7847 27.1337ZM57.0965 24.7277H56.9629C55.4926 24.5941 53.8886 24.0594 52.552 24.8614C51.75 25.396 51.8837 26.0644 52.552 26.7327C53.8886 27.5347 55.0916 27.2673 56.2946 28.604C58.1658 31.2772 56.4282 34.3515 53.6213 35.2871C51.6163 35.6881 48.4084 35.5545 46.4035 34.8861L46.9381 32.0792C48.6757 32.4802 49.745 32.7475 51.4827 32.6139C53.2203 32.3465 53.6213 30.7426 51.75 29.9406C50.2797 29.4059 49.2104 29.005 48.4084 27.802C47.7401 26.3317 48.0074 24.1931 48.9431 22.9901C50.8144 21.1188 55.0916 21.3861 57.4975 21.7871H57.6312H57.7648L57.0965 24.7277ZM62.9777 0C77.948 0 89.9777 12.0297 89.9777 27C89.9777 41.9703 77.948 54 62.9777 54C50.547 54 40.1213 45.7129 36.9134 34.2178C39.3193 35.6881 43.0619 36.0891 45.6015 34.7525L46.1361 31.6782C43.7302 33.0149 38.1163 33.2822 38.25 29.8069V29.5396H46.5371C47.3391 24.9951 46.9381 21.9208 41.8589 21.5198C40.1213 21.5198 38.651 21.7871 37.1807 22.8564L36.9134 23.1238L36.646 23.3911L36.3787 23.6584C36.3787 23.7921 36.2451 23.9257 36.1114 24.0594C37.5817 10.5594 49.0767 0 62.9777 0ZM64.5817 35.4208H68.1906L69.3936 28.203C69.5272 27.6683 69.6609 27.1337 69.9282 26.599C70.5965 25.5297 72.0668 25.1287 73.2698 25.2624H73.4035V25.1287L73.5371 24.8614V24.5941L73.6708 24.1931C73.8044 23.6584 73.9381 23.1238 74.2054 22.7228L74.3391 22.4554L74.4728 22.1881V22.0545L74.6064 21.9208L74.7401 21.7871H74.6064V21.6535C72.7351 21.3861 71.3985 22.4554 70.3292 23.9257L70.5965 21.7871H66.9876L64.5817 35.4208ZM84.6312 22.9901C87.3044 25.1287 87.5718 29.1386 86.1015 32.0792C83.6955 36.8911 75.6757 37.0248 73.4035 32.0792C72.0668 28.4703 73.2698 23.7921 77.0124 22.1881C79.4183 21.2525 82.4926 21.3861 84.6312 22.9901ZM77.4134 30.3416C78.0817 32.8812 80.8886 32.4802 82.0916 30.3416C82.4926 29.1386 82.7599 27.802 82.6262 26.4653C81.9579 23.7921 79.151 24.3267 77.948 26.4653C77.4134 27.6683 77.146 29.005 77.4134 30.3416ZM60.0371 18.7129H63.646L62.9777 21.7871H65.25L64.7153 24.7277L62.4431 24.5941L61.2401 31.6782C61.2401 32.3465 61.3738 32.4802 61.9084 32.6139C62.5767 32.7475 63.3787 32.7475 63.9134 32.4802H64.047L63.646 34.8861C62.5767 35.5545 60.7054 35.5545 59.5025 35.4208C57.7648 35.0198 57.3639 34.3515 57.6312 32.6139L60.0371 18.7129ZM85.5668 34.7525H86.6361V34.8861H86.2351V35.8218H85.9678V34.8861H85.5668V34.7525ZM86.7698 34.7525H87.0371L87.4381 35.5545L87.8391 34.7525H88.1064V35.8218H87.8391V35.0198L87.5718 35.8218H87.3044L87.0371 35.0198V35.8218H86.7698V34.7525Z" />
<path  clip-rule="evenodd" d="M27.0223 0C34.9084 0 41.9926 3.34158 46.9381 8.68812H42.9282L41.7252 10.2921H48.2747C48.6757 10.8267 49.0767 11.3614 49.4777 11.896H40.5223L39.453 13.5H50.4134C50.6807 14.0347 51.0817 14.5693 51.349 15.2376H38.651L37.849 16.7079H52.0173C52.2846 17.2426 52.4183 17.7772 52.6856 18.4455H37.3144L36.9134 19.9158H53.0866C53.2203 20.4505 53.354 20.9851 53.4876 21.5198C53.0866 21.5198 52.6856 21.5198 52.151 21.6535H42.3936C42.2599 21.6535 42.1262 21.5198 41.8589 21.5198C41.4579 21.5198 41.1906 21.5198 40.7896 21.6535H36.3787L36.1114 23.1238H36.9134L36.646 23.3911L36.3787 23.6584C34.3738 26.0644 33.7054 30.3416 35.5767 33.0149C35.9777 33.5495 36.5124 33.9505 37.047 34.3515L37.448 35.4208H40.5223C41.4579 35.5545 42.3936 35.5545 43.3292 35.4208H49.6114C50.2797 35.5545 51.0817 35.5545 51.75 35.4208H52.6856C52.4183 36.0891 52.2846 36.7574 52.0173 37.2921H37.9827L38.7847 38.7624H51.349C50.948 39.4307 50.6807 40.099 50.2797 40.6337H39.7203L40.6559 42.2376H49.3441C48.9431 42.7723 48.5421 43.4406 48.0074 43.9753H41.8589L43.0619 45.4455H46.8045C41.8589 50.6584 34.7747 54 27.0223 54C12.052 54 0.0222778 41.9703 0.0222778 27C0.0222778 12.0297 12.052 0 27.0223 0ZM45.8688 23.1238H48.9431C48.5421 23.5248 48.2747 24.1931 48.1411 24.7277H46.6708C46.5371 24.0594 46.2698 23.5248 45.8688 23.1238ZM53.8886 24.4604C53.8886 24.5941 53.8886 24.5941 53.8886 24.7277H52.6856C53.0866 24.5941 53.4876 24.4604 53.8886 24.4604ZM42.5272 24.7277H40.1213C40.5223 24.4604 41.1906 24.3267 41.8589 24.4604C42.1262 24.4604 42.3936 24.5941 42.5272 24.7277ZM38.9183 26.198H43.3292C43.3292 26.4653 43.3292 26.8663 43.3292 27.1337H38.7847C38.7847 26.8663 38.9183 26.4653 38.9183 26.198ZM46.8045 26.198H48.0074C48.0074 26.7327 48.1411 27.2673 48.4084 27.802H46.8045C46.8045 27.2673 46.8045 26.7327 46.8045 26.198ZM52.151 26.198H54.0223C54.0223 26.4653 54.0223 26.7327 54.0223 27C54.0223 27.1337 54.0223 27.2673 54.0223 27.2673C53.6213 27.1337 53.0866 27 52.552 26.7327C52.4183 26.599 52.2846 26.4653 52.151 26.198ZM46.5371 29.2723H50.2797C50.6807 29.5396 51.2153 29.6733 51.75 29.9406C52.2846 30.2079 52.6856 30.4752 52.8193 30.8762H38.3837C38.25 30.4752 38.25 30.2079 38.25 29.8069V29.5396H46.5371C46.5371 29.5396 46.5371 29.4059 46.5371 29.2723ZM40.2549 32.3465H44.1312C42.9282 32.6139 41.3243 32.7475 40.2549 32.3465ZM46.0025 32.3465H46.8045L46.5371 33.9505H45.7351L46.0025 32.3465ZM48.1411 32.3465H52.4183C52.151 32.4802 51.8837 32.6139 51.4827 32.6139C50.2797 32.7475 49.3441 32.6139 48.1411 32.3465ZM33.3045 32.6139L32.7698 35.4208H29.5619L29.6955 35.1535V34.8861V34.7525V34.4851L29.8292 34.3515V34.0842V33.9505L29.6955 34.2178C27.9579 35.8218 25.0173 36.2228 23.0124 34.7525C20.7401 32.6139 21.8094 29.2723 24.2153 27.6683L24.6163 27.5347C26.4876 26.7327 28.6262 26.8663 30.6312 26.8663L30.7649 26.7327C31.0322 25.5297 30.3639 24.7277 29.1609 24.5941C27.9579 24.5941 24.75 24.7277 23.8144 25.2624L24.75 22.3218C26.354 21.5198 29.2946 21.5198 31.1658 21.7871C33.3045 22.3218 35.0421 23.3911 34.6411 25.9307L33.3045 32.6139ZM30.2302 29.2723C30.2302 29.1386 30.2302 29.1386 29.9629 29.1386C28.8936 29.005 27.4233 29.2723 26.4876 29.9406C25.552 30.7426 25.2847 32.3465 26.6213 32.6139C27.8243 32.7475 29.0272 32.4802 29.6955 31.4109C30.0965 30.7426 30.0965 30.0743 30.2302 29.2723ZM6.43812 35.4208H2.96287L5.90347 18.7129H12.052L12.5866 28.7376L16.7302 18.7129H23.0124L20.0718 35.4208H16.5965L18.7351 22.9901H18.6015L13.5223 35.4208H9.51238C9.24505 31.2772 9.11139 27.1337 8.84406 22.9901H8.7104L6.43812 35.4208Z" />
</g>
<defs>
<clipPath id="clip0">
<rect width="90" height="54" />
</clipPath>
</defs>
</svg>
