<svg width="176" height="54" viewBox="0 0 176 54"  xmlns="http://www.w3.org/2000/svg">
<g clip-path="url(#clip0)">
<path clip-rule="evenodd" d="M62.1177 53.3527L70.9481 0.953125H85.2596L76.4291 53.3527H62.1177Z" />
<path clip-rule="evenodd" d="M127.889 2.1716C125.149 1.25766 120.886 0.0390625 115.1 0.0390625C101.093 0.0390625 91.3495 7.04598 91.045 17.404C91.045 24.7156 98.353 28.9807 103.529 31.4179C109.315 34.1597 111.142 35.683 111.142 38.1202C111.142 41.4713 106.574 42.9945 102.616 42.9945C96.8305 42.9945 93.7855 42.3852 89.218 40.2527L87.0865 39.6434L85.2595 51.22C88.609 52.7433 94.699 53.9619 101.093 53.9619C116.014 53.9619 125.758 46.955 126.062 36.2923C126.062 30.1993 122.104 25.6296 113.882 21.9738C109.01 19.5366 105.965 18.0133 105.965 15.5761C105.965 13.4436 108.706 11.0064 114.187 11.0064C118.754 11.0064 122.104 11.9204 124.844 12.8343L126.062 13.4436L127.889 2.1716Z" />
<path clip-rule="evenodd" d="M164.734 0.953125H153.467C150.118 0.953125 147.682 1.86707 146.159 5.21821L124.844 53.3527H139.765C139.765 53.3527 142.201 46.9551 142.81 45.4318C144.637 45.4318 158.948 45.4318 161.08 45.4318C161.689 47.2597 162.907 53.3527 162.907 53.3527H176L164.734 0.953125ZM147.073 34.7691C148.291 31.7226 152.554 20.146 152.554 20.146C152.554 20.146 153.772 17.0995 154.685 14.967L155.599 19.5367C155.599 19.5367 158.339 32.0273 158.948 34.7691H147.073Z" />
<path  clip-rule="evenodd" d="M49.9377 0.953125L36.2353 36.597L34.7128 29.2855C31.9723 21.0599 24.0554 11.9205 14.9204 7.35075L27.7093 53.3527H42.6298L65.1626 0.953125H49.9377Z" />
<path clip-rule="evenodd" d="M23.1419 0.953125H0.304498L0 2.17172C17.9654 6.4368 29.8408 16.7949 34.7128 29.2855L29.5363 5.52286C28.9273 2.17172 26.1869 0.953125 23.1419 0.953125Z" />
</g>
<defs>
<clipPath id="clip0">
<rect width="176" height="54" />
</clipPath>
</defs>
</svg>
