<svg width="90" height="54" viewBox="0 0 90 54" xmlns="http://www.w3.org/2000/svg">
<g clip-path="url(#clip0)">
<path clip-rule="evenodd" d="M63.0314 53.9655H64.4425L65.6969 53.8082L67.108 53.651L68.3624 53.4938L69.7735 53.1793L71.0279 52.8648L72.2822 52.3931L73.5366 51.9214L74.6341 51.2925L75.8885 50.8208L76.9861 50.0347L78.0836 49.4057L79.1812 48.6196L80.1219 47.8334L81.0627 47.0473L82.0035 46.1039L82.9442 45.1605L83.7282 44.2171L84.669 43.1165L85.2962 42.1731L86.0801 41.0725L86.7073 39.8146L87.3345 38.714L87.8049 37.4562L88.2753 36.1983L88.7456 34.9405L89.0592 33.6826L89.3728 32.4248L89.6864 31.1669L89.8432 29.7519V28.3368L90 26.9217L89.8432 25.6638V24.2488L89.6864 22.8337L89.3728 21.5758L89.0592 20.318L88.7456 19.0601L88.2753 17.8023L87.8049 16.5444L87.3345 15.2866L86.7073 14.186L86.0801 13.0853L85.2962 11.9847L84.669 10.8841L83.7282 9.78349L82.9442 8.8401L82.0035 7.89672L81.0627 7.11056L80.1219 6.16717L79.1812 5.38102L78.0836 4.59486L76.9861 3.96594L75.8885 3.33701L74.6341 2.70809L73.5366 2.07916L72.2822 1.60747L71.0279 1.29301L69.7735 0.821312L68.3624 0.50685L67.108 0.349619L65.6969 0.192387L64.4425 0.0351562H63.0314H61.6202L60.2091 0.192387L58.9547 0.349619L57.5436 0.50685L56.2892 0.821312L55.0348 1.29301L53.7805 1.60747L52.5261 2.07916L51.2718 2.70809L50.1742 3.33701L49.0767 3.96594L47.9791 4.59486L46.8815 5.38102L45.9408 6.16717L44.8432 7.11056L43.9024 7.89672L43.1185 8.8401L42.1777 9.78349L41.3937 10.8841L40.7665 11.9847L39.9826 13.0853L39.3554 14.186L38.7282 15.2866L38.2578 16.5444L37.7875 17.8023L37.3171 19.0601L37.0035 20.318L36.6899 21.5758L36.5331 21.8903H36.8467L36.5331 24.0915H37.9442L37.6307 26.1355H36.0627V26.9217L36.2195 28.3368V29.7519L36.3763 31.1669L36.5331 31.7959H36.6899H36.8467H37.0035H37.1603V31.6386L36.8467 33.3682L37.0035 33.6826L37.3171 34.9405L37.7875 36.1983L38.2578 37.4562L38.7282 38.714L39.3554 39.8146L39.9826 41.0725L40.7665 42.1731L41.3937 43.1165L42.1777 44.2171L43.1185 45.1605L43.9024 46.1039L44.8432 47.0473L45.9408 47.8334L46.8815 48.6196L47.9791 49.4057L49.0767 50.0347L50.1742 50.8208L51.2718 51.2925L52.5261 51.9214L53.7805 52.3931L55.0348 52.8648L56.2892 53.1793L57.5436 53.4938L58.9547 53.651L60.2091 53.8082L61.6202 53.9655H63.0314ZM39.9826 29.5946V29.7519V29.9091V30.0663V30.2235L40.1394 30.3808V30.538L40.2962 30.6952V30.8525L40.453 31.0097L40.6098 31.1669L40.7665 31.3242L40.9233 31.4814H41.0801L41.2369 31.6386H41.3937H41.7073L41.8641 31.7959H42.1777H42.3345H42.6481H42.8049H43.1185H43.2753H43.5888H43.7456L44.0592 31.6386H44.216H44.5296L44.8432 31.4814L45 31.3242L45.3136 31.1669L45.6272 31.0097L45.1568 33.3682H45H44.8432V33.5254H44.6864H44.5296L44.3728 33.6826H44.216H44.0592H43.9024H43.7456L43.5888 33.8399H43.2753H43.1185H42.8049H42.4913H42.1777H41.8641L41.3937 33.6826H40.9233L40.453 33.5254L39.9826 33.3682L39.5122 33.2109L39.1986 33.0537L38.7282 32.7392L38.4146 32.4248L38.101 32.1103L37.7875 31.6386L37.6307 31.1669L37.4739 30.6952L37.3171 30.0663V29.4374V28.6512L37.4739 28.3368V28.0223L37.6307 27.7078V27.2362L37.7875 26.9217L37.9442 26.45L38.101 26.1355L38.4146 25.6638L38.7282 25.3494L39.0418 25.0349L39.5122 24.7205L39.9826 24.406L40.453 24.2488L41.0801 23.9343H41.7073H42.4913H42.8049H43.1185H43.5888L43.9024 24.0915L44.216 24.2488L44.6864 24.406L45 24.5632L45.3136 24.8777L45.4704 25.1921L45.784 25.5066L45.9408 25.9783L46.0976 26.45V26.9217V27.5506V28.3368L45.9408 28.9657V29.5946L39.9826 29.7519L40.2962 27.8651H43.5888L43.7456 27.5506L43.5888 27.3934V27.0789V26.9217V26.7645L43.4321 26.6072V26.45H43.2753L43.1185 26.2928V26.1355H42.9617L42.8049 25.9783H42.6481H42.4913H42.3345L42.1777 25.8211H42.0209L41.8641 25.9783H41.7073H41.5505L41.3937 26.1355H41.2369L41.0801 26.2928V26.45H40.9233L40.7665 26.6072L40.6098 26.7645V26.9217L40.453 27.0789V27.2362V27.3934L40.2962 27.7078L39.9826 29.5946ZM45.784 33.8399H48.4495L49.3902 28.6512V28.494V28.1795V28.0223L49.547 27.8651V27.7078L49.7038 27.5506V27.3934L49.8606 27.2362L50.0174 27.0789L50.1742 26.9217L50.4878 26.7645H50.6446L50.9582 26.6072H51.115L51.4286 26.45H51.899H52.0557H52.2125V26.1355V25.9783V25.8211L52.3693 25.5066V25.1921L52.5261 25.0349V24.8777L52.6829 24.7205L52.8397 24.5632V24.406L52.9965 24.2488V24.0915V23.9343H52.8397H52.6829H52.3693H52.0557L51.899 24.0915H51.5854L51.4286 24.2488H51.2718L51.115 24.406H50.9582L50.8014 24.5632L50.6446 24.7205L50.4878 24.8777L50.331 25.0349L50.1742 25.1921L50.0174 25.3494V25.5066L49.8606 25.6638L50.1742 24.0915H47.5087L45.784 33.8399ZM84.0418 33.8399H81.5331L81.6899 32.7392L81.5331 32.8965L81.3763 33.0537L81.2195 33.2109L81.0627 33.3682H80.9059L80.7491 33.5254L80.5923 33.6826H80.4355L80.2787 33.8399H80.1219H79.8084H79.6516H79.4948L79.338 33.9971H79.1812H79.0244L78.554 33.8399H78.0836L77.6132 33.6826L77.2996 33.3682L76.9861 33.2109L76.6725 32.8965L76.5157 32.582L76.2021 32.1103L76.0453 31.7959L75.8885 31.3242L75.7317 30.8525V30.3808V29.9091V29.4374V28.9657L75.8885 28.494V28.0223L76.2021 27.5506L76.3589 27.0789L76.5157 26.6072L76.8293 26.1355L76.9861 25.8211L77.2996 25.5066L77.6132 25.1921L77.9268 24.8777L78.2404 24.7205L78.7108 24.5632L79.0244 24.406L79.338 24.2488L79.6516 24.0915H80.1219H80.4355H80.7491H80.9059H81.2195L81.3763 24.2488H81.6899L81.8467 24.406H82.0035L82.1603 24.5632L82.3171 24.7205H82.4739V24.8777L82.6307 25.0349L82.7875 25.1921L82.9442 25.3494V25.5066L83.5714 21.8903H86.0801L84.0418 33.8399ZM79.9652 31.6386H80.1219L80.4355 31.4814H80.5923L80.7491 31.3242H81.0627L81.2195 31.1669L81.3763 31.0097L81.5331 30.8525L81.6899 30.6952L81.8467 30.3808V30.2235L82.0035 30.0663L82.1603 29.7519V29.5946V29.2802L82.3171 28.9657V28.8085V28.494V28.3368V28.0223V27.7078V27.5506L82.1603 27.3934V27.0789L82.0035 26.9217V26.7645L81.8467 26.6072L81.6899 26.45H81.5331L81.3763 26.2928H81.2195H81.0627H80.7491H80.5923L80.2787 26.45H80.1219L79.9652 26.6072L79.8084 26.7645L79.6516 26.9217L79.4948 27.0789L79.338 27.2362L79.1812 27.3934L79.0244 27.7078V27.8651L78.8676 28.1795V28.494L78.7108 28.6512V28.9657L78.554 29.2802L78.7108 29.7519V30.2235L78.8676 30.6952L79.0244 31.0097L79.1812 31.3242L79.4948 31.4814L79.9652 31.6386ZM69.9303 33.8399H72.439L73.3798 28.6512V28.494V28.1795L73.5366 28.0223V27.8651L73.6934 27.5506L73.8502 27.3934V27.2362L74.007 27.0789L74.1638 26.9217L74.3206 26.7645L74.6341 26.6072H74.7909L75.1045 26.45L75.4181 26.2928H75.7317H76.0453H76.2021H76.3589L76.6725 23.9343H76.5157H76.2021L75.8885 24.0915H75.7317L75.5749 24.2488H75.4181L75.1045 24.406H74.9477L74.7909 24.5632L74.6341 24.7205L74.4773 24.8777L74.3206 25.0349V25.1921L74.1638 25.3494L74.007 25.5066L73.8502 25.6638L74.1638 24.0915H71.655L69.9303 33.8399ZM69.1463 31.7959L68.8327 33.8399H66.4808L66.6376 33.3682V33.0537V32.8965V32.7392L66.4808 32.8965L66.324 33.0537L66.1672 33.2109H66.0105L65.8537 33.3682L65.5401 33.5254L65.3833 33.6826H65.0697L64.9129 33.8399H64.5993H64.4425L64.1289 33.9971H63.8153H63.6585H63.3449L63.1882 33.8399H62.7178L62.561 33.6826H62.2474L61.9338 33.5254L61.777 33.3682L61.6202 33.2109L61.4634 33.0537L61.3066 32.7392V32.582L61.1498 32.4248V32.2675L60.993 31.9531V31.7959V31.6386V31.3242V31.1669V30.8525V30.538L61.1498 30.2235L61.3066 29.9091V29.5946L61.6202 29.2802L61.777 29.1229L61.9338 28.8085L62.2474 28.6512L62.4042 28.494L62.7178 28.3368L63.0314 28.1795L63.1882 28.0223L63.5017 27.8651H63.8153L64.1289 27.7078H64.2857H64.4425H64.5993H64.7561H64.9129H65.0697L65.2265 27.5506H65.3833H65.5401H65.6969H65.8537H66.0105H66.324H66.4808H66.6376H66.9512H67.108H67.2648L67.4216 27.3934V27.2362V27.0789V26.7645L67.2648 26.6072L67.108 26.45V26.2928H66.9512L66.6376 26.1355H66.4808H66.324H66.0105L65.6969 25.9783H65.5401L65.2265 26.1355H64.9129H64.5993H64.2857H63.9721H63.8153L63.5017 26.2928H63.1882H63.0314L62.8746 26.45H62.7178H62.561L62.4042 26.6072L63.0314 24.406L63.3449 24.2488H63.5017L63.6585 24.0915H63.9721H64.1289H64.2857L64.5993 23.9343H64.9129H65.0697H65.3833H65.6969H65.8537H66.1672H66.4808H66.7944H67.108H67.4216L67.5784 24.0915H67.892H68.2056L68.5192 24.2488L68.8327 24.406L68.9895 24.5632L69.3031 24.7205L69.4599 24.8777L69.7735 25.1921L69.9303 25.3494L70.0871 25.6638V25.9783L70.2439 26.2928V26.6072L70.0871 26.9217L69.1463 31.7959ZM66.9512 29.4374V29.2802H66.7944H66.6376H66.4808H66.324H66.1672H66.0105H65.8537H65.6969H65.5401V29.4374H65.3833H65.2265H65.0697H64.9129L64.7561 29.5946L64.5993 29.7519H64.4425L64.2857 29.9091L64.1289 30.0663L63.9721 30.2235L63.8153 30.3808V30.538V30.6952V31.0097V31.3242L63.9721 31.4814V31.6386H64.1289L64.2857 31.7959H64.4425H64.5993H64.9129H65.2265L65.3833 31.6386H65.5401H65.8537L66.0105 31.4814L66.1672 31.3242H66.324L66.4808 31.1669V31.0097H66.6376V30.8525L66.7944 30.6952V30.538V30.3808L66.9512 30.2235V29.9091V29.5946V29.4374ZM86.3937 33.3682V31.9531H87.0209C87.0209 31.9531 87.1777 31.9531 87.3345 31.9531C87.3345 31.9531 87.3345 31.9531 87.4913 32.1103V32.2675C87.4913 32.4248 87.4913 32.4248 87.3345 32.582L87.1777 32.7392C87.1777 32.7392 87.1777 32.7392 87.3345 32.7392C87.3345 32.8965 87.3345 32.8965 87.4913 33.0537L87.6481 33.3682H87.3345L87.0209 33.0537C87.0209 32.8965 87.0209 32.8965 86.8641 32.7392H86.7073V33.3682H86.3937ZM86.7073 32.582H86.8641C87.0209 32.582 87.0209 32.4248 87.0209 32.4248C87.1777 32.4248 87.1777 32.4248 87.1777 32.4248C87.1777 32.4248 87.1777 32.4248 87.1777 32.2675C87.1777 32.1103 87.1777 32.1103 87.0209 32.1103C87.0209 32.1103 87.0209 32.1103 86.8641 32.1103H86.7073V32.582ZM87.0209 31.3242C87.3345 31.3242 87.6481 31.4814 87.9617 31.6386C88.1185 31.9531 88.2753 32.2675 88.2753 32.582C88.2753 32.8965 88.1185 33.3682 87.9617 33.5254C87.6481 33.8399 87.3345 33.8399 87.0209 33.8399C86.5505 33.8399 86.2369 33.8399 86.0801 33.5254C85.7665 33.3682 85.7665 32.8965 85.7665 32.582C85.7665 32.2675 85.7665 31.9531 86.0801 31.6386C86.2369 31.4814 86.5505 31.3242 87.0209 31.3242ZM87.8049 31.7959C87.4913 31.6386 87.3345 31.4814 87.0209 31.4814C86.7073 31.4814 86.3937 31.6386 86.2369 31.7959C86.0801 32.1103 85.9233 32.2675 85.9233 32.582C85.9233 32.8965 86.0801 33.2109 86.2369 33.3682C86.3937 33.5254 86.7073 33.6826 87.0209 33.6826C87.3345 33.6826 87.4913 33.5254 87.8049 33.3682C87.9617 33.2109 87.9617 32.8965 87.9617 32.582C87.9617 32.2675 87.9617 32.1103 87.8049 31.7959ZM61.6202 24.5632H61.4634V24.406H61.3066H61.1498L60.993 24.2488H60.8362H60.6794L60.5226 24.0915H60.3659H60.2091H60.0523L59.8955 23.9343H59.5819H59.4251H59.1115H58.9547H58.7979H58.4843H58.3275L58.0139 24.0915H57.7003L57.5436 24.2488L57.23 24.406L56.9164 24.5632L56.7596 24.7205L56.446 24.8777L56.2892 25.1921L55.9756 25.5066L55.8188 25.9783L55.662 26.45L55.5052 26.9217L55.3484 27.5506V27.8651L55.1916 28.1795V28.494V28.8085L55.3484 29.1229V29.4374V29.7519L55.5052 29.9091L55.662 30.2235L55.8188 30.3808L55.9756 30.6952L56.2892 30.8525L56.446 31.0097L56.7596 31.1669L57.0732 31.3242H57.3868H57.5436H57.7003L57.8571 31.4814H58.0139H58.1707H58.4843H58.6411H58.7979L59.1115 31.3242H59.2683H59.5819L59.7387 31.1669H60.0523L60.2091 31.0097L60.3659 30.8525L60.6794 30.6952L60.2091 33.0537V33.2109H60.0523L59.8955 33.3682L59.7387 33.5254H59.5819H59.4251L59.1115 33.6826H58.9547H58.6411L58.3275 33.8399H58.0139H57.5436H57.0732H56.6028L56.1324 33.6826H55.8188L55.3484 33.5254L54.878 33.3682L54.5645 33.0537L54.2509 32.7392L53.7805 32.4248L53.4669 32.1103L53.1533 31.7959L52.9965 31.3242L52.6829 30.6952L52.5261 30.2235L52.3693 29.5946V28.9657V28.1795L52.5261 27.5506V27.0789L52.6829 26.7645V26.45L52.8397 25.9783L52.9965 25.6638V25.3494L53.1533 25.0349L53.3101 24.8777L53.4669 24.5632L53.6237 24.2488L53.7805 24.0915L53.9373 23.7771L54.0941 23.6198L54.2509 23.3054L54.4077 23.1481L54.5645 22.9909L54.878 22.8337L55.0348 22.6764L55.1916 22.5192L55.5052 22.362L55.662 22.2048L55.9756 22.0475L56.2892 21.8903H56.446L56.7596 21.7331H57.0732L57.3868 21.5758H57.7003H58.0139L58.3275 21.4186H58.6411H58.9547H59.2683H59.5819H59.7387L60.0523 21.5758H60.3659H60.5226L60.8362 21.7331H60.993H61.3066L61.4634 21.8903H61.6202H61.777L61.9338 22.0475H62.0906L61.6202 24.5632Z"/>
<path clip-rule="evenodd" d="M26.9686 53.9674H28.3798L29.7909 53.8102L31.0453 53.6529L32.4564 53.4957L33.7108 53.1812L34.9652 52.8668L36.2195 52.3951L37.4739 51.9234L38.5714 51.2945L39.8258 50.8228L40.9233 50.0366L42.0209 49.4077L43.1185 48.6215L44.0592 47.8354L45 47.0492L45.9408 46.1058L46.8815 45.1625L47.6655 44.2191L48.4495 43.1185L49.2334 42.1751L50.0174 41.0744L50.6446 39.8166L51.2718 38.716L51.7422 37.4581L52.2125 36.2003L52.6829 34.9424L52.9965 33.6846L53.3101 32.4267V31.955L53.1533 31.7978L52.9965 31.3261L52.6829 30.6972L52.5261 30.2255L52.3693 29.5966V28.9676V28.1815L52.5261 27.5526V27.0809L52.6829 26.7664V26.4519L52.8397 25.9803L52.9965 25.6658V25.3513L53.1533 25.0369L53.3101 24.8796L53.4669 24.5652L53.6237 24.2507V24.0935L53.4669 22.8356L53.3101 21.5778L52.9965 20.3199L52.6829 19.0621L52.2125 17.8042L51.7422 16.5464L51.2718 15.2885L50.6446 14.1879L50.0174 13.0873L49.2334 11.9867L48.4495 10.8861L47.6655 9.78544L46.8815 8.84205L45.9408 7.89867L45 7.11251L44.0592 6.16913L43.1185 5.38297L42.0209 4.59681L40.9233 3.96789L39.8258 3.33896L38.5714 2.71004L37.4739 2.08111L36.2195 1.60942L34.9652 1.29496L33.7108 0.823265L32.4564 0.508803L31.0453 0.351572L29.7909 0.194341L28.3798 0.0371094H26.9686H25.5575L24.1463 0.194341L22.892 0.351572L21.4808 0.508803L20.2265 0.823265L18.9721 1.29496L17.7178 1.60942L16.4634 2.08111L15.2091 2.71004L14.1115 3.33896L13.0139 3.96789L11.9164 4.59681L10.8188 5.38297L9.87805 6.16913L8.78049 7.11251L7.83972 7.89867L7.05575 8.84205L6.11498 9.78544L5.33101 10.8861L4.54704 11.9867L3.91986 13.0873L3.29268 14.1879L2.6655 15.2885L2.03833 16.5464L1.56794 17.8042L1.25436 19.0621L0.783972 20.3199L0.470383 21.5778L0.313589 22.8356L0.156794 24.2507L0 25.6658V26.9236V28.3387L0.156794 29.7538L0.313589 31.1689L0.470383 32.4267L0.783972 33.6846L1.25436 34.9424L1.56794 36.2003L2.03833 37.4581L2.6655 38.716L3.29268 39.8166L3.91986 41.0744L4.54704 42.1751L5.33101 43.1185L6.11498 44.2191L7.05575 45.1625L7.83972 46.1058L8.78049 47.0492L9.87805 47.8354L10.8188 48.6215L11.9164 49.4077L13.0139 50.0366L14.1115 50.8228L15.2091 51.2945L16.4634 51.9234L17.7178 52.3951L18.9721 52.8668L20.2265 53.1812L21.4808 53.4957L22.892 53.6529L24.1463 53.8102L25.5575 53.9674H26.9686ZM5.01742 33.8418H2.50871L4.54704 21.8922H8.93728L9.25087 28.9676L12.23 21.8922H16.777L14.7387 33.8418H12.23L13.7979 24.8796H13.6411L10.0348 33.8418H7.21254V33.3701L7.05575 32.4267V31.0117L6.89895 29.4393V27.7098L6.74216 26.2947V25.3513V24.8796H6.58537L5.01742 33.8418ZM32.1429 26.1375H31.9861H31.8293H31.6725H31.5157L31.3589 25.9803H31.2021H31.0453H30.8885H30.7317H30.5749H30.4181H30.2613H29.9477H29.6341H29.4774L29.3206 26.1375H29.1638H29.007V26.2947H28.8502L28.6934 26.4519L28.5366 26.6092V26.7664V26.9236V27.0809L28.6934 27.2381V27.3953L29.007 27.5526L29.1638 27.7098L29.4774 27.867H29.6341L29.9477 28.0243L30.2613 28.1815H30.5749L30.8885 28.3387L31.2021 28.496L31.3589 28.6532L31.6725 28.9676L31.8293 29.1249L31.9861 29.5966V29.911L32.1429 30.3827L31.9861 31.0117V31.4833L31.8293 31.7978L31.6725 32.1123L31.5157 32.4267L31.3589 32.7412L31.0453 32.8984L30.8885 33.2129L30.5749 33.3701L30.2613 33.5273H29.9477L29.6341 33.6846H29.3206L29.007 33.8418H28.6934H28.3798H28.223H27.7526H27.439H27.1254H26.8118H26.4983H26.3415H26.0279H25.8711L25.7143 33.6846H25.5575H25.2439H25.0871L24.9303 33.5273H24.7735L24.6167 33.3701L24.9303 31.4833H25.0871H25.2439H25.4007L25.5575 31.6406H25.7143H26.0279H26.1847L26.3415 31.7978H26.6551H26.9686H27.1254H27.439H27.7526H27.9094H28.223H28.5366L28.6934 31.6406H28.8502L29.007 31.4833V31.3261L29.1638 31.1689V31.0117V30.8544V30.6972V30.3827L29.007 30.2255L28.6934 30.0683L28.5366 29.911L28.223 29.7538H27.7526L27.439 29.5966L27.1254 29.4393L26.8118 29.1249L26.4983 28.9676L26.1847 28.6532L25.8711 28.3387L25.7143 27.867V27.3953V26.7664V26.4519L25.8711 26.1375V25.823L26.0279 25.5086L26.1847 25.3513L26.3415 25.0369L26.4983 24.8796L26.6551 24.5652L26.9686 24.4079L27.2822 24.2507L27.5958 24.0935H27.9094L28.3798 23.9362H28.8502H29.3206H29.7909H30.1045H30.4181H30.7317H31.0453H31.2021H31.5157H31.6725H31.8293H31.9861H32.1429V24.0935H32.2996H32.4564H32.6132L32.1429 26.1375ZM24.1463 31.7978L23.8328 33.8418H21.4808V33.3701L21.6376 33.0557V32.8984V32.7412L21.4808 32.8984L21.324 33.0557L21.1672 33.2129H21.0105L20.8537 33.3701L20.5401 33.5273L20.3833 33.6846H20.0697L19.9129 33.8418H19.5993H19.2857L18.9721 33.999H18.8153H18.5017H18.1882L18.0314 33.8418H17.7178L17.4042 33.6846H17.0906L16.9338 33.5273L16.777 33.3701L16.6202 33.2129L16.4634 33.0557L16.3066 32.7412L16.1498 32.584V32.4267L15.993 32.2695V31.955L15.8362 31.7978V31.6406V31.3261V31.1689V30.8544L15.993 30.54V30.2255L16.1498 29.911L16.3066 29.5966L16.4634 29.2821L16.6202 29.1249L16.9338 28.8104L17.0906 28.6532L17.4042 28.496L17.561 28.3387L17.8746 28.1815L18.1882 28.0243L18.5017 27.867H18.8153L19.1289 27.7098H19.2857H19.4425H19.5993H19.7561H19.9129H20.0697L20.2265 27.5526H20.3833H20.5401H20.6969H20.8537H21.0105H21.1672H21.4808H21.6376H21.7944H21.9512H22.108H22.2648V27.3953V27.2381L22.4216 27.0809L22.2648 26.7664V26.6092L22.108 26.4519L21.9512 26.2947H21.7944L21.6376 26.1375H21.324H21.1672H20.8537L20.6969 25.9803H20.3833L20.0697 26.1375H19.7561H19.4425H19.1289H18.9721H18.6585L18.3449 26.2947H18.1882H17.8746L17.7178 26.4519H17.561H17.4042L17.2474 26.6092L18.0314 24.4079L18.1882 24.2507H18.3449L18.6585 24.0935H18.8153H18.9721H19.2857L19.4425 23.9362H19.7561H20.0697H20.2265H20.5401H20.8537H21.1672H21.324H21.7944H22.108H22.2648L22.5784 24.0935H22.892H23.2056L23.3624 24.2507L23.676 24.4079L23.9895 24.5652L24.1463 24.7224L24.4599 24.8796L24.6167 25.1941L24.7735 25.3513L24.9303 25.6658L25.0871 25.9803V26.2947V26.6092V26.9236L24.1463 31.7978ZM21.9512 29.4393V29.2821H21.7944H21.6376H21.4808H21.324H21.1672H21.0105H20.8537H20.6969H20.5401H20.3833L20.2265 29.4393H20.0697H19.9129V29.5966H19.7561H19.5993L19.4425 29.7538L19.2857 29.911H19.1289L18.9721 30.0683V30.2255L18.8153 30.3827L18.6585 30.54V30.6972V31.0117V31.3261L18.8153 31.4833L18.9721 31.6406H19.1289L19.2857 31.7978H19.4425H19.5993H19.7561H20.0697L20.2265 31.6406H20.5401H20.6969L20.8537 31.4833H21.0105L21.1672 31.3261L21.324 31.1689L21.4808 31.0117V30.8544H21.6376V30.6972V30.54L21.7944 30.2255V29.911L21.9512 29.5966V29.4393ZM45.784 33.8418H48.4495L49.3902 28.6532V28.496V28.1815V28.0243L49.547 27.867V27.7098L49.7038 27.5526V27.3953L49.8606 27.2381L50.0174 27.0809L50.1742 26.9236L50.4878 26.7664H50.6446L50.9582 26.6092H51.115L51.4286 26.4519H51.899H52.0557H52.2125V26.1375V25.9803V25.823L52.3693 25.5086V25.1941L52.5261 25.0369V24.8796L52.6829 24.7224L52.8397 24.5652V24.4079L52.9965 24.2507V24.0935V23.9362H52.8397H52.6829H52.3693H52.0557L51.899 24.0935H51.5854L51.4286 24.2507H51.2718L51.115 24.4079H50.9582L50.8014 24.5652L50.6446 24.7224L50.4878 24.8796L50.331 25.0369L50.1742 25.1941L50.0174 25.3513V25.5086L49.8606 25.6658L50.1742 24.0935H47.5087L45.784 33.8418ZM39.9826 29.5966V29.7538V29.911V30.0683V30.2255L40.1394 30.3827V30.54L40.2962 30.6972V30.8544L40.453 31.0117L40.6098 31.1689L40.7665 31.3261L40.9233 31.4833H41.0801L41.2369 31.6406H41.3937H41.7073L41.8641 31.7978H42.1777H42.3345H42.6481H42.8049H43.1185H43.2753H43.5888H43.7456L44.0592 31.6406H44.216H44.5296L44.8432 31.4833L45 31.3261L45.3136 31.1689L45.6272 31.0117L45.1568 33.3701H45H44.8432V33.5273H44.6864H44.5296L44.3728 33.6846H44.216H44.0592H43.9024H43.7456L43.5888 33.8418H43.2753H43.1185H42.8049H42.4913H42.1777H41.8641L41.3937 33.6846H40.9233L40.453 33.5273L39.9826 33.3701L39.5122 33.2129L39.1986 33.0557L38.7282 32.7412L38.4146 32.4267L38.101 32.1123L37.7875 31.6406L37.6307 31.1689L37.4739 30.6972L37.3171 30.0683V29.4393V28.6532L37.4739 28.3387V28.0243L37.6307 27.7098V27.2381L37.7875 26.9236L37.9442 26.4519L38.101 26.1375L38.4146 25.6658L38.7282 25.3513L39.0418 25.0369L39.5122 24.7224L39.9826 24.4079L40.453 24.2507L41.0801 23.9362H41.7073H42.4913H42.8049H43.1185H43.5888L43.9024 24.0935L44.216 24.2507L44.6864 24.4079L45 24.5652L45.3136 24.8796L45.4704 25.1941L45.784 25.5086L45.9408 25.9803L46.0976 26.4519V26.9236V27.5526V28.3387L45.9408 28.9676V29.5966L39.9826 29.7538L40.2962 27.867H43.5888L43.7456 27.5526L43.5888 27.3953V27.0809V26.9236V26.7664L43.4321 26.6092V26.4519H43.2753L43.1185 26.2947V26.1375H42.9617L42.8049 25.9803H42.6481H42.4913H42.3345L42.1777 25.823H42.0209L41.8641 25.9803H41.7073H41.5505L41.3937 26.1375H41.2369L41.0801 26.2947V26.4519H40.9233L40.7665 26.6092L40.6098 26.7664V26.9236L40.453 27.0809V27.2381V27.3953L40.2962 27.7098L39.9826 29.5966ZM34.338 21.8922H36.8467L36.5331 24.0935H37.9442L37.6307 26.1375H36.0627L35.1219 31.1689V31.3261L35.2787 31.4833V31.6406H35.4355L35.5923 31.7978H35.7491H36.0627L36.2195 31.955L36.3763 31.7978H36.5331H36.6899H36.8467H37.0035H37.1603V31.6406L36.8467 33.3701L36.6899 33.5273H36.5331L36.3763 33.6846H36.2195H36.0627H35.9059H35.7491L35.5923 33.8418H35.4355H35.2787H34.6516H34.338L34.0244 33.6846H33.7108H33.3972L33.2404 33.5273H33.0836L32.9268 33.3701L32.77 33.2129L32.6132 33.0557V32.8984V32.7412V32.584V32.4267V32.2695V31.955V31.7978L34.338 21.8922Z"/>
<path  clip-rule="evenodd" d="M43.5888 45.6319H56.1324V44.2169H42.3345L43.5888 45.6319ZM40.9233 42.4873H56.1324V40.915H39.9826L40.9233 42.4873ZM39.0418 39.1855H56.1324V37.7704H38.2578L39.0418 39.1855ZM37.6307 35.8836H56.1324V34.4685H37.1603L37.6307 35.8836ZM48.6063 32.5817H53.9373L53.7805 32.4245L53.4669 32.1101L53.1533 31.7956L52.9965 31.3239L52.8397 31.1667H48.9199L48.6063 32.5817ZM41.8641 10.4122H56.1324V8.99707H43.1185L41.8641 10.4122ZM39.669 13.714H56.1324V12.1417H40.6098L39.669 13.714ZM38.101 16.8586H56.1324V15.4435H38.7282L38.101 16.8586ZM37.0035 20.1605H56.1324V18.7454H37.4739L37.0035 20.1605ZM36.5331 23.4623H54.2509V23.3051L54.4077 23.1479L54.5645 22.9906L54.8781 22.8334L55.0348 22.6762L55.1916 22.519L55.5052 22.3617L55.662 22.2045L55.9756 22.0473H56.1324V21.89H36.8467V22.2045L36.5331 23.4623ZM49.2334 29.4371H52.3693V28.9654V28.1793L52.5261 27.8648H49.547L49.3902 28.022V28.1793V28.4937V28.651L49.2334 29.4371ZM55.3484 29.4371H55.9756V27.8648H55.3484L55.1916 28.1793V28.4937V28.8082L55.3484 29.1227V29.4371ZM35.9059 27.8648H37.4739V28.022V28.3365L37.3171 28.651V29.4371H35.9059V27.8648Z" />
</g>
<defs>
<clipPath id="clip0">
<rect width="90" height="54"/>
</clipPath>
</defs>
</svg>
